<?xml version="1.0" encoding="utf-8"?>
<!-- Generator: Adobe Illustrator 27.4.1, SVG Export Plug-In . SVG Version: 6.00 Build 0)  -->
<svg version="1.1" id="Layer_1" xmlns="http://www.w3.org/2000/svg" xmlns:xlink="http://www.w3.org/1999/xlink" x="0px" y="0px"
	 viewBox="0 0 743 497.8" style="enable-background:new 0 0 743 497.8;" xml:space="preserve">
<style type="text/css">
	.st0{fill:url(#SVGID_1_);}
	.st1{opacity:0.7;fill:#69D5EE;enable-background:new    ;}
	.st2{opacity:0.3;fill:#374EAE;enable-background:new    ;}
	.st3{fill:#1D9000;}
	.st4{fill:#0D7C00;}
	.st5{fill:#A7EE4D;}
	.st6{fill:#E4B968;}
	.st7{fill:#2E336C;}
	.st8{fill:#55CAC4;}
	.st9{fill:#FF8C45;}
	.st10{fill:#479C55;}
	.st11{fill:none;}
	.st12{fill:#BA4483;}
	.st13{fill:#A33D7C;}
	.st14{fill:#CF4B89;}
</style>
<g>
	<g id="Layer_2_00000027570698997435263360000009253706822069848763_">
		<g id="OBJECTS">
			<g>
				
					<linearGradient id="SVGID_1_" gradientUnits="userSpaceOnUse" x1="345.4155" y1="125.7135" x2="400.7035" y2="614.0771" gradientTransform="matrix(1 0 0 -1 0 602.8909)">
					<stop  offset="0" style="stop-color:#434FCC"/>
					<stop  offset="1" style="stop-color:#3B9CD5"/>
				</linearGradient>
				<rect class="st0" width="742.9" height="494.7"/>
				<path class="st1" d="M608.7,4.7L254.7,411.6c-23.5-17-45.6-35.7-75-53.1L586,0.7L608.7,4.7L608.7,4.7z"/>
				<polygon class="st1" points="548.7,0.4 31.1,345.1 109.9,393.6 564.5,2.7 				"/>
				<path class="st2" d="M489.2,345.8c1.7-27.8-19.2-19.8-29.7-34.3c-3.5-7.4,5.1-14.7,0.6-22c-1.2-1.9-7.7-10,4.6-8.3
					c8.9,1.2,4.8,11.6,4.7,14.6c-0.3,8.8,14.1,11.1,21.3,18c4.5,4.3-2.8,17.5,6.9,19.8c8.6,2,8.7-4.5,8.5-7
					c-0.5-4.8-1.7-9.8-2.4-14.5c-1.3-8.4-18.6-11.8-14.7-21.7c1.3-3.3-2.1-13.4,3-16.1c11.2-6,10.9,16,12.1,18
					c3.1,5.2,12.3,7.7,13.6,13.2c1.5,6.4-2.7,13.5-0.4,19.7c1.6,4.2,15,11,18.8,3c3.3-6.9-7.9-11.3,2.3-18.7
					c3.7-2.7,6.8-3.5,7.8-6.4c1.5-6.5-10.7-20.3,4.6-22.4c13-0.8,7.2,23.4,2.9,27.1c-5.6,4.8-9.9,7.1-10.2,12.5
					c-0.2,3.8,2.4,8.1,1.1,11.9c-3.5,9.9-36,23.3-60.6,19.1c-14.1-2.4-10.6-9.7-23.7-12.3c-13.8-2.8-13.5-3.2-15.7-10
					c-4.1-9.9-29.7-3-23.1-22.8c5.3-13.3,23.8,10.7,28.5,15.7c3.3,4,3.4,6.4,11,9.1c6.4,2.2,11.9,3.4,15.8,6.5
					C479.9,340.4,482.4,343.6,489.2,345.8L489.2,345.8z"/>
				<polygon class="st1" points="631,1.2 317.6,375.2 341.6,384.5 642.5,3.1 				"/>
				<polygon class="st1" points="658.3,0 383.5,371.2 406.9,391.2 664.5,3 				"/>
				<g>
					<path class="st3" d="M644.8,354.8c8,49.4,38.4,34.7-8.3-19.6c-3.8-4.4-4-0.2-2.5,4.4c15.1,46.2,29.1,50.1,6.4,15.5
						c-5.2-3.2-7.2-12.4-12.3-15.8c-9.8-5.2-2.7,10.1-0.2,13.4c0.4,0.7,1.6,3.8,1.5,2.7"/>
					<path class="st4" d="M720.5,392.7c-14.4-1.9-33.2-8.2-32.7-18.7c-1.1-9,8.6-16.7,9.8-25.5c1.1-7.8-10.1-14.9-9.7-22.8
						c0.3-5,4.1-8.9,1.6-14c-5.3-10.5-18.4-21.7-13.4-34.4c2.1-5,7.1-8.3,15.2-3.3c12.6,7.7,6.2,20.4,8.8,29.5
						c2.6,9.2,13,17.4,12.4,26.8c-0.3,4.4-2.6,8.7-3,13c-0.4,3.7,0.7,7.3-0.7,10.9c-1.6,4-6.5,7.6-6.8,11.8
						c-0.3,4.1,3.6,7.7,6.6,11.4c8,10.1,18.1,11.7,33.9,17.6"/>
					<path class="st5" d="M699.6,373.2c-9.1-3.1-11.7-12.7-7.1-22c5.9-8.2,4.2-12.9-0.9-20.2c-8.7-11.5-5-8.1-5.5-20.1
						c-1.3-2.9-6-2.8-9-4.7c-9.9-6.4,3.7-21.1,1.4-30.9c-0.9-4-5-6.3-6.2-10.1c0-7.2-3-6.7-9.3-7.9c-8.2-2.3-14.3-5.3-15.1-12.2
						c-0.4-3.8,1.5-16.3,11.6-14.5c7.7,1.3,22.6,61.6,24.7,66.6c1.4,3.5-7.7-47.9-3.4-46c37,4.6-8.9,34,28.2,38
						c23.9,2.7-4.5,20-3.7,29c0.5,5.7,9.9,6.9,11.5,12.3c2.2,7.5,3.6,12,11.3,16.5c7.6,4.5,13.1,9,13.6,17.3c0.3,0,0.6-0.2,1.2-0.2
						c-0.2-0.5-0.8-0.6-1.1-1.1"/>
					<path class="st5" d="M703,401.9c-6.3-2.9-9.5-15.6-9.2-21.7c0.2-4.8,2.8-9.6,2-14.4c-0.8-4.7-3.6-6.7-6.9-9.6
						c-15.5-13.7,4.8-36.4-8.8-51.5c-2-2.2-5.7-4.3-7.5-1c-2.2,7.8,1.9,17.4,2.2,25.3c-1.6,9.4-5.7,16.2,2.9,23.8
						c3.3,5.2-0.4,10.8-0.9,16.4c-0.5,7,5.1,10.8,7.2,17.1c2,9,3.6,12,10.5,17.6"/>
					<path class="st5" d="M582.6,344.9c0.2-2.1,5.6-14.8,0.6-15c-3.5-0.2-3.3,12.7-3.1,15.1C580.3,345,580.3,344.9,582.6,344.9z"/>
					<path class="st5" d="M605,343.9c-0.8-1.8-5.9-14.5-1.6-12.9c2.3,0.8,3.4,4.4,4.2,6.4c-0.9-3.5-1.4-20.7,4.6-11.7
						c1.4,3.5,10.8,62.8,10.6,66.5c0,2.1-11.1-52.7-10.1-48.1"/>
					<path class="st5" d="M662.1,320.3c0.1-1.8,8.3,45.8,5.5,46.8c-3.7,1.3-8.6-46-7.9-44.1"/>
				</g>
				<path class="st6" d="M248.2,362.2c163.6,29.8,215.3-19,313.2-20c97.9-0.9,181.5,21.5,181.5,21.5v134.9H0V344.1"/>
				<g>
					<path class="st7" d="M137.7,404.3c0,0,35.1,23.7,94.5,24.6c105.2-8.8,224.9-17-1.3-13.3C231,415.5,250.9,397.8,137.7,404.3z"/>
					<path class="st8" d="M611.7,490.6c-12.7-3-23.4-11.6-28.9-24.1c-3.3-8.8,1.5-11.4,6.2-3.2c4.1,8.1,8.2,19.7,18.6,19.4
						c0.8-3-2.1-14.1-2.5-16.9c-0.7-3.9-2.3-28,5.6-19.2c3.2,10.5-1.7,23.5,2.4,33.7c8.1,10.5,0.1-18.3,7.1-19.8
						c4.3-2,2.9,8.8,2.5,10.7c-0.5,2.5-5.5,14.6-0.5,13.9c6.2-2.2,7.7-10.5,9.9-16.1c9.3-14.6,16,24.8-16.9,21.5"/>
					<g>
						<path class="st9" d="M186.4,449.4c-1.3-0.8-14-2.2-13.4,0.3"/>
						<path class="st10" d="M119.6,483.1c-9-7.6-8.6-18.3-7.1-29.1c-2.1-8.5-8.6-15.9-7.1-25.4c25.2,27.7,15.5,19.1,15.4,53.2
							C121.3,482.1,120.8,481.6,119.6,483.1L119.6,483.1z"/>
						<path class="st10" d="M102.6,475.8c-4.1-6,3.2-12.8,2.9-18.8c-2.1-5.1-3.4-10.2-2.8-15.8c-4.2,2.6-5.9,6.8-4.7,11.6
							c-1.8,8.5-4,15.2,4.2,21.5C102.1,474.2,102,474.1,102.6,475.8L102.6,475.8z"/>
						<path class="st10" d="M82.6,474.3c0-5.6,6.5-8.3,2.1-13.8c-4.1-5.2-5.7-9.8-3.7-16.3c1.1-4.1,2-8.2,4.5-11.7
							c0.9-3-0.1-6.3,0.9-9.4c-9,11.5-15.8,19.1-9.3,33.9c-6.3,12.7-2.9,10.3,5.2,20.1C82.3,476.9,82.2,476.8,82.6,474.3L82.6,474.3
							z"/>
						<path class="st10" d="M153.7,481.5c-4.3-4.4-4.8-11.1-2.9-16.8c0.4-4.2-0.6-8.2,0.9-12.4C154.5,460.4,160.6,474.7,153.7,481.5
							z"/>
						<path class="st10" d="M260.3,489.4c0.9-5.7,2.1-10.9,5.7-15.6c-0.6,6.6,0.9,13.4-0.1,19.9"/>
					</g>
					<g>
						<path class="st7" d="M0,413.2c0,0,38.7-10.6,74.9,0.5c5.7,9.1,7.8,12.4,7.8,12.4c31.4-22.7,72.6,7,91.4,18.9
							c19-4.5,38.2-9,56.6,7.8l-4.8,18.8c10.5-0.1,120.9,9.1,139.7,14.4v12.8H0V413.2z"/>
						<line class="st11" x1="39.7" y1="493.3" x2="49.6" y2="460.9"/>
					</g>
					<g>
						<path class="st12" d="M469.3,494.9h-42.1c-6.2-2.4-9.3-5-8.8-10.3c1.4-10.5-10.2-19.8-13.2-30c16.2,0.6,25.1,7.6,32,17
							c2.1,7.1,1.8,8.8,9.7,12.4c-0.5-2.3,81.1,0.9,81.3-1.1c1.2-13.7-93.4-23.6-90.2-35.9c9-2.9,28.7,16.2,29.8,32.6
							C467.9,484.7,467.8,489.8,469.3,494.9L469.3,494.9z"/>
						<path class="st13" d="M350.3,458.1c-1.3,4.5-5.2,14.5,4.7,12.2c38.7-9.1,22.9,1.9,16.4,9.4c-0.8,1,2.8,1.7,4.1,2.6
							c-7.8-0.5-31.8,3.6-30.3-10.3"/>
						<path class="st13" d="M178.1,431.4c0.2,0,0.5,0,0.7,0"/>
						<path class="st14" d="M207.5,471.7h-18.7c-12.4-13.9-32.5-3-33.1-30c6.8,2.6,15.3,14.5,21.8,12.5c27-16.8,28.5-13.7,8.1,4.6
							c-1.7,1.8,3.8,4.5,5.6,5.6C196.8,465.9,203.2,468.2,207.5,471.7L207.5,471.7z"/>
						<path class="st14" d="M374.6,481.7h-12.3c1.3-9.9,13.7-11.1,18.8-17.3c2.8-3.6,1.3-7.5,3.7-11.1c2.6-3.9,15.9-8.9,22.5-11.6
							c0.6,4.2-6.1,11.5-6.3,15.7c-0.2,3.6,3.4,15.1-1.5,18.1c-5.1,3-17.1-2.9-18.9,0.9c-0.9,1.8-1.2,3.6-2.6,5.3"/>
					</g>
					<path class="st7" d="M267.7,465.5c9.3-13.3,20.5-6.3,30.5-2.9c1.5,7.8,8.8,6.4,12.6,12.4C310.7,475,274.8,470.9,267.7,465.5
						L267.7,465.5z"/>
					<path class="st7" d="M380.5,502.8h-20.7"/>
					<path class="st7" d="M260.4,490.5l15.3,2.4C275.6,492.8,268.2,477,260.4,490.5z"/>
				</g>
			</g>
		</g>
	</g>
</g>
</svg>
