<?xml version="1.0" encoding="UTF-8"?>
<svg id="Layer_2" data-name="Layer 2" xmlns="http://www.w3.org/2000/svg" viewBox="0 0 101.36 66.25">
  <defs>
    <style>
      .cls-1 {
        fill: #00368b;
      }

      .cls-2 {
        fill: #908fb2;
      }

      .cls-3 {
        fill: #e0dfd9;
      }

      .cls-4 {
        fill: #201d30;
      }

      .cls-5 {
        fill: #1753ff;
      }

      .cls-6 {
        fill: #4561ff;
      }

      .cls-7 {
        fill: #2e4eff;
      }

      .cls-8 {
        fill: #2800ff;
      }
    </style>
  </defs>
  <g id="objects">
    <g>
      <path class="cls-1" d="m64.97,14.89H29.24l5.09-10.62c1.25-2.61,3.89-4.27,6.79-4.27h30.99l-7.14,14.89Z"/>
      <path class="cls-2" d="m92.99,34.39c-11.97-15.48-28.38-24.89-46.5-24.89S11.97,18.91,0,34.39h92.99Z"/>
      <path class="cls-5" d="m49.8,54.54h-14.29l4.01,8.36c.99,2.05,3.06,3.36,5.34,3.36h10.56l-5.62-11.72Z"/>
      <path class="cls-3" d="m0,34.39c11.97,15.48,28.38,24.89,46.5,24.89s34.52-9.41,46.5-24.89H0Z"/>
      <path class="cls-7" d="m48.09,46.84c-8,0-14.48-6.48-14.48-14.48h14.48v14.48Z"/>
      <path class="cls-4" d="m23.89,25.67c0,1.73-1.4,3.12-3.12,3.12s-3.12-1.4-3.12-3.12,1.4-3.12,3.12-3.12,3.12,1.4,3.12,3.12Z"/>
      <path class="cls-6" d="m89.58,43.34v-8.95h4.47c4.04,0,7.31,3.27,7.31,7.31v13.41h0c-6.5,0-11.78-5.27-11.78-11.78Z"/>
      <path class="cls-8" d="m89.58,25.45v8.95h4.47c4.04,0,7.31-3.27,7.31-7.31v-13.41h0c-6.5,0-11.78,5.27-11.78,11.78Z"/>
    </g>
  </g>
</svg>