<?xml version="1.0" encoding="UTF-8"?>
<svg xmlns="http://www.w3.org/2000/svg" viewBox="0 0 350.6 559.01">
  <defs>
    <style>
      .cls-1 {
        fill: #fff92e;
      }

      .cls-2 {
        fill: #fffa00;
      }

      .cls-3 {
        fill: #fff;
      }

      .cls-4 {
        fill: #ffe238;
      }

      .cls-5 {
        fill: #ffa477;
      }

      .cls-6 {
        fill: #fba479;
      }

      .cls-7 {
        fill: #dd775f;
      }

      .cls-8 {
        fill: #e0d72d;
      }

      .cls-9, .cls-10 {
        fill: #454551;
      }

      .cls-11 {
        fill: #191919;
      }

      .cls-12 {
        fill: #35251a;
      }

      .cls-13 {
        fill: #777077;
      }

      .cls-10 {
        mix-blend-mode: screen;
      }

      .cls-14 {
        isolation: isolate;
      }
    </style>
  </defs>
  <g class="cls-14">
    <g id="Layer_2" data-name="Layer 2">
      <g id="Layer_1-2" data-name="Layer 1">
        <g>
          <g>
            <path class="cls-5" d="m85.99,106.33c-1.17,1.23-1.4,2.59-1.46,3.08-4.11-9.18-2.98-12.46-2.44-12.73"/>
            <path class="cls-12" d="m89.84,60.89c-.04.43-2.86.66-5.19.51-6.69-.43-9.71-3.98-13.61-5.17-.8-.24-1.51-.28-2.24-.12-2.57.59-5.33,3.75-12.67,9.66.83,2.25,1.46,4.27,1.91,6.08.19.73.34,1.43.47,2.1.84,4.33.59,7.35-.16,9.54-.34.99-.78,1.8-1.26,2.5-.49.7-1.04,1.28-1.58,1.77-.6.55-1.19,1-1.71,1.42-.45.36-.84.66-1.2.92-.76.55-1.34.91-1.93,1.28-1.15.72-2.32,1.48-4.91,3.76-1.08.95-1.77,2.23-2.31,3.64-.29.76-.53,1.55-.77,2.34-.2.67-.38,1.35-.58,2.01-.71,2.35-1.57,4.5-3.5,5.59-2.02,1.15-7.16-1.95-10.08-3.31-.73-.34-1.33-.57-1.69-.6,1.35-1.84,2.81-4.52,2.3-7.45-.38-2.17-1.66-3.46-3.33-4.66-2.41-1.73-5.62-3.3-8.14-7.08-4.11-6.19-4.17-15.02-.91-20.55,1.07-1.83,1.66-1.85,2.79-4.09,3.02-5.98,8.26-10.47,11.67-12.14,2.19-1.08,2.76-2.91,3.74-4.19,1.89-2.48,6.61-4.65,19.34-2.77.31-1.09,1.02-2.98,2.75-4.67,3.18-3.11,8.12-3.87,12.11-2.71,2.61.76,4.39,2.22,5.41,3.24-4.58-2.32-9.67-1.44-12.03,1.51-1.97,2.47-1.38,5.6-1.23,6.31,5.97-3.63,9.63-3.58,11.94-2.68,3.02,1.19,4.75,4.26,7.49,3.85,1.42-.21,2.43-1.26,3.06-2.11-.93,2.77-2.14,3.64-3.1,3.89-2.48.66-4.42-2.41-7.46-1.75-1.92.42-3.37,2.13-3.12,2.63.22.42,1.55-.26,3.32-.15,3.66.25,4.75,3.64,8.63,5.39,1.43.64,3.69,1.27,7.07.81-1.34.4-4.21,1.08-7.73.37-4.17-.83-6.8-3.09-7.8-4.04,4.11,4.57,8.03,6.53,10.95,7.46,2.5.8,5.31,1.19,5.27,1.62Z"/>
            <path d="m135.31,202.21c-1.55.94-4.73,2.67-8.79,3.79-1.24.34-2.57.63-3.95.82-1.62.22-3.22.29-4.79.23-.93-.04-1.85-.12-2.76-.24-2.37-.32-4.7-.91-7.01-1.71-2.2-.76-4.4-1.72-6.6-2.8-1.44-.71-2.89-1.48-4.35-2.29-1.89-1.04-3.8-2.16-5.74-3.3-.03-.02-.06-.04-.09-.06-4.21-2.48-8.65-5.15-13.3-8.02-.8-.49-1.6-.99-2.41-1.5-1.17-.73-2.36-1.47-3.56-2.23-4.8-3.02-9.79-6.25-14.96-9.68-.12-.08-.24-.16-.36-.25-.04-.02-.07-.05-.1-.07-1.66-1.1-3.33-2.23-5.02-3.37,1.59-1.41,3.12-2.79,4.59-4.13,2.35-2.14,4.55-4.18,6.6-6.11.75-.7,1.47-1.39,2.18-2.06.02-.02.05-.05.07-.07,3.38-3.21,6.29-6.06,8.69-8.45.4-.4.79-.79,1.17-1.17.28-.28.55-.56.82-.82,0,0,0,0,0,0,1.79-1.8,3.25-3.26,4.51-4.41.48-.43.92-.82,1.35-1.17,1.18-.96,2.2-1.59,3.2-1.92.5-.17.99-.26,1.5-.29.27-.01.54,0,.82.02,1.07.1,1.99.44,3.08,1.4,0,0,0,0,0,0,.06.05.11.1.17.15.31.29.64.63.99,1.03.19.22.39.46.59.71h0c.95,1.18,2.06,2.74,3.43,4.84,0,0,0,0,0,0,.09.14.19.28.28.43.74,1.13,1.56,2.41,2.47,3.85,1.64,2.6,3.58,5.72,5.93,9.49,4.53,7.3,7.43,11.92,10.36,14.97,1.02,1.06,2.04,1.94,3.14,2.67,2.56,1.7,5.63,3.19,8.27,4.31.11.04.21.09.32.13,2.6,1.09,4.73,1.84,5.5,2.09,3.68,1.24,6.53,1.89,8.63,2.41,2.69.68,4.15,1.16,4.57,2.49,1.22,3.89-8.25,9.58-9.41,10.28Z"/>
            <path class="cls-2" d="m245.84,555.81c-2.07,5.02-27.78,5.12-46.99-7.03-6.01-3.79-5.64-5.15-24.7-21.66-6.52-5.64-11.96-10.16-15.57-13.12.58-1.71,1.16-3.43,1.75-5.15.05-.15.1-.31.16-.46.23-.67.46-1.34.68-2.02,2.15-.07,4.29-.13,6.42-.2.08,0,.15,0,.22,0,.24,0,.48-.02.72-.02,6.53,6.27,16.81,14.43,31.21,20.22,11.68,4.68,19.41,7.78,29.55,6.53,7.32-.91,12.58-3.67,14.83-1.24,2.76,2.98-3.29,9.32-.42,18.51,1.16,3.76,2.69,4.34,2.13,5.65Z"/>
            <path class="cls-1" d="m350.33,485.04c-2.97,2.47-16.04-16.15-39.97-24.36-17.16-5.88-35.44-4.87-41.05-4.56-5.7.31-10.44.97-13.82,1.55-1.83-1.99-3.65-3.99-5.48-5.97-.42-.47-.84-.91-1.26-1.38,2.12-1.2,4.24-2.41,6.37-3.62.62-.36,1.25-.71,1.88-1.07,8.62-2.32,41.7-12.44,80.14,3.77,3.76,1.59,8.92,3.8,10.63,8.43.95,2.57-.82,3.73-.42,9.21.23,3.33.94,3.84,2.11,9.8.99,5.12,1.49,7.68.87,8.2Z"/>
            <path class="cls-1" d="m255.01,451.58c-1.96.49-3.74.35-5,.12-.38-.07-.71-.16-.99-.23-.91-1.04-1.82-2.08-2.74-3.11-.92-1.04-1.84-2.08-2.75-3.12,1.57-1.2,3.14-2.4,4.72-3.59.56.6,1.25,1.27,2.1,1.95.99.82,2.16,1.68,3.55,2.46.42.23.83.45,1.22.64,2.33,1.16,3.96,1.59,3.97,2.47.02,1.36-3.76,2.34-4.08,2.41Z"/>
            <g>
              <path d="m169.94,325.23c-.39.31-.79.6-1.19.91-1.59,1.22-3.19,2.47-4.78,3.69-2.39,1.84-4.77,3.68-7.17,5.52-2.34,1.8-4.67,3.6-7.01,5.41-.17.12-.33.25-.5.38-.82.1-1.69.21-2.61.32-1.16.14-2.4.27-3.7.39-2.48.23-5.23.44-8.19.57,0,0,0,0,0,0-8.48.4-18.77.24-30.02-1.33-7.41-1.04-15.23-2.69-23.21-5.2-6.26-1.98-12.63-4.48-18.96-7.65-3.02-1.51-6.04-3.16-9.04-4.98-5-3.04-11.56-9.4-15.82-16.94l-.19-.34c-.32-.58-.62-1.16-.91-1.75-.16-.31-.3-.61-.44-.93-.22-.45-.41-.93-.61-1.39,0,0,0-.01,0-.02-1.35-3.28-2.18-6.7-2.2-10.1-.01-1.08.06-2.16.22-3.23.35-2.32.5-4.44.56-6.39,0-.05,0-.09,0-.14.04-1.46,0-2.82-.06-4.11-.04-.81-.1-1.6-.17-2.36,0-.08-.01-.16-.02-.24-.08-.86-.17-1.69-.26-2.48-.04-.3-.07-.6-.11-.89h0c0-.1-.02-.19-.03-.27-.07-.53-.12-1.05-.18-1.55-.13-1.19-.23-2.34-.27-3.45-.04-1.53.04-3.01.37-4.5.02-.09.04-.18.06-.27.11-.45.24-.89.39-1.34h0c1.77.2,3.52.43,5.26.7.16.02.32.05.48.07.33.05.65.1.98.15,3.54.58,7.02,1.27,10.43,2.07,1.83.42,3.65.87,5.44,1.35,1.06.27,2.1.56,3.14.86,2.23.64,4.42,1.31,6.59,2.02,3.58,1.16,7.06,2.41,10.44,3.72.6.23,1.19.47,1.79.7.08.03.16.06.24.1,4.57,1.82,8.94,3.75,13.1,5.71,4.29,2.03,8.34,4.09,12.13,6.12,2.15,1.15,4.21,2.29,6.19,3.4,1.48.83,2.92,1.66,4.29,2.46h0c.28.16.55.32.83.48,1.93,1.13,3.75,2.21,5.47,3.24,3.33,1.99,6.25,3.77,8.71,5.22.24.15.48.28.71.42.15.09.29.17.43.25.07.04.14.08.22.13.39.22.77.45,1.16.68,1.58.92,3.14,1.85,4.66,2.78,10.04,6.09,19.07,12.31,27.43,17.98,2.03,1.4,4.01,2.74,5.97,4.05Z"/>
              <path d="m251,444.39c-.2.2-.43.4-.65.61-1.53,1.44-2.21,2.08-3.74,3.55-.06-.03-.17-.1-.33-.2-5.7-3.45-72.89-48.01-82.64-68.66-3.77-8.02-2.32-20.02-5.12-26.11-1.69-3.68-3.77-6.69-5.75-9.02-.21-.23-.41-.47-.61-.7-.87-1-1.7-1.86-2.45-2.6.02-.17.04-.35.08-.53.22-1.7.44-3.4.67-5.1,0-.01,0-.02,0-.04.44-3.34.88-6.68,1.31-10.02.14-.95.27-1.91.39-2.86,1.14-.47,2.48-.93,3.9-1.27,1.46-.34,3-.58,4.58-.59.83,0,1.69.05,2.56.19.03,0,.06,0,.09.02.23.02.46.07.67.11.55.13,1.11.28,1.65.47,5.76,2.01,9.04,7.49,11.22,13.04,1.32,3.38,2.23,6.8,3.04,9.47,1.5,4.85,6.57,13,15.75,26.24,2.91,4.2,6.24,8.91,10,14.19,3.9,5.48,8.27,11.58,13.12,18.35,6.87,9.59,16.61,22.62,29.22,37.84.77.92,1.56,1.88,2.37,2.82.21.26.44.53.66.79Z"/>
              <path d="m247.98,440.77c-3.9-3.37-8.16-7.23-12.62-11.56-14.91-14.51-29.85-29.02-41.71-48.69-2.23-3.7-4.34-7.58-6.34-11.67-.51-1.05-1-2.08-1.46-3.09-7.8-16.97-9.41-28.23-21.87-35.94-.25-.17-.51-.33-.77-.47-1.93-1.15-3.47-1.81-5.09-2.32-1.78-.56-3.68-.91-6.34-1.45-2.38-.5-5.39-1.15-9.49-2.26-.92-.24-1.86-.49-2.79-.75-7.58-2.03-15.92-4.38-23.98-7.62-2.43-.97-4.83-2.03-7.18-3.18-.41-.21-.82-.41-1.23-.63-2.37-1.2-4.67-2.51-6.88-3.93-.47-.3-.94-.61-1.4-.93-1.41-.95-2.77-1.95-4.08-3.02-9.62-7.84-10.31-17.98-6.96-21.09,2.39-2.23,12.32-.07,16.11,1.96,2.15,1.15,4.21,2.29,6.19,3.4,1.48.83,2.92,1.66,4.29,2.46.28.16.56.32.83.48,1.93,1.13,3.75,2.21,5.47,3.24,3.33,1.99,6.25,3.77,8.71,5.22.24.15.48.28.71.42.15.09.29.17.43.25.07.04.14.08.22.13.39.22.77.45,1.16.68,1.58.92,3.14,1.85,4.66,2.78,10.04,6.09,19.07,12.31,27.43,17.98.55.13,1.11.28,1.65.47,5.76,2.01,9.04,7.49,11.22,13.04,1.32,3.38,2.23,6.8,3.04,9.47,1.5,4.85,6.57,13,15.75,26.24,2.91,4.2,6.24,8.91,10,14.19,3.9,5.48,8.27,11.58,13.12,18.35,6.87,9.59,16.61,22.62,29.22,37.84Z"/>
            </g>
            <path d="m205.46,179.95s-.17.09-.49.25c-2.32,1.19-12.44,6.33-21.4,10.26-2.9,1.27-5.67,2.41-8.02,3.26-.02,0-.05.02-.07.02-20.4,7.3-40.87,14.56-52.99,14.89-2.18.06-3.95-.62-5.37-1.17-.78-.31-1.45-.57-2.03-.65-.03,0-.05,0-.08-.01-2.4-.41,2.93-3.49,1.2-3.84-4.98-.99-6.92-1.92-7.75-2.66-.37-.32-.51-.62-.63-.87-1.47-3.71,4.5-8.97,6.06-10.28,1.83-.74,3.94-1.59,6.34-2.45.03-.02.06-.02.09-.04.65-.23,1.32-.47,2-.72,1.08-.38,2.22-.76,3.4-1.14,3.86-1.25,8.21-2.51,13.03-3.63,1.3-.31,2.57-.59,3.9-.86,1.96-.39,4.06-.76,6.63-1.16,4.55-.69,10.57-1.46,19.86-2.53.61-.07,1.24-.14,1.88-.21.07,0,.14-.02.21-.02,2.52-.29,5.23-.6,8.12-.91.95-.11,1.92-.21,2.91-.32,2.81-.3,5.77-.62,8.87-.95,2.46-.26,5.01-.52,7.65-.78,1.4-.14,2.83-.29,4.28-.43.02,0,.04,0,.07,0,.17.48.32.97.48,1.46.03.07.05.14.07.22.31.92.61,1.83.92,2.76.1.31.21.62.31.94.18.53.36,1.04.52,1.56v.03Z"/>
            <path class="cls-8" d="m170.51,509.21c-.37,1.32-4.31,1.24-4.62,1.23-2.22-.05-4.01-.77-5.17-1.38-.14-.08-.27-.15-.39-.22-.06-.03-.12-.07-.17-.1-.59-1.24-1.17-2.48-1.75-3.72-.57-1.24-1.16-2.47-1.74-3.71.85-.33,1.7-.66,2.54-1,1.02-.39,2.04-.79,3.06-1.19.39.75.88,1.6,1.51,2.51.7,1.03,1.58,2.12,2.65,3.21.29.3.6.57.87.84.18.16.36.32.53.47,1.7,1.48,2.92,2.26,2.69,3.04Z"/>
            <g>
              <path d="m123.13,373.47c-2.4.36-4.78.73-7.17,1.08-.38.06-.76.12-1.13.17-.4.06-.79.13-1.19.18-.05.02-.09.02-.15.04-1.39.22-2.8.43-4.21.65-1.67.26-3.34.51-5.01.78-.03,0-.03,0-.06,0h0s0,0,0,0c-2.43.37-4.87.74-7.31,1.13-.01.02-.02,0-.04.01-.8-.31-1.66-.64-2.56-1-1.87-.74-3.93-1.6-6.16-2.58-3.6-1.6-7.62-3.52-11.89-5.82-3.89-2.09-7.99-4.5-12.17-7.27-8.57-5.68-17.48-12.82-25.64-21.75-3.09-3.37-6.07-7-8.89-10.9-2.54-3.49-4.93-7.21-7.14-11.14-1.54-2.73-2.96-6.54-3.91-10.84-.05-.21-.1-.42-.13-.63t0,0v-.06c-.4-1.92-.7-3.92-.86-5.96-.13-1.59-.18-3.2-.14-4.81,0-.31.02-.61.04-.92.04-.9.12-1.81.23-2.7.17-1.38.41-2.75.75-4.08.24-.95.52-1.88.85-2.8.35-.97.76-1.91,1.23-2.82.38-.74.8-1.46,1.26-2.15.37-.55.76-1.09,1.19-1.61.58-.71,1.16-1.41,1.73-2.08.45-.54.9-1.05,1.35-1.56.02-.02.04-.05.06-.07.57-.65,1.13-1.27,1.69-1.88.76-.82,1.51-1.6,2.25-2.35.37-.39.75-.76,1.12-1.14.03-.03.06-.06.09-.09.63-.63,1.25-1.23,1.86-1.82.35-.34.7-.66,1.05-.98.75-.7,1.49-1.37,2.21-2.01.97-.85,1.91-1.65,2.82-2.42.08-.07.16-.13.23-.2.32-.26.62-.52.93-.78.42-.35.83-.7,1.24-1.04.11-.09.22-.18.33-.28.53-.44,1.06-.87,1.58-1.3.81-.67,1.59-1.33,2.35-1.99.29.56,2.26,3.52,5.22,7.87,2.19,3.23,4.93,7.21,7.91,11.55,12,17.43,28.01,40.45,29.09,41.88h0c.04.06.2.27.24.32.08.1,3.3,4.43,4.84,6.56.61.84,1.21,1.68,1.81,2.54,1.74,2.48,3.5,5.02,5.23,7.62,1.59,2.37,3.13,4.72,4.61,7.05,2.69,4.23,5.22,8.39,7.58,12.46.24.42.49.84.73,1.26.42.72.82,1.44,1.23,2.15.96,1.7,1.9,3.38,2.81,5.05l.02.03h0c1.75,3.21,3.39,6.34,4.93,9.4.37.68.7,1.36,1.05,2.04Z"/>
              <path d="m164.13,502.48c-.28.16-.53.28-.82.42-.93.5-1.6.84-2.29,1.2-.68.37-1.37.73-2.34,1.22-.05-.05-.14-.14-.27-.28-3.07-3.29-28.03-32.35-44.71-57.63-2.37-3.59-4.58-7.1-6.5-10.44-4.5-7.71-7.64-14.57-8.4-19.55-1.31-8.67,3.59-19.79,2.68-26.39-.33-2.34-.86-4.5-1.5-6.43-.55-1.69-1.16-3.21-1.81-4.54-.26-.56-.51-1.09-.78-1.58-.17-.35-.35-.67-.51-.98-.11-.19-.2-.39-.31-.57.73-1.61,1.46-3.24,2.19-4.85,1.86-4.11,3.71-8.2,5.57-12.31.1,0,.18-.02.28-.02,1.18-.11,2.49-.2,3.87-.15,2.28.08,4.7.45,6.99,1.49.56.26,1.14.58,1.67.93h0c.16.09.33.2.47.3,3.66,2.56,5.48,6.57,6.37,10.87.49,2.38.7,4.84.78,7.2.09,2.65.02,5.16.04,7.25,0,1.17.14,2.56.42,4.2,1.67,9.98,8.3,29.03,19.92,62.4,4.06,11.69,10.12,27.99,18.62,47.39.11.28.24.55.37.83Z"/>
              <path d="m164.13,502.48c-.28.16-.53.28-.82.42-.93.5-1.6.84-2.29,1.2-.61-1.28-1.22-2.53-1.82-3.77-8.59-17.41-17.1-31.03-23.84-40.9-7.77-11.38-14.88-20.27-19.78-28.93-1.8-3.17-3.29-6.31-4.42-9.52-1.66-4.71-2.51-9.59-2.33-14.98.33-9.4,3.7-16.99,6.52-21.97-1.88-1.18-3.88-2.49-6.02-3.96-1.63-1.12-3.34-2.34-5.09-3.66-.01,0-.02,0-.03-.02h0c-1.75-1.33-3.58-2.77-5.43-4.29-8.69-7.14-18.11-16.49-26.57-28.5-2.39-3.39-4.96-7.36-7.37-11.46-.76-1.3-1.51-2.61-2.23-3.92-4.47-8.11-7.89-16.12-7.6-20.51.06-1.05.34-1.89.87-2.47.09-.11.19-.21.3-.3,2.6-2.11,9.24.99,16.53,5.58.96.6,1.93,1.23,2.9,1.88.84.56,1.67,1.12,2.51,1.7h0c1.71,1.17,3.4,2.37,5.05,3.56.3.22.59.43.88.64,1.28.93,2.52,1.86,3.71,2.74.99.73,1.94,1.45,2.85,2.12.35.26.7.52,1.05.78,1.09.81,2.18,1.63,3.28,2.46,1.74,2.48,3.5,5.02,5.23,7.62,1.59,2.37,3.13,4.72,4.61,7.05,2.69,4.23,5.22,8.39,7.58,12.46.25.42.49.84.74,1.26.41.73.83,1.44,1.23,2.15.96,1.7,1.9,3.38,2.81,5.05l.02.03h0c.16.09.33.2.47.3,3.66,2.56,5.48,6.57,6.37,10.87.49,2.38.7,4.84.78,7.2.09,2.65.02,5.16.04,7.25,0,1.17.14,2.56.42,4.2,1.67,9.98,8.3,29.03,19.92,62.4,4.06,11.69,10.12,27.99,18.62,47.39.11.28.24.55.37.83Z"/>
            </g>
            <path class="cls-5" d="m83.19,140.42c-.47.52-.94,1.04-1.41,1.55-.6.65-1.19,1.31-1.78,1.96-.44.49-.9.98-1.36,1.47-.88.98-1.76,1.95-2.65,2.91-.06.06-.12.13-.18.2-.06.07-.12.13-.19.21,0,0,0,0,0,0-1,1.1-2.43,2.65-3.96,4.31-2.08,2.26-4.37,4.75-6.14,6.69-.75.82-1.41,1.54-1.92,2.1-.31-.17-.61-.35-.91-.53-2.45-1.48-4.69-3.3-6.83-5.25-.71-.65-1.42-1.32-2.12-2-3.51-3.41-6.86-7.05-10.68-10.02-1.37-1.06-2.81-2.04-4.32-2.89-.23-.12-.48-.27-.73-.4-2.91-1.63-7.22-4.02-11.16-6.23-.07-.04-.15-.09-.22-.12t0,0c-1.85-1.03-3.62-2.02-5.11-2.85-.57-.32-1.1-.62-1.58-.89l2.15-.74h0c1.56-.54,3.13-1.08,4.7-1.62.28-.1.56-.19.84-.29h0s0,0,0,0c.41-.14.81-.28,1.21-.42.24-.08.47-.17.72-.25.95-.33,1.9-.65,2.84-.98.06-.02.11-.04.17-.06.23-.08.47-.16.69-.24.22-.08.44-.15.66-.23.65-.23,1.3-.45,1.95-.68.01,0,.02,0,.04-.01.23-.08.46-.16.69-.24.67-.23,1.34-.46,2-.7.12-.39.22-.79.33-1.19.1-.32.18-.63.27-.96.13-.5.25-1,.38-1.51.09-.37.19-.73.28-1.11l.2-.87c.02-.1.05-.2.07-.31.06-.26.12-.53.17-.79.15-.69.28-1.39.41-2.11.02-.1.04-.21.06-.31.37-2.02.68-4.15.92-6.36.06-.54.12-1.09.17-1.64.1-1.18.19-2.35.25-3.48,0-.14.02-.28.02-.42.04-.71.06-1.41.07-2.11,0-.16,0-.32.01-.48.01-.67.02-1.34.02-2,0-.87-.01-1.72-.03-2.57.81-.28,2.05-.63,3.58-.84,1.46-.2,3.19-.28,5.11-.04.25.04.51.08.77.12h0c.49.08.98.19,1.49.31,2.71.71,5.25,2.04,7.49,3.8.08.06.15.12.22.19,2.05,1.68,3.8,3.76,5.11,6.11,0,.02.01.04.02.05.26.46.5.92.72,1.4h0c.6,1.31,1.08,2.69,1.4,4.11,0,.14,0,.29,0,.44-.03,2.17-.07,4.35-.1,6.54-.02,1.11-.03,2.21-.05,3.32-.02.42-.02.84-.02,1.27-.04,2.26-.07,4.55-.11,6.81,1.2.86,2.41,1.72,3.62,2.59.03.02.07.04.1.07.7.5,1.41,1,2.1,1.5.06.04.11.08.17.12.08.06.16.11.24.17.52.36,1.03.72,1.55,1.07l.23.16.51.36c.48.33.94.66,1.42.98,1.03.73,2.07,1.45,3.1,2.17.1.07.22.15.37.26.04.03.09.06.13.09.25.18.5.35.74.53.36.26.72.52,1.09.76Z"/>
            <path class="cls-5" d="m84.28,118.18c-.14.02-.29.04-.43.05-.13.02-.26.03-.38.05-.58.08-1.17.15-1.77.21-.22.02-.44.04-.66.06-.8.07-1.61.13-2.42.17-1.02.06-2.03.08-3.06.07-.55,0-1.11-.01-1.67-.04-.56-.02-1.13-.05-1.69-.09-.52-.04-1.05-.08-1.58-.14-.88-.09-1.75-.21-2.62-.35-1.81-.29-3.61-.69-5.37-1.2-1.32-.38-2.63-.84-3.9-1.37-2.93-1.19-5.74-2.77-8.34-4.78-1.48-.88-2.98-1.73-4.5-2.48-1.37-1.47-1.11-3.55-.74-5.66.18-1.03.38-2.07.44-3.06.01-.23.02-.45.01-.67-.4,0-.93-.03-1.56-.1-.18-.02-.37-.04-.56-.07-.39-.06-.81-.13-1.24-.23-.41-.09-.83-.2-1.27-.35-.67-.22-1.37-.5-2.06-.86-.04-.02-.09-.05-.14-.08-.14-.07-.29-.16-.43-.25-.17-.1-.34-.21-.51-.32-1.27-.85-2.24-1.83-2.95-2.85-1.88-2.58-2.17-5.37-2.32-6.59-.07-.62-.13-1.32-.15-2.03,0,0,0,0,0,0t0-.01h0c-.01-.22-.02-.43-.02-.64,0-.04,0-.08,0-.12,0-.11.02-.2.02-.3.01-.18.02-.36.04-.53.02-.18.04-.35.1-.52,0-.05,0-.12.04-.16.03-.15.08-.32.14-.48.11-.32.26-.62.46-.9.05-.06.11-.13.16-.2.03-.03.05-.07.08-.1.03-.04.07-.07.11-.11.05-.05.1-.09.15-.14.05-.04.11-.09.17-.13.02-.02.05-.03.07-.05h0c.07-.05.15-.1.23-.14.11-.06.23-.12.35-.17.14-.06.28-.11.43-.15.05-.02.1-.03.16-.04.08-.02.16-.04.23-.05.04,0,.07-.02.11-.02.06-.01.13-.02.2-.03.07-.01.14-.02.21-.03.09-.01.19-.02.28-.02,0,0,.02,0,.03,0,.08,0,.18,0,.26,0,.07,0,.14,0,.22,0,.04,0,.08,0,.12,0,.04,0,.09,0,.13,0,.01,0,.02,0,.03,0,.03,0,.07,0,.1,0,.1,0,.21.02.31.03.11.01.23.03.35.05.04,0,.08.01.12.02.06,0,.12.02.17.03.03,0,.06,0,.09.02.09.02.18.03.27.05.12.03.24.05.36.09.08.02.16.04.24.07.07.02.15.04.22.06.24.07.48.15.72.23.04.01.08.03.13.05.11.05.22.09.33.13.07.03.14.06.22.09.05.02.11.05.17.07.09.04.19.08.28.13.05.02.1.04.14.07.02,0,.05.02.07.03.05.03.1.05.15.07.02.01.05.02.07.04.07.04.14.07.22.11.12.06.24.12.36.19.02.01.03.02.05.03.1.05.19.11.29.16.13.08.26.15.39.24.09.06.18.11.27.17.1.06.2.13.3.2.11.07.23.15.34.23.15.1.3.2.44.31.12.09.24.18.36.27h0c.12.1.24.19.36.29h0c.12.38.23.76.34,1.14h0s.02.05.02.05v.02s.02,0,.02,0c.06.22.13.44.19.65.01.05.03.11.05.16.01.05.03.1.04.15,0,.02.01.03.02.05.02.05.03.11.05.16.02.06.03.12.05.18l.05.16.02.07h0s.2.67.2.67c0,0,0,.01,0,.02.02.06.04.13.06.19.04.13.08.26.12.39h0c.02.06.04.12.05.18,0,0,0,0,0,.01,0,0,0,0,0,0,0,0,0,.01,0,.01.02.07.04.15.06.22h.01s0,.02,0,.03h0c.07.23.14.46.2.69.03,0,.07-.01.1-.02,0,0,.01,0,.02,0,0,0,.01,0,.02,0,0,0,0,0,.02,0,.32-.07.64-.15.96-.22.24-.05.47-.11.71-.16.15-.03.29-.07.43-.1.19-.04.38-.09.56-.13.41-.1.82-.2,1.24-.29.1-.03.21-.05.32-.08-.06-.16-.1-.33-.16-.5,0,0,0,0,0,0-.06-.21-.13-.42-.19-.63,0-.03-.01-.05-.02-.09-.06-.2-.11-.41-.17-.62-.06-.22-.12-.44-.18-.67-.17-.63-.33-1.28-.48-1.95-.03-.11-.05-.23-.08-.34-.02-.12-.05-.24-.08-.36h0s0-.04,0-.05c-.03-.13-.05-.26-.08-.39-.04-.18-.07-.35-.1-.54-.02-.12-.03-.23-.06-.35-.07-.4-.15-.8-.21-1.22-.06-.39-.12-.78-.18-1.18h0c0-.09-.02-.18-.04-.27-.03-.28-.07-.56-.1-.85-.04-.41-.08-.81-.11-1.21-.04-.46-.08-.92-.1-1.37-.13-2.17-.11-4.2,0-6.06.1-1.78,1.66-4.31,1.89-5.78,4.9-.64,6.37.4,7.49-2.27,2.43-5.81,9.98-6.68,10.75-5.54.06.09.17.24.3.45.75,1.14,2.44,3.77,2.79,4.29,1.56,2.28,3.12,4.56,4.67,6.84.04.06.08.12.12.18.31.45.62.9.92,1.36.04.06.08.13.12.18,0,0,.01.02.02.03.36.5.7,1.02,1.05,1.54.1.15.21.32.32.47.05.07.11.16.16.23h0s.04.06.06.09c0,.02-.01.04-.01.07l-.43,1.9c-.02.07-.03.14-.05.21-.04.14-.07.29-.1.43-.08.32-.15.65-.22.96l-.09.38c-.05.22-.1.43-.13.64-.02.06-.05.11-.06.18-.24,1.03-.48,2.06-.71,3.09.17.29.43.71.77,1.23.12.17.23.35.37.54.22.33.46.68.73,1.06.15.22.32.46.49.69.37.53.77,1.09,1.19,1.65,0,.02.02.03.02.05.47.65.96,1.32,1.47,1.99.09.13.19.25.28.38,2.48,3.31,5.05,6.53,5.94,7.16-1.04,1.25-5.07,2.27-6.21,2.67,0,0-.01,0-.02,0-.07.03-.12.05-.17.07.03.03.04.08.06.12.39.78.82,3.23,1.22,3.78-.16.05-.25.12-.31.22-.24.43.3,1.39,1.16,2.8,1.53,2.51,4,6.46,4.69,11.55.19,1.62-2.95,2.59-4.63,3.04Z"/>
            <path d="m90,249.02c-.26,1-.52,2-.79,2.96,0,0,0,.01,0,.01-.39,1.4-.8,2.76-1.24,4.08-.61,1.87-1.26,3.65-1.95,5.31-.54,1.29-1.1,2.51-1.68,3.64-.79,1.53-1.64,2.9-2.52,4.08-.17.22-.33.43-.51.64,0,0,0,0,0,0-.84,1.03-1.72,1.89-2.65,2.56-.48.35-.97.65-1.48.89-.15.07-.29.13-.43.19-.93.39-1.91.59-2.93.57-.69,0-1.59.02-2.63.07-.02,0-.05,0-.08,0-.55.03-1.13.06-1.75.11-.36.02-.73.05-1.11.08-2.26.17-4.91.42-7.75.71-.52.05-1.04.11-1.58.16-.9.09-1.81.19-2.73.29-2.17.23-4.38.48-6.56.74-1.02.12-2.03.24-3.02.35-.37.05-.73.08-1.09.13-.06,0-.12.01-.18.02-1.24.14-2.47.28-3.64.41-2.88.34-5.5.63-7.64.87-1.61.18-2.93.31-3.88.4-.84.09-1.38.12-1.57.1-.19-1.73-.43-3.49-.72-5.28t0-.01c-.05-.35-.11-.7-.17-1.06-.03-.18-.06-.35-.09-.53-.05-.31-.1-.62-.16-.93-1.95-11.05-5.43-23.03-9.2-35.28-.27-.88-.54-1.76-.82-2.64-2.31-7.41-4.7-14.91-6.91-22.34-.17-.57-.34-1.15-.51-1.72-.24-.81-.47-1.62-.71-2.42-1.11-3.89-2.17-7.75-3.14-11.56-1.96-7.85-3.66-15.53-5.14-22.97-.23-1.2-.46-2.41-.69-3.6t0-.03c-.52-5.92-.47-10.98,0-15.3.02-.21.04-.41.07-.61.07-.59.15-1.16.24-1.72.62-3.94,1.63-7.2,2.92-9.9.17-.34.33-.68.51-1,4.9-9.22,13.24-11.3,19.64-11.78.13,0,.25-.02.37-.02h0c1.06-.07,2.05-.1,2.97-.11h0c.61,0,1.18,0,1.71,0,.35,0,.69,0,1,0,1.49-.02,2.49-.09,2.78-.46h0c.04-.06.07-.1.11-.15l.18-.22.13-.18s.05.05.05.05c.88.86,1.96,1.72,3.18,2.56.12.08.24.17.36.25.62.43,1.28.85,1.97,1.27.5.3,1.02.6,1.55.9,1.9,1.07,4.01,2.1,6.23,3.08,2.19.96,4.48,1.87,6.81,2.68,1.44.5,2.88.97,4.32,1.4,4.17,1.24,8.3,2.14,11.91,2.52.17.02.33.03.49.05,1.21.12,2.36.18,3.44.17,2.12-.02,3.94-.3,5.31-.9.99-.43,1.74-1.03,2.2-1.83.1.07.22.15.37.26.04.03.09.06.13.09.59.39,1.57,1.03,3.33,2.08.33.2.69.41,1.08.64.62.37,1.31.76,2.08,1.21,1.53.88,2.86,1.76,4.01,2.71,1.35,1.07,2.47,2.17,3.42,3.31,0,0,0,0,0,0,1.14,1.37,2.02,2.79,2.75,4.28.87,1.78,1.52,3.65,2.09,5.62.13,3.26.26,6.52.38,9.78.02.65.05,1.3.07,1.95.11,3.1.24,6.2.35,9.3.09,2.5.18,4.99.28,7.49.09,2.31.18,4.61.27,6.92-.26.21-.51.43-.77.64-1.15.96-2.31,1.91-3.49,2.88-.05.6-.11,1.28-.18,2.06-.29,3.26-.75,8.03-1.32,13.72-.05.54-.11,1.09-.17,1.65-.04.34-.07.67-.1,1.01-.32,3-.7,6.18-1.14,9.44-.09.66-.18,1.33-.28,2.01-.41,2.9-.88,5.84-1.4,8.77-.19,1.11-.4,2.22-.62,3.33-.04.2-.08.4-.11.58-.15.72-.29,1.44-.44,2.15-.45,2.17-.94,4.3-1.47,6.37Z"/>
            <path class="cls-7" d="m46.34,88.91c.05-.01.1-.03.16-.04-.03.11-.06.2-.08.26-.37-.93-1.56-3.55-4.51-5.15-.79-.43-5.07-2.75-8.05-.53-.63.47-1.13,1.08-1.48,1.78-.07-1.7.17-3.45,1.52-4.38,2.21-1.47,6.77-.49,10.87,2.86.53,1.74,1.06,3.47,1.57,5.21Z"/>
            <path d="m108.76,210.3c-.39,1.44-1.24,2.64-2.28,3.63-2.09,1.98-4.95,3.08-6.35,3.56-.31-.07-.62-.14-.93-.21-1.2-.28-2.45-.58-3.75-.89-1.86-.45-3.81-.93-5.83-1.46-.77-.2-1.54-.4-2.33-.61-1.47-.39-2.98-.8-4.52-1.22-4.49-1.24-9.25-2.64-14.18-4.21-1.13-.36-2.27-.73-3.42-1.1-3.06-1.01-6.18-2.08-9.35-3.23-1.97-.71-3.95-1.45-5.95-2.22-.5-.19-1.01-.39-1.53-.6-.65-.25-1.32-.52-1.98-.79-.33-.14-.66-.27-1-.41-1.8-.74-3.64-1.55-5.52-2.45-1.15-.54-2.32-1.12-3.5-1.74t0,0c-1.58-.83-3.18-1.73-4.81-2.71-1.03-.62-2.07-1.28-3.11-1.98-.38-.25-.76-.51-1.14-.77-.19-.14-.39-.27-.58-.41h0c-.62-.44-1.25-.9-1.87-1.37-.1-.07-.2-.15-.29-.22-.78-.59-1.57-1.21-2.36-1.85-1.16-.96-2.21-1.86-3.14-2.72-.4-.37-.78-.72-1.15-1.07-.41-.39-.8-.77-1.16-1.12-.24-.24-.47-.47-.68-.68-1.25-1.3-2.08-2.26-2.5-2.75-3.04-3.6-5.36-7.22-7.15-10.61-2.39-4.51-3.81-8.62-4.67-11.75,0-.01,0-.02-.01-.04.04-.01-.21-1.41-.52-3.1-.02-.08-.03-.15-.04-.22-.16-.85-.33-1.75-.48-2.58-.31-1.67-.55-3.05-.5-3.06.02-2.39.26-4.51.67-6.4h0c.09-.45.2-.88.32-1.3h0c.04-.18.09-.35.15-.52.3-1.01.67-1.94,1.08-2.8h0c.86-1.79,1.94-3.27,3.2-4.47.69-.67,1.44-1.25,2.23-1.75,4.45-2.83,10.28-3.21,15.93-2.37.09.02.18.03.27.04.92.14,1.83.32,2.73.52.43.09.85.19,1.27.3,1.59.4,3.12.88,4.57,1.41,5.76,2.09,10.14,4.93,10.73,6.6.02.02.04.04.06.07.01,0,0,.01.01.02,2.31,2.56,4.77,5.22,7.3,7.89.93.98,1.87,1.97,2.81,2.95,3.79,3.97,7.69,7.92,11.43,11.64.19.19.38.38.57.56,1.11,1.11,2.21,2.19,3.29,3.25.65.63,1.29,1.26,1.92,1.87t0,0c.54.53,1.08,1.04,1.6,1.56h0s0,0,0,0c2.01,1.94,3.91,3.76,5.66,5.39t0,0c3.18,2.98,5.85,5.38,7.71,6.94.29.24.55.46.8.66.68.54,1.34,1.11,1.99,1.7.37.34.75.69,1.12,1.06.5.48.99.98,1.49,1.5.56.58,1.13,1.2,1.71,1.85h0c.66.74,1.35,1.53,2.06,2.38.19.23.39.46.58.7.59.71,1.21,1.45,1.85,2.25.18.22.36.44.54.67h0c.89,1.09,1.83,2.27,2.84,3.54.47.59.96,1.2,1.47,1.84.29.36.58.73.88,1.11.68.86,1.31,1.65,1.88,2.4,1.14,1.51,2.05,2.84,2.72,4.04.12.22.23.43.34.65.34.68.58,1.33.75,1.96.27,1.04.3,2.02.06,3.02-.01.07-.02.15-.05.22Z"/>
            <path d="m162.87,156.4c-.15.31-.3.64-.46.97-.12.28-.25.56-.39.85-2.8,6-6.89,13.39-12.73,20.94-.79,1.02-1.61,2.05-2.47,3.07-2.03,2.41-4.24,4.83-6.65,7.21-.93.92-1.9,1.84-2.89,2.75-5.01,4.58-12.43,10.15-19.5,14.85-.22.14-.43.29-.65.43-2.6,1.72-5.14,3.31-7.48,4.68-1.1.64-2.16,1.23-3.16,1.77-2.45,1.31-4.55,2.28-6.09,2.74-.37.12-.75.15-1.12.13-1.29-.07-2.56-.83-3.71-1.42-.92-.48-1.76-.85-2.45-.69-1.28.3-2.44.36-3.47.25-.86-.09-1.64-.31-2.33-.61-2.85-1.22-4.25-3.8-4.09-4.94.31-2.12,1.07-4.24,1.59-5.51.13-.32.24-.57.33-.77,1.29-1.44,2.79-3.1,4.53-4.87.5-.52,1.02-1.04,1.55-1.58,1.82-1.82,3.86-3.77,6.11-5.79,1.23-1.1,2.52-2.22,3.88-3.36.48-.4.97-.81,1.48-1.22.34-.27.67-.55,1.02-.82,2.99-2.39,5.82-4.47,10.61-7.63,3.51-2.31,8.06-5.21,14.51-9.23.49-.31.98-.6,1.49-.91,7.25-4.5,16.46-10.15,27.28-16.62.05.06.13.14.19.19.01.02.03.03.03.03.16.16.31.32.46.48,1.15,1.16,2.3,2.3,3.44,3.46.33.33.69.7,1.04,1.05h0s0,0,0,0c.04.04.07.07.11.11Z"/>
            <path class="cls-13" d="m162.87,156.4c-.15.31-.3.64-.46.97-.12.28-.25.56-.39.85-2.8,6-6.89,13.39-12.73,20.94-.79,1.02-1.61,2.05-2.47,3.07-1.32-.49-2.73-1.12-4.17-1.91-.69-.39-1.4-.81-2.1-1.27-5.26-3.49-8.41-7.9-10.23-11.36,7.25-4.5,16.46-10.15,27.28-16.62.05.06.13.14.19.19.01.02.03.03.03.03.16.16.31.32.46.48,1.15,1.16,2.3,2.3,3.44,3.46.33.33.69.7,1.04,1.05h0s0,0,0,0c.04.04.07.07.11.11Z"/>
            <path class="cls-13" d="m205.46,179.95s-.17.09-.49.25c-2.32,1.19-12.44,6.33-21.4,10.26-2.9,1.27-5.67,2.41-8.02,3.26-.77-1.11-1.35-2.11-1.78-2.94-.63-1.24-2.92-5.92-2.84-12.33.01-.72.05-1.4.1-2.05.07,0,.14-.02.21-.02,2.52-.29,5.23-.6,8.12-.91.95-.11,1.92-.21,2.91-.32,2.81-.3,5.77-.62,8.87-.95,2.46-.26,5.01-.52,7.65-.78,1.4-.14,2.83-.29,4.28-.43.02,0,.04,0,.07,0,.17.48.32.97.48,1.46.03.07.05.14.07.22.31.92.61,1.83.92,2.76.1.31.21.62.31.94.18.53.36,1.04.52,1.56v.03Z"/>
            <path class="cls-9" d="m203.12,174.96c-1.94.49-4.51.93-7.54.88-.03,0-.06,0-.08,0-1.62-.03-3.08-.19-4.34-.41-.08-8.72-.15-17.44-.23-26.17,1.36-.28,2.88-.54,4.55-.71.3-.03.6-.06.9-.09,2.31-.19,4.41-.19,6.23-.09.17,8.86.34,17.72.51,26.58Z"/>
            <path class="cls-10" d="m198.83,175.2c-.96.24-2.08.47-3.33.64-1.62-.03-3.08-.19-4.34-.41-.08-8.72-.15-17.44-.23-26.17,1.36-.28,2.88-.54,4.55-.71,1.01,0,1.96.02,2.84.06.17,8.86.34,17.72.51,26.58Z"/>
            <path class="cls-6" d="m189.01,152.48s0-.02,0-.02c0,0,0-.01,0-.02v-.02s0,0,0-.01c0,0,0-.01,0-.02,0-.06,0-.11,0-.17,0-.03,0-.06,0-.1,0-.01,0-.02,0-.03,0-.01,0-.02,0-.03,0-.05.01-.1.01-.14,0-.07.01-.14.02-.22,0-.13.02-.27.03-.41,0-.02,0-.05,0-.07.01-.14.03-.3.05-.45.03-.31.07-.64.11-.98,0-.06.02-.12.02-.17.03-.21.06-.41.08-.63-.18-.07-.37-.14-.55-.22.17,0,.37,0,.58,0,.03-.25.07-.5.12-.77,0-.07.02-.15.04-.22.03-.22.07-.44.11-.66.03-.17.06-.34.1-.51,0-.06.02-.11.03-.17.02-.12.05-.23.07-.35.02-.11.05-.23.07-.35.02-.12.05-.24.08-.36l.04-.17.04-.17h0s.02-.09.03-.13c-.21-.02-.42-.04-.65-.06.23-.02.46-.04.68-.06.04-.16.08-.31.12-.47.03-.12.06-.24.09-.36.02-.09.04-.16.07-.24.01-.06.03-.13.05-.19.03-.13.07-.26.11-.39.01-.04.02-.09.04-.13.06-.2.12-.4.18-.6.06-.2.13-.4.19-.6,0-.01,0-.03,0-.04.06-.19.13-.38.2-.56.14-.41.29-.81.45-1.2-.48-.06-.95-.11-1.4-.15-.31-.03-.6-.06-.89-.08-.14.9-.29,1.87-.45,2.93-.07.5-.14.97-.21,1.43-.23,1.53-.42,2.86-.59,4-.31,2.17-.52,3.7-.63,4.76.51.02,1.01.04,1.5.07.01-.14.02-.31.03-.48Zm0,0s0-.02,0-.02c0,0,0-.01,0-.02,0,0,0-.01,0-.02h0s0-.01,0-.01c0,0,0-.01,0-.02,0-.02,0-.05,0-.07,0-.03,0-.06,0-.1,0-.03,0-.06,0-.1,0-.01,0-.02,0-.03,0-.01,0-.02,0-.03,0,0,0-.02,0-.03,0,0,0,0,0-.01v-.02s0-.06.01-.09c0-.07.01-.14.02-.22,0-.13.02-.27.03-.41,0-.02,0-.05,0-.07.01-.14.03-.3.05-.45.03-.31.07-.64.11-.98,0-.06.02-.12.02-.17.03-.21.06-.41.08-.63-.18-.07-.37-.14-.55-.22.17,0,.37,0,.58,0,.03-.25.07-.5.12-.77,0-.07.02-.15.04-.22.03-.22.07-.44.11-.66.03-.17.06-.34.1-.51,0-.06.02-.11.03-.17.02-.12.05-.23.07-.35.02-.11.05-.23.07-.35.02-.12.05-.24.08-.36l.04-.17.04-.17h0s.02-.09.03-.13c-.21-.02-.42-.04-.65-.06.23-.02.46-.04.68-.06.04-.16.08-.31.12-.47.03-.12.06-.24.09-.36.02-.09.04-.16.07-.24.01-.06.03-.13.05-.19.03-.13.07-.26.11-.39.01-.04.02-.09.04-.13.06-.2.12-.4.18-.6.06-.2.13-.4.19-.6,0-.01,0-.03,0-.04.06-.19.13-.38.2-.56.14-.41.29-.81.45-1.2-.48-.06-.95-.11-1.4-.15-.31-.03-.6-.06-.89-.08-.14.9-.29,1.87-.45,2.93-.07.5-.14.97-.21,1.43-.23,1.53-.42,2.86-.59,4-.31,2.17-.52,3.7-.63,4.76.51.02,1.01.04,1.5.07.01-.14.02-.31.03-.48Zm9.26-5.32c-.27-.45-.97-.89-2.25-1.26-2.77-.78-3.95-.85-5.89-1-.21-.02-.42-.04-.65-.06.23-.02.46-.04.68-.06,2.97-.22,5.28.14,6.86.54,4.1,1.01-.78-4.52-2.28-4.82-.44-.09-.86-.17-1.28-.24,1.69-.87,3.32-4.48,1.78-6.24-.58-.66-1.6-1.06-3.23-.96-.26.07-.53.14-.81.22-.25.07-.52.15-.79.23-.25.07-.5.14-.76.22-.83.25-1.73.54-2.69.88-.39.13-.79.27-1.2.43-.09.03-.18.07-.27.1-3.91,1.44-6.99,2.96-8.93,4.01-.66.36-1.18.65-1.57.88-.58.33-1.04.61-1.5.91-1.24.79-2.44,1.66-5.63,3.83-3.87,2.64-7.14,4.8-9.56,6.38,0,.22,0,.43,0,.63h0c.06,2.91.7,4.53,1.5,4.79.11.04.22.06.34.04.93-.14,1.7-.21,2.64-.31h0c1.36-.14,3.06-.34,6.02-.84,2.83-.47,2.68-.06,6.76-.55,2.86-.35,3.49-1.1,4.76-1.56.28-.11.59-.19.96-.26.19-.04.4-.07.62-.09.2-.02.41-.04.62-.05.13-.01.26-.03.4-.03.49-.03.99-.04,1.5-.05,1.02-.02,2.07,0,3.08.05.51.02,1.01.04,1.5.07.69.04,1.36.07,1.98.11,2.54.13,4.46.18,4.77-.4.99-1.81-1.92-2.31-4.81-3.18-.53-.16-1.05-.33-1.56-.52-.18-.07-.37-.14-.55-.22.17,0,.37,0,.58,0,.81.01,1.85.07,3.05.22.55.07,1.13.16,1.73.27,1.34.25,2.77-.08,3.56-.65.1-.07.2-.15.27-.23.37-.36.49-.78.23-1.21Zm-10.42-7.86c.59-.32,1.17-.62,1.74-.92.17-.09.33-.17.5-.26.88-.46,1.76-.92,2.7-1.45-1.35,1.62-1.5,2.65-1.09,3.24h0s.05.07.07.1c-.04,0-.07,0-.11-.01-.48-.06-.95-.11-1.4-.15-.31-.03-.6-.06-.89-.08-.59-.04-1.14-.07-1.67-.09-.18,0-.34,0-.51,0,.22-.13.44-.25.66-.37Zm1.17,13.18s0-.02,0-.02c0,0,0-.01,0-.02,0,0,0-.01,0-.02h0s0-.01,0-.01c0,0,0-.01,0-.02,0-.02,0-.05,0-.07,0-.03,0-.06,0-.1,0-.03,0-.06,0-.1,0-.01,0-.02,0-.03,0-.01,0-.02,0-.03,0,0,0-.02,0-.03,0,0,0,0,0-.01v-.02s0-.06.01-.09c0-.07.01-.14.02-.22,0-.13.02-.27.03-.41,0-.02,0-.05,0-.07.01-.14.03-.3.05-.45.03-.31.07-.64.11-.98,0-.06.02-.12.02-.17.03-.21.06-.41.08-.63-.18-.07-.37-.14-.55-.22.17,0,.37,0,.58,0,.03-.25.07-.5.12-.77,0-.07.02-.15.04-.22.03-.22.07-.44.11-.66.03-.17.06-.34.1-.51,0-.06.02-.11.03-.17.02-.12.05-.23.07-.35.02-.11.05-.23.07-.35.02-.12.05-.24.08-.36l.04-.17.04-.17h0s.02-.09.03-.13c-.21-.02-.42-.04-.65-.06.23-.02.46-.04.68-.06.04-.16.08-.31.12-.47.03-.12.06-.24.09-.36.02-.09.04-.16.07-.24.01-.06.03-.13.05-.19.03-.13.07-.26.11-.39.01-.04.02-.09.04-.13.06-.2.12-.4.18-.6.06-.2.13-.4.19-.6,0-.01,0-.03,0-.04.06-.19.13-.38.2-.56.14-.41.29-.81.45-1.2-.48-.06-.95-.11-1.4-.15-.31-.03-.6-.06-.89-.08-.14.9-.29,1.87-.45,2.93-.07.5-.14.97-.21,1.43-.23,1.53-.42,2.86-.59,4-.31,2.17-.52,3.7-.63,4.76.51.02,1.01.04,1.5.07.01-.14.02-.31.03-.48Zm0,0s0-.02,0-.02c0,0,0-.01,0-.02,0,0,0-.01,0-.02h0s0-.01,0-.01c0,0,0-.01,0-.02,0-.02,0-.05,0-.07,0-.03,0-.06,0-.1,0-.03,0-.06,0-.1,0-.01,0-.02,0-.03,0-.01,0-.02,0-.03,0,0,0-.02,0-.03,0,0,0,0,0-.01v-.02s0-.06.01-.09c0-.07.01-.14.02-.22,0-.13.02-.27.03-.41,0-.02,0-.05,0-.07.01-.14.03-.3.05-.45.03-.31.07-.64.11-.98,0-.06.02-.12.02-.17.03-.21.06-.41.08-.63-.18-.07-.37-.14-.55-.22.17,0,.37,0,.58,0,.03-.25.07-.5.12-.77,0-.07.02-.15.04-.22.03-.22.07-.44.11-.66.03-.17.06-.34.1-.51,0-.06.02-.11.03-.17.02-.12.05-.23.07-.35.02-.11.05-.23.07-.35.02-.12.05-.24.08-.36l.04-.17.04-.17h0s.02-.09.03-.13c-.21-.02-.42-.04-.65-.06.23-.02.46-.04.68-.06.04-.16.08-.31.12-.47.03-.12.06-.24.09-.36.02-.09.04-.16.07-.24.01-.06.03-.13.05-.19.03-.13.07-.26.11-.39.01-.04.02-.09.04-.13.06-.2.12-.4.18-.6.06-.2.13-.4.19-.6,0-.01,0-.03,0-.04.06-.19.13-.38.2-.56.14-.41.29-.81.45-1.2-.48-.06-.95-.11-1.4-.15-.31-.03-.6-.06-.89-.08-.14.9-.29,1.87-.45,2.93-.07.5-.14.97-.21,1.43-.23,1.53-.42,2.86-.59,4-.31,2.17-.52,3.7-.63,4.76.51.02,1.01.04,1.5.07.01-.14.02-.31.03-.48Z"/>
            <path class="cls-6" d="m223.3,145.36s0-.02,0-.02c0,0,0-.01,0-.02v-.02s0,0,0-.01c0,0,0-.01,0-.02,0-.06,0-.11,0-.17,0-.03,0-.06,0-.1,0-.01,0-.02,0-.03,0-.01,0-.02,0-.03,0-.05.01-.1.01-.14,0-.07.01-.14.02-.22,0-.13.02-.27.03-.41,0-.02,0-.05,0-.07.01-.14.03-.3.05-.45.03-.31.07-.64.11-.98,0-.06.02-.12.02-.17.03-.21.06-.41.08-.63-.18-.07-.37-.14-.55-.22.17,0,.37,0,.58,0,.03-.25.07-.5.12-.77,0-.07.02-.15.04-.22.03-.22.07-.44.11-.66.03-.17.06-.34.1-.51,0-.06.02-.11.03-.17.02-.12.05-.23.07-.35.02-.11.05-.23.07-.35.02-.12.05-.24.08-.36l.04-.17.04-.17h0s.02-.09.03-.13c-.21-.02-.42-.04-.65-.06.23-.02.46-.04.68-.06.04-.16.08-.31.12-.47.03-.12.06-.24.09-.36.02-.09.04-.16.07-.24.01-.06.03-.13.05-.19.03-.13.07-.26.11-.39.01-.04.02-.09.04-.13.06-.2.12-.4.18-.6.06-.2.13-.4.19-.6,0-.01,0-.03,0-.04.06-.19.13-.38.2-.56.14-.41.29-.81.45-1.2-.48-.06-.95-.11-1.4-.15-.31-.03-.6-.06-.89-.08-.14.9-.29,1.87-.45,2.93-.07.5-.14.97-.21,1.43-.23,1.53-.42,2.86-.59,4-.31,2.17-.52,3.7-.63,4.76.51.02,1.01.04,1.5.07.01-.14.02-.31.03-.48Zm0,0s0-.02,0-.02c0,0,0-.01,0-.02,0,0,0-.01,0-.02h0s0-.01,0-.01c0,0,0-.01,0-.02,0-.02,0-.05,0-.07,0-.03,0-.06,0-.1,0-.03,0-.06,0-.1,0-.01,0-.02,0-.03,0-.01,0-.02,0-.03,0,0,0-.02,0-.03,0,0,0,0,0-.01v-.02s0-.06.01-.09c0-.07.01-.14.02-.22,0-.13.02-.27.03-.41,0-.02,0-.05,0-.07.01-.14.03-.3.05-.45.03-.31.07-.64.11-.98,0-.06.02-.12.02-.17.03-.21.06-.41.08-.63-.18-.07-.37-.14-.55-.22.17,0,.37,0,.58,0,.03-.25.07-.5.12-.77,0-.07.02-.15.04-.22.03-.22.07-.44.11-.66.03-.17.06-.34.1-.51,0-.06.02-.11.03-.17.02-.12.05-.23.07-.35.02-.11.05-.23.07-.35.02-.12.05-.24.08-.36l.04-.17.04-.17h0s.02-.09.03-.13c-.21-.02-.42-.04-.65-.06.23-.02.46-.04.68-.06.04-.16.08-.31.12-.47.03-.12.06-.24.09-.36.02-.09.04-.16.07-.24.01-.06.03-.13.05-.19.03-.13.07-.26.11-.39.01-.04.02-.09.04-.13.06-.2.12-.4.18-.6.06-.2.13-.4.19-.6,0-.01,0-.03,0-.04.06-.19.13-.38.2-.56.14-.41.29-.81.45-1.2-.48-.06-.95-.11-1.4-.15-.31-.03-.6-.06-.89-.08-.14.9-.29,1.87-.45,2.93-.07.5-.14.97-.21,1.43-.23,1.53-.42,2.86-.59,4-.31,2.17-.52,3.7-.63,4.76.51.02,1.01.04,1.5.07.01-.14.02-.31.03-.48Zm9.26-5.32c-.27-.45-.97-.89-2.25-1.26-2.77-.78-3.95-.85-5.89-1-.21-.02-.42-.04-.65-.06.23-.02.46-.04.68-.06,2.97-.22,5.28.14,6.86.54,4.1,1.01-.78-4.52-2.28-4.82-.44-.09-.86-.17-1.28-.24,1.69-.87,3.32-4.48,1.78-6.24-.58-.66-1.6-1.06-3.23-.96-.26.07-.53.14-.81.22-.25.07-.52.15-.79.23-.25.07-.5.14-.76.22-.83.25-1.73.54-2.69.88-.39.13-.79.27-1.2.43-.09.03-.18.07-.27.1-3.91,1.44-6.99,2.96-8.93,4.01-.66.36-1.18.65-1.57.88-.58.33-1.04.61-1.5.91-1.24.79-2.44,1.66-5.63,3.83-3.87,2.64-7.14,4.8-9.56,6.38,0,.22,0,.43,0,.63h0c.06,2.91.7,4.53,1.5,4.79.11.04.22.06.34.04.93-.14,1.7-.21,2.64-.31h0c1.36-.14,3.06-.34,6.02-.84,2.83-.47,2.68-.06,6.76-.55,2.86-.35,3.49-1.1,4.76-1.56.28-.11.59-.19.96-.26.19-.04.4-.07.62-.09.2-.02.41-.04.62-.05.13-.01.26-.03.4-.03.49-.03.99-.04,1.5-.05,1.02-.02,2.07,0,3.08.05.51.02,1.01.04,1.5.07.69.04,1.36.07,1.98.11,2.54.13,4.46.18,4.77-.4.99-1.81-1.92-2.31-4.81-3.18-.53-.16-1.05-.33-1.56-.52-.18-.07-.37-.14-.55-.22.17,0,.37,0,.58,0,.81.01,1.85.07,3.05.22.55.07,1.13.16,1.73.27,1.34.25,2.77-.08,3.56-.65.1-.07.2-.15.27-.23.37-.36.49-.78.23-1.21Zm-10.42-7.86c.59-.32,1.17-.62,1.74-.92.17-.09.33-.17.5-.26.88-.46,1.76-.92,2.7-1.45-1.35,1.62-1.5,2.65-1.09,3.24h0s.05.07.07.1c-.04,0-.07,0-.11-.01-.48-.06-.95-.11-1.4-.15-.31-.03-.6-.06-.89-.08-.59-.04-1.14-.07-1.67-.09-.18,0-.34,0-.51,0,.22-.13.44-.25.66-.37Zm1.17,13.18s0-.02,0-.02c0,0,0-.01,0-.02,0,0,0-.01,0-.02h0s0-.01,0-.01c0,0,0-.01,0-.02,0-.02,0-.05,0-.07,0-.03,0-.06,0-.1,0-.03,0-.06,0-.1,0-.01,0-.02,0-.03,0-.01,0-.02,0-.03,0,0,0-.02,0-.03,0,0,0,0,0-.01v-.02s0-.06.01-.09c0-.07.01-.14.02-.22,0-.13.02-.27.03-.41,0-.02,0-.05,0-.07.01-.14.03-.3.05-.45.03-.31.07-.64.11-.98,0-.06.02-.12.02-.17.03-.21.06-.41.08-.63-.18-.07-.37-.14-.55-.22.17,0,.37,0,.58,0,.03-.25.07-.5.12-.77,0-.07.02-.15.04-.22.03-.22.07-.44.11-.66.03-.17.06-.34.1-.51,0-.06.02-.11.03-.17.02-.12.05-.23.07-.35.02-.11.05-.23.07-.35.02-.12.05-.24.08-.36l.04-.17.04-.17h0s.02-.09.03-.13c-.21-.02-.42-.04-.65-.06.23-.02.46-.04.68-.06.04-.16.08-.31.12-.47.03-.12.06-.24.09-.36.02-.09.04-.16.07-.24.01-.06.03-.13.05-.19.03-.13.07-.26.11-.39.01-.04.02-.09.04-.13.06-.2.12-.4.18-.6.06-.2.13-.4.19-.6,0-.01,0-.03,0-.04.06-.19.13-.38.2-.56.14-.41.29-.81.45-1.2-.48-.06-.95-.11-1.4-.15-.31-.03-.6-.06-.89-.08-.14.9-.29,1.87-.45,2.93-.07.5-.14.97-.21,1.43-.23,1.53-.42,2.86-.59,4-.31,2.17-.52,3.7-.63,4.76.51.02,1.01.04,1.5.07.01-.14.02-.31.03-.48Zm0,0s0-.02,0-.02c0,0,0-.01,0-.02,0,0,0-.01,0-.02h0s0-.01,0-.01c0,0,0-.01,0-.02,0-.02,0-.05,0-.07,0-.03,0-.06,0-.1,0-.03,0-.06,0-.1,0-.01,0-.02,0-.03,0-.01,0-.02,0-.03,0,0,0-.02,0-.03,0,0,0,0,0-.01v-.02s0-.06.01-.09c0-.07.01-.14.02-.22,0-.13.02-.27.03-.41,0-.02,0-.05,0-.07.01-.14.03-.3.05-.45.03-.31.07-.64.11-.98,0-.06.02-.12.02-.17.03-.21.06-.41.08-.63-.18-.07-.37-.14-.55-.22.17,0,.37,0,.58,0,.03-.25.07-.5.12-.77,0-.07.02-.15.04-.22.03-.22.07-.44.11-.66.03-.17.06-.34.1-.51,0-.06.02-.11.03-.17.02-.12.05-.23.07-.35.02-.11.05-.23.07-.35.02-.12.05-.24.08-.36l.04-.17.04-.17h0s.02-.09.03-.13c-.21-.02-.42-.04-.65-.06.23-.02.46-.04.68-.06.04-.16.08-.31.12-.47.03-.12.06-.24.09-.36.02-.09.04-.16.07-.24.01-.06.03-.13.05-.19.03-.13.07-.26.11-.39.01-.04.02-.09.04-.13.06-.2.12-.4.18-.6.06-.2.13-.4.19-.6,0-.01,0-.03,0-.04.06-.19.13-.38.2-.56.14-.41.29-.81.45-1.2-.48-.06-.95-.11-1.4-.15-.31-.03-.6-.06-.89-.08-.14.9-.29,1.87-.45,2.93-.07.5-.14.97-.21,1.43-.23,1.53-.42,2.86-.59,4-.31,2.17-.52,3.7-.63,4.76.51.02,1.01.04,1.5.07.01-.14.02-.31.03-.48Z"/>
          </g>
          <g>
            <polygon class="cls-11" points="83.12 121.98 77.85 123.77 77.55 115.57 82.82 113.78 83.12 121.98"/>
            <g>
              <path class="cls-3" d="m90.1,116.46l-4.04-109.84c-.09-2.38.86-4.65,2.11-5.07h0c1.25-.43,2.34,1.15,2.43,3.53l4.04,109.84"/>
              <path class="cls-11" d="m88.47,99.73c-.06-1.69,1.44-1.63,3.29-2.26l2.96-1s.24,7.4.45,13.12c.21,5.72.45,15.73-6.34,18.04l-10.19,3.46-.43-11.8,9.37-3.18c1.65-.56,1.35-3.82.81-18.63"/>
              <path class="cls-11" d="m81.54,124.12c.12,3.26-1.18,6.37-2.9,6.96s-3.21-1.58-3.33-4.84c-.12-3.26,1.18-6.37,2.9-6.96s3.21,1.58,3.33,4.84Z"/>
              <path class="cls-4" d="m91.79,17.73c.11,3.03-1.1,5.93-2.7,6.48h0c-1.6.54-2.99-1.47-3.1-4.51l-.48-13.14c-.11-3.03,1.1-5.94,2.7-6.48h0c1.6-.54,2.99,1.47,3.1,4.51l.48,13.14Z"/>
            </g>
            <path class="cls-4" d="m82.6,105.09c1.26-.43,2.36,1.16,2.44,3.55h0c.09,2.39-.86,4.67-2.13,5.1l-5.46,1.86c-1.26.43-2.36-1.16-2.44-3.55h0c-.09-2.39.86-4.67,2.13-5.1l5.46-1.86Z"/>
          </g>
          <g>
            <path class="cls-11" d="m45.85,79.84c.06,1.06-.58,2.02-1.43,2.16l-1.29.7c-.85.14-4.58-.6-4.64-1.66h0c-.06-1.06.58-2.02,1.43-2.16l4.29-.7c.85-.14,1.58.6,1.64,1.66h0Z"/>
            <path class="cls-4" d="m44.26,80.97c-1.39.08-2.33,1.23-2.11,2.56.22,1.33,1.53,2.35,2.92,2.27"/>
            <g>
              <path class="cls-4" d="m76.08,90.87c-4.3-8.82-6.14-7.36-6.14-7.36,0,0-1.98-.79-5.05,9.32-1,3.29-2.06,6.77-6.36,8.01h0l25.62-4.43s-.09.02-.14.02c-4.9.66-6.46-2.54-7.93-5.56Z"/>
              <path class="cls-11" d="m94.96,83.39c-.24-3.71-.37-5.69-.44-6.77-.23-3.53-2.27-10.42-12.91-8.56-10.64,1.86-12.53,2.2-12.53,2.2,0,0-1.89.33-12.53,2.2-10.64,1.86-11.74,9.3-11.51,12.84.07,1.08.2,3.07.44,6.77.53,8.05,7.51,10,12.38,8.95.24-.05.46-.11.67-.18l11.2-20.73,15.01,16.2c4.79-.97,10.71-5.25,10.21-12.91Z"/>
              <path class="cls-11" d="m58.53,100.83c4.3-1.24,5.36-4.71,6.36-8.01,3.07-10.11,5.05-9.32,5.05-9.32,0,0,1.84-1.46,6.14,7.36,1.47,3.02,3.04,6.22,7.93,5.56.05,0,.09-.01.14-.02l.56-.1s.03,0,.04,0l-15.01-16.2-11.2,20.73Z"/>
              <path class="cls-11" d="m84.75,96.3h0s-.03,0-.04,0h.04Z"/>
              <path class="cls-4" d="m84.02,96.42s-18.52,3.41-25.48,4.41"/>
            </g>
            <path class="cls-3" d="m83.87,92.86c-3.18.43-3.95-1.14-5.34-3.99-3.21-6.59-5.94-9.44-8.6-8.97-.07.01-.14.03-.21.05-.07,0-.14.02-.21.03-2.66.47-4.98,4.21-7.28,11.77-1,3.27-1.55,5.08-4.72,5.76-.11.02-.23.05-.34.07-2.34.41-8.48.14-8.87-5.98l-.43-6.77c-.29-4.62,2.88-7.75,8.93-8.81l12.5-2.2,12.57-2.21c6.05-1.07,9.54.89,9.84,5.51l.43,6.77c.15,2.32-.56,4.25-2.16,5.9-1.48,1.53-3.64,2.67-5.77,3.04,0,0-.23.04-.34.05Z"/>
            <path class="cls-3" d="m69.27,73.8l12.57-2.21c6.05-1.07,9.54.89,9.84,5.51l.43,6.77c.15,2.32-.56,4.25-2.16,5.9-1.48,1.53-3.64,2.67-5.77,3.04,0,0-.23.04-.34.05-3.18.43-3.95-1.14-5.34-3.99-3.21-6.59-5.94-9.44-8.6-8.97-.07.01-.14.03-.21.05"/>
          </g>
        </g>
      </g>
    </g>
  </g>
</svg>