<?xml version="1.0" encoding="UTF-8"?>
<svg id="Layer_2" data-name="Layer 2" xmlns="http://www.w3.org/2000/svg" viewBox="0 0 434.64 515.52">
  <defs>
    <style>
      .cls-1 {
        fill: #fff;
      }

      .cls-2 {
        fill: #231f20;
      }
    </style>
  </defs>
  <g id="Layer_1-2" data-name="Layer 1">
    <g>
      <polygon class="cls-2" points="328.45 482.35 323.78 489.97 321.16 487.96 322.51 486.84 328.45 482.35"/>
      <path class="cls-2" d="m156.48,395l-6.41-1.69c-2.55-.67-5.09-1.36-7.62-2.11l-.95-.28-.15-.89c-.2-1.19-.41-2.38-.63-3.57l-.5-2.7,2.51,1.76c2.72,1.9,5.45,3.8,8.19,5.67l5.57,3.81Z"/>
      <path class="cls-2" d="m78.11,334.45l-9.65-5.58c-1.76-1.01-3.52-2.03-5.25-3.09l-.49-.3-.17-.5c-.45-1.32-.92-2.64-1.39-3.96l-1.78-4.96,3.96,4.01c2.57,2.6,5.2,5.19,7.89,7.77l6.89,6.61Z"/>
      <polygon class="cls-2" points="8.79 235.09 5.83 232.02 6.36 231.63 6.4 231.51 5.7 231.89 0 225.88 7.76 230.44 8.07 231.19 8.79 235.09"/>
      <path class="cls-2" d="m338.22,497.37l-10.53-4.66s-1.93-.85-5.47-2.49l-1.46-.67,2.02-3.27,1.24.93c1.55,1.15,3.12,2.31,4.78,3.49l9.42,6.68Z"/>
      <polygon class="cls-2" points="324.26 489.17 323.31 490.72 319.62 489.02 323.02 486.45 324.93 487.87 324.26 489.17"/>
      <path class="cls-2" d="m325.3,488.15l-2.86,2.16-.78-.36c-3.55-1.64-8.57-3.99-14.81-7l-1.24-.6.44-1.06c.71-1.71,1.39-3.43,2.05-5.16l.61-1.61,1.51,1.38c4.02,3.66,8.64,7.45,13.71,11.24l1.37,1.02Zm-16.3-6.74c3.66,1.76,6.87,3.28,9.58,4.54-3.05-2.39-5.92-4.77-8.56-7.11-.33.86-.67,1.71-1.02,2.56Z"/>
      <path class="cls-2" d="m308.1,483.56l-8.19-3.97,2.15-1c2.16-1,4.29-2.04,6.39-3.11l.82-.42,1.51,1.33-.17.85c-.67,1.75-1.35,3.49-2.07,5.22l-.45,1.08Zm-2.4-3.74l.79.38c.13-.32.26-.63.38-.95-.39.19-.79.38-1.18.57Z"/>
      <path class="cls-2" d="m397.97,383.19l-2.45.29s-2.24.26-6.05.84l-2.12.32.39-1.94c.21-1.09.41-2.17.61-3.26l.13-.34.34-.55,1.44-2.38,1.3,1.23c1.42,1.34,2.88,2.69,4.42,4.05l1.99,1.75Zm-7.23-1.61c.61-.09,1.17-.16,1.65-.23-.44-.4-.87-.79-1.29-1.19l-.14.23c-.07.4-.14.79-.21,1.19Z"/>
      <path class="cls-2" d="m390.23,384.2l-5.54.85,1.59-2.45c.75-1.16,1.48-2.33,2.21-3.51l3.82-6.23-1.31,7.34c-.2,1.1-.4,2.2-.62,3.3l-.14.69Z"/>
      <path class="cls-2" d="m311.41,476.98l-1.38.7c-2.13,1.08-4.28,2.14-6.47,3.14l-.57.26-.64-.31c-6.16-3-12.54-6.17-18.97-9.43l-1.06-.54.25-.97c.92-3.63,1.75-7.53,2.61-12.28l.11-.59.6-.19c1.83-.58,3.65-1.17,5.45-1.79l1.15-.39.65,1.13c3.66,6.37,9.36,13.12,16.97,20.07l1.31,1.19Zm-8.77,1.35c1.5-.7,2.98-1.42,4.45-2.15-6.78-6.35-12.02-12.56-15.61-18.5-1.25.42-2.51.83-3.77,1.23-.76,4.12-1.49,7.61-2.29,10.86,5.83,2.95,11.62,5.82,17.22,8.56Z"/>
      <path class="cls-2" d="m284.83,472.08l-1.45-.74c-4.7-2.38-9.67-4.94-14.9-7.67l-3-1.57,3-.67c5.77-1.29,11.62-2.86,17.4-4.67l2.33-.73-.41,2.29c-.87,4.8-1.71,8.74-2.64,12.42l-.34,1.33Zm-12.36-8.94c3.6,1.87,7.08,3.66,10.42,5.36.64-2.64,1.25-5.47,1.85-8.67-4.08,1.23-8.19,2.34-12.28,3.31Z"/>
      <polygon class="cls-2" points="391.19 380 387.02 386.81 389.12 375.05 392.33 378.12 391.19 380"/>
      <path class="cls-2" d="m390.95,380.39l-.1.16c-.73,1.19-1.47,2.38-2.23,3.55l-.25.38-.5.08c-4.82.75-9.75,1.63-14.66,2.62l-1.94.39.13-1.86c.31-4.37.46-8.89.46-13.41v-.39s.25-.28.25-.28c2.01-2.21,3.97-4.47,5.82-6.73l.99-1.2,1.14,1.41c3.1,3.82,6.76,7.77,10.88,11.72l.54.52-.55,3.07Zm-4.43,1.82c.63-.98,1.25-1.97,1.86-2.97l.25-1.42c-3.5-3.39-6.68-6.78-9.46-10.09-1.5,1.79-3.06,3.58-4.65,5.34,0,3.81-.12,7.6-.34,11.31,4.14-.8,8.28-1.53,12.34-2.18Z"/>
      <path class="cls-2" d="m374.01,387.01l-.8.16c-6.21,1.24-12.3,2.64-18.08,4.14l-6.08,1.58,4.56-3.74c6.6-5.41,12.83-11.31,18.51-17.55l2.41-2.64v3.71c0,4.58-.15,9.14-.46,13.56l-.05.77Zm-14.2.49c3.8-.91,7.7-1.77,11.65-2.57.19-2.94.32-5.93.37-8.95-3.8,4-7.82,7.86-12.02,11.52Z"/>
      <path class="cls-2" d="m293.8,456.89l-1.2.41c-1.82.63-3.66,1.23-5.51,1.81l-2.34.74.41-2.29c.61-3.37,1.14-6.93,1.58-10.57l.73-6.02,1.88,6.2c.84,2.79,2.11,5.66,3.77,8.54l.67,1.17Zm-5.6-.86c.65-.21,1.3-.43,1.95-.64-.51-.94-.98-1.88-1.41-2.82-.17,1.17-.35,2.33-.54,3.46Z"/>
      <path class="cls-2" d="m288.01,433.29l.09-9.32,5.94-1.91-1.9,3.09c-.6.91-1.04,1.76-1.48,2.67l-2.64,5.46Z"/>
      <path class="cls-2" d="m287.7,458.92l-.6.19c-5.84,1.83-11.76,3.42-17.6,4.72l-.5.11-.51-.26c-4.82-2.52-9.85-5.18-15.05-7.98l-.9-.49.1-.87c.86-7.25,1.29-14.62,1.3-21.91v-.88s.92-.13.92-.13c11.68-1.69,23.11-4.27,33.97-7.67l1.94-.61-.11,4.69c-2.92,6.03-3.35,12.53-1.29,19.35l.04.47c-.44,3.68-.98,7.28-1.6,10.69l-.11.59Zm-18.71,2.41c5.4-1.22,10.88-2.69,16.29-4.37.55-3.12,1.04-6.4,1.45-9.74-2.12-7.21-1.67-14.1,1.36-20.48v-.06c-10.11,3.06-20.7,5.42-31.5,7.03-.03,6.8-.44,13.65-1.21,20.41,4.69,2.52,9.23,4.92,13.6,7.21Z"/>
      <path class="cls-2" d="m255.1,456.6l-1.66-.89c-11.8-6.35-23.49-12.86-34.73-19.35l-.77-.44.04-1.94,1.09-.14c12.07.09,24.11-.72,35.78-2.41l1.74-.25v1.66c0,7.38-.44,14.83-1.31,22.17l-.19,1.6Zm-31.88-20.32c9.63,5.52,19.57,11.04,29.6,16.46.68-6.18,1.05-12.44,1.11-18.65-10.04,1.38-20.35,2.11-30.7,2.19Z"/>
      <polygon class="cls-2" points="220.62 437.17 218.19 436.06 214.29 433.79 218.56 433.83 218.76 435.05 218.79 433.83 220.61 433.84 220.62 437.17"/>
      <polygon class="cls-2" points="412.7 263.86 410.84 264.93 407.84 266.44 408.77 263.34 409 261.8 412.7 263.86"/>
      <path class="cls-2" d="m380.71,365.88l-.55.67c-1.87,2.28-3.85,4.57-5.89,6.81l-2.41,2.64v-3.71c0-5.2-.22-10.47-.64-15.67l-.39-4.87,2.84,4.5c1.84,2.9,3.99,5.88,6.39,8.85l.64.79Zm-6.22,3.07c.99-1.13,1.96-2.27,2.9-3.41-1.12-1.41-2.19-2.83-3.2-4.24.15,2.55.24,5.1.29,7.65Z"/>
      <path class="cls-2" d="m374.53,373.08l-.26.28c-5.74,6.3-12.04,12.27-18.72,17.74l-.42.21c-1.8.47-3.61.96-5.44,1.48l-1.88.53-.03-1.89c-.14-10.23-1.1-20.65-2.84-30.99l-.11-.62.48-.36c6.9-5.24,13.45-11.02,19.48-17.18l1.51-1.54.8,2.23c1.59,4.43,3.81,8.9,6.58,13.28l.18.28.03.31c.42,5.26.64,10.59.64,15.85v.39Zm-20.74,15.93c6.44-5.29,12.52-11.04,18.07-17.12-.01-4.97-.22-10-.61-14.97-2.34-3.74-4.3-7.55-5.83-11.35-5.54,5.53-11.5,10.74-17.74,15.51,1.59,9.62,2.51,19.3,2.74,28.83,1.13-.31,2.26-.61,3.38-.91Z"/>
      <path class="cls-2" d="m350.46,392.58l-.77.22c-10.64,2.99-20.13,6.38-28.2,10.06l-1.96.89-.11-2.16c-.4-7.85-1.27-15.77-2.58-23.55l-.13-.75.66-.34c9.94-5.08,19.34-10.97,27.94-17.5l1.85-1.41.41,2.41c1.77,10.45,2.73,21,2.88,31.34v.78Zm-28.5,7.17c7.54-3.31,16.21-6.36,25.81-9.09-.17-9.18-.99-18.52-2.44-27.81-8,5.91-16.64,11.28-25.73,15.97,1.14,6.92,1.94,13.95,2.36,20.94Z"/>
      <path class="cls-2" d="m322.12,402.57l-.63.29c-14.38,6.56-24.26,14.06-29.35,22.3l-.2.31-3.85,1.22v-1.98c.02-11.21-.94-22.58-2.84-33.8l-.15-.89.86-.27c10.86-3.39,21.42-7.7,31.41-12.8l1.76-.9.34,2.01c1.33,7.86,2.21,15.88,2.61,23.82l.03.69Zm-31.37,19.63c5.44-7.87,15.06-15.02,28.64-21.29-.38-6.95-1.12-13.96-2.22-20.86-9.31,4.64-19.09,8.59-29.13,11.78,1.67,10.09,2.58,20.28,2.71,30.38Z"/>
      <path class="cls-2" d="m290.76,425.85l-.73.23c-10.98,3.44-22.54,6.05-34.36,7.76l-1.74.25v-1.66c0-11.23-.96-22.6-2.87-33.78l-.18-1.05,1.08-.16c11.54-1.66,22.98-4.25,34-7.69l1.63-.51.29,1.69c1.93,11.35,2.89,22.85,2.88,34.18v.74Zm-34.17,5.31c10.82-1.65,21.4-4.07,31.51-7.19-.02-10.41-.89-20.95-2.56-31.37-10.29,3.12-20.92,5.51-31.66,7.11,1.72,10.42,2.64,20.99,2.72,31.45Z"/>
      <path class="cls-2" d="m256.59,433.71l-.92.13c-11.8,1.71-23.97,2.53-36.19,2.44h-1.54s0-1.42,0-1.42c-.01-11.18-.98-22.54-2.88-33.77l-.21-1.23h1.31c12.04.09,24.09-.73,35.8-2.41l1.48-.21.24,1.43c1.93,11.31,2.91,22.81,2.9,34.17v.88Zm-35.99.12c11.24.01,22.44-.76,33.32-2.29-.04-10.47-.93-21.04-2.63-31.47-10.95,1.5-22.17,2.25-33.4,2.24,1.71,10.48,2.62,21.07,2.71,31.51Z"/>
      <path class="cls-2" d="m220.61,436.29l-2.05-.02-.37-.21c-12.84-7.42-25.43-15-37.41-22.54l-.64-.4-.06-.66c-.47-4.83-1.11-9.63-1.89-14.27l-.24-1.43,1.56.23c12.29,1.83,24.62,2.8,36.66,2.87h1.32s.21,1.23.21,1.23c1.92,11.36,2.91,22.85,2.92,34.16v1.04Zm-37.94-24.32c11.32,7.11,23.17,14.25,35.27,21.26-.09-10.25-.99-20.64-2.67-30.93-11.25-.13-22.74-1.03-34.2-2.67.65,4.03,1.19,8.17,1.61,12.34Z"/>
      <path class="cls-2" d="m182.96,414.89l-2.17-1.36c-10.83-6.81-21.34-13.69-31.23-20.45l-5.57-3.81,6.41,1.69c9.87,2.6,19.67,4.63,29.12,6.04l1.14.17.18,1.05c.79,4.69,1.43,9.55,1.9,14.43l.22,2.25Zm-26.59-20c7.55,5.08,15.42,10.21,23.48,15.3-.4-3.7-.9-7.37-1.48-10.96-7.18-1.1-14.56-2.56-22-4.35Z"/>
      <path class="cls-2" d="m411.27,264.54l-.44.4c-.4.2-4.03,2.04-9.11,5.35l-1.68,1.1-.5-2.06c-1.04-4.3-2.24-8.64-3.55-12.9l-.91-2.95,2.83,1.84c3.9,2.54,8.17,5.04,12.67,7.43l.94.5-.26,1.3Zm-9.63,2.59c2.45-1.55,4.48-2.7,5.84-3.44-2.79-1.53-5.49-3.1-8.06-4.69.79,2.7,1.53,5.42,2.22,8.13Z"/>
      <path class="cls-2" d="m402.32,269.9l-.59.39c-6.74,4.4-12.8,9.26-18.02,14.45l-1.59,1.58-.73-2.33c-.52-1.67-1.06-3.33-1.63-4.99l-.17-.5.25-.41c4.76-7.76,8.97-16.12,12.53-24.85l.54-1.32,1.4.97c1.16.81,2.36,1.62,3.6,2.42l.48.31.15.5c1.33,4.31,2.53,8.7,3.59,13.05l.18.73Zm-19.11,11.47c4.78-4.56,10.21-8.84,16.16-12.78-.96-3.89-2.04-7.82-3.22-11.68-.61-.4-1.21-.8-1.8-1.2-3.42,8.2-7.42,16.07-11.88,23.41.25.75.5,1.49.74,2.24Z"/>
      <path class="cls-2" d="m364.5,317.94l-1.38-4.69c-.8-2.72-1.69-5.52-2.71-8.54l-.21-.62.4-.44c7.32-8.07,13.8-16.67,19.25-25.57l1.46-2.38.99,2.93c.57,1.68,1.11,3.36,1.64,5.04l.2.64-.43.43c-9.21,9.16-15.27,18.87-18.01,28.86l-1.2,4.35Zm11.07-28.39c1.72-2.09,3.6-4.16,5.62-6.2-.15-.48-.31-.95-.46-1.43-1.64,2.57-3.36,5.12-5.16,7.63Zm-12.42,15.41c.43,1.28.83,2.51,1.22,3.72,1.65-4.56,3.97-9.04,6.93-13.42-2.58,3.31-5.3,6.54-8.15,9.7Z"/>
      <path class="cls-2" d="m367.34,343.62l-.44.45c-6.1,6.23-12.73,12.07-19.7,17.37l-1.85,1.41-.41-2.41c-1.92-11.33-4.79-22.7-8.54-33.79l-.25-.74.58-.44c8.68-6.6,16.71-13.94,23.86-21.82l1.54-1.7.81,2.39c1.04,3.06,1.93,5.88,2.75,8.64l.1.32-.08.29c-2.63,9.58-2.16,19.47,1.41,29.38l.24.66Zm-20.19,14.42c6.06-4.73,11.83-9.87,17.2-15.32-3.49-10.06-3.94-20.07-1.33-29.79-.56-1.89-1.17-3.82-1.83-5.85-6.68,7.16-14.07,13.86-22.01,19.94,3.41,10.19,6.08,20.61,7.96,31.01Z"/>
      <path class="cls-2" d="m347.68,361.08l-.48.36c-8.7,6.61-18.21,12.57-28.26,17.7l-1.76.9-.34-2c-1.9-11.23-4.78-22.58-8.57-33.76l-.3-.88.78-.4c9.85-5.02,19.26-10.92,27.98-17.54l1.54-1.17.67,1.98c3.79,11.22,6.7,22.72,8.64,34.18l.11.62Zm-28.56,14.97c9.11-4.77,17.75-10.23,25.71-16.23-1.8-10.45-4.41-20.93-7.77-31.19-8.14,6.05-16.87,11.48-25.97,16.17,3.47,10.35,6.16,20.84,8.02,31.25Z"/>
      <path class="cls-2" d="m319.6,378.81l-.66.34c-10.09,5.16-20.78,9.52-31.77,12.94l-1.63.51-.29-1.69c-1.93-11.38-4.82-22.75-8.57-33.78l-.35-1.04,1.02-.32c10.83-3.37,21.4-7.67,31.41-12.77l1.48-.76.57,1.67c3.84,11.3,6.75,22.78,8.67,34.14l.13.75Zm-32.01,10.43c10.05-3.23,19.83-7.24,29.12-11.95-1.8-10.43-4.45-20.96-7.89-31.34-9.36,4.67-19.19,8.65-29.26,11.84,3.45,10.29,6.14,20.86,8.03,31.44Z"/>
      <path class="cls-2" d="m288.04,391.82l-.86.27c-11.14,3.48-22.71,6.1-34.38,7.78l-1.48.21-.24-1.43c-1.93-11.32-4.82-22.68-8.59-33.8l-.41-1.21,1.27-.18c11.6-1.68,23.05-4.26,34.01-7.68l1.39-.43.48,1.42c3.8,11.17,6.72,22.66,8.67,34.17l.15.89Zm-34.59,5.4c10.74-1.62,21.38-4.04,31.66-7.2-1.84-10.6-4.51-21.17-7.94-31.48-10.26,3.12-20.93,5.52-31.74,7.15,3.46,10.38,6.15,20.97,8.03,31.53Z"/>
      <path class="cls-2" d="m253.87,399.71l-1.08.16c-11.84,1.7-24.02,2.52-36.2,2.45h-1.32s-.21-1.23-.21-1.23c-1.91-11.23-4.79-22.6-8.56-33.78l-.48-1.42h1.54c12.13.07,24.17-.75,35.77-2.43l1.27-.18.41,1.21c3.81,11.24,6.73,22.74,8.69,34.18l.18,1.05Zm-36.39.15c11.23.01,22.45-.75,33.4-2.27-1.86-10.56-4.55-21.15-8-31.53-10.85,1.51-22.06,2.28-33.37,2.29,3.45,10.44,6.13,21.03,7.97,31.52Z"/>
      <path class="cls-2" d="m217.9,402.32h-1.32c-12.17-.08-24.65-1.06-37.07-2.91l-1.14-.17-.18-1.05c-1.89-11.26-4.77-22.62-8.55-33.78l-.57-1.67,1.83.27c12.34,1.85,24.67,2.82,36.65,2.88h1.13s.35,1.04.35,1.04c3.82,11.3,6.73,22.8,8.66,34.16l.21,1.23Zm-37.25-5.16c11.46,1.66,22.95,2.56,34.2,2.69-1.84-10.49-4.53-21.08-8-31.51-11.16-.11-22.62-1-34.11-2.64,3.44,10.4,6.09,20.97,7.91,31.46Z"/>
      <path class="cls-2" d="m181.07,399.64l-1.56-.23c-9.56-1.42-19.47-3.48-29.45-6.11l-.27-.07-.24-.16c-2.75-1.88-5.49-3.78-8.22-5.69l-.52-.36-.1-.56c-1.89-10.12-4.57-20.3-7.96-30.25l-.67-1.98,2.15.63c12.17,3.59,24.51,6.33,36.69,8.15l.97.15.3.88c3.82,11.29,6.73,22.78,8.65,34.17l.24,1.43Zm-30.41-8.62c9.24,2.42,18.41,4.35,27.28,5.73-1.84-10.49-4.53-21.06-8.01-31.46-11.29-1.74-22.71-4.25-34-7.48,3.05,9.25,5.5,18.68,7.28,28.07,2.47,1.73,4.95,3.44,7.44,5.15Z"/>
      <path class="cls-2" d="m143.84,389.14l-2.51-1.76c-14.3-10.01-27.72-20.09-39.91-29.95l-.39-.31-.12-.44c-1.23-4.53-2.64-9.15-4.2-13.74l-.81-2.39,2.49,1.11c11.61,5.18,23.66,9.62,35.83,13.21l.8.24.25.74c3.42,10.07,6.13,20.36,8.04,30.59l.51,2.7Zm-40.46-33.12c11.3,9.13,23.66,18.45,36.8,27.72-1.8-8.97-4.21-17.96-7.18-26.79-11.18-3.33-22.25-7.37-32.96-12.03,1.22,3.72,2.34,7.44,3.34,11.1Z"/>
      <path class="cls-2" d="m104.42,359.85l-2.99-2.42c-11.6-9.39-22.36-18.82-31.98-28.04l-6.9-6.62,8.36,4.84c8.94,5.17,18.19,9.9,27.49,14.05l.64.29.21.62c1.58,4.64,3.01,9.32,4.25,13.9l.92,3.39Zm-26.38-25.61c6.84,6.28,14.18,12.64,21.91,18.99-.93-3.21-1.94-6.45-3.03-9.69-6.35-2.85-12.67-5.97-18.88-9.31Z"/>
      <polygon class="cls-2" points="394.84 140.74 393.31 141.94 391.17 143.89 390.86 139.14 394.84 140.74"/>
      <path class="cls-2" d="m382.22,279.54l-1.46,2.38-.99-2.93c-3.76-11.1-8.5-22.21-14.09-33.03l-.31-.59.31-.5c2.36-3.86,4.33-7.32,6.01-10.57l.87-1.68,1.38,1.74c5.16,6.47,12.02,12.71,20.39,18.54l.93.65-.36.88c-3.6,8.83-7.86,17.29-12.68,25.13Zm-13.86-33.72c5.02,9.8,9.37,19.83,12.92,29.88,4.02-6.81,7.62-14.06,10.74-21.59-7.5-5.31-13.79-10.96-18.75-16.83-1.43,2.67-3.05,5.48-4.91,8.55Z"/>
      <path class="cls-2" d="m382.47,279.13l-.25.41c-5.52,9-12.07,17.7-19.47,25.86l-1.54,1.69-.81-2.38c-3.8-11.21-8.52-22.31-14.03-33l-.37-.71.48-.53c7.21-7.95,13.66-16.56,19.2-25.6l1.19-1.94,1.19,2.3c5.65,10.94,10.44,22.18,14.25,33.41l.17.5Zm-20.35,22.82c6.59-7.45,12.46-15.33,17.48-23.46-3.47-10.15-7.75-20.3-12.75-30.23-5.19,8.23-11.14,16.1-17.73,23.42,5.03,9.83,9.4,20,13,30.27Z"/>
      <path class="cls-2" d="m363.15,304.96l-.4.44c-7.23,7.97-15.35,15.4-24.14,22.07l-1.54,1.17-.67-1.98c-3.76-11.1-8.49-22.19-14.06-32.96l-.44-.85.68-.52c8.62-6.53,16.65-13.89,23.89-21.86l1.28-1.41.99,1.91c5.58,10.81,10.36,22.04,14.19,33.38l.21.62Zm-24.89,19.34c7.94-6.17,15.31-12.95,21.94-20.21-3.53-10.33-7.85-20.57-12.85-30.47-6.78,7.32-14.24,14.09-22.19,20.18,5.12,9.98,9.52,20.23,13.1,30.5Z"/>
      <path class="cls-2" d="m339.19,327.03l-.58.44c-8.81,6.69-18.33,12.66-28.3,17.74l-1.48.76-.57-1.67c-3.79-11.16-8.53-22.26-14.08-32.98l-.52-1,.92-.47c9.83-4.99,19.25-10.89,28-17.52l1.3-.98.83,1.61c5.63,10.89,10.42,22.11,14.22,33.34l.25.74Zm-28.97,15.22c9.1-4.74,17.81-10.23,25.93-16.34-3.53-10.3-7.89-20.59-12.98-30.61-8.2,6.1-16.97,11.57-26.1,16.27,5.12,9.99,9.54,20.3,13.15,30.68Z"/>
      <path class="cls-2" d="m311.1,344.8l-.78.4c-10.12,5.16-20.81,9.5-31.76,12.92l-1.39.43-.48-1.42c-3.81-11.2-8.55-22.3-14.08-33l-.6-1.17,1.19-.37c10.87-3.4,21.44-7.69,31.41-12.75l1.26-.64.71,1.36c5.62,10.84,10.41,22.06,14.25,33.36l.3.88Zm-32.37,10.54c10.07-3.22,19.89-7.22,29.24-11.94-3.58-10.39-7.97-20.72-13.08-30.73-9.34,4.66-19.19,8.65-29.31,11.88,5.11,10,9.53,20.35,13.15,30.78Z"/>
      <path class="cls-2" d="m279.57,357.8l-1.02.32c-11.09,3.45-22.66,6.06-34.4,7.76l-1.27.18-.41-1.21c-3.77-11.1-8.49-22.2-14.05-32.98l-.71-1.37,1.48-.21c11.67-1.71,23.11-4.29,33.98-7.69l1.19-.37.6,1.17c5.6,10.82,10.39,22.05,14.24,33.37l.35,1.04Zm-34.97,5.47c10.81-1.63,21.48-4.04,31.73-7.18-3.61-10.44-8.02-20.79-13.13-30.79-10.18,3.11-20.83,5.53-31.7,7.19,5.12,10.08,9.52,20.42,13.1,30.78Z"/>
      <path class="cls-2" d="m245.42,365.7l-1.27.18c-11.73,1.7-23.9,2.53-36.17,2.47h-1.13s-.35-1.04-.35-1.04c-3.73-11.04-8.46-22.14-14.06-32.99l-.83-1.61h1.81c12.21.08,24.25-.73,35.78-2.42l1.09-.16.52,1c5.62,10.91,10.4,22.13,14.21,33.36l.41,1.21Zm-36.74.2c11.31,0,22.53-.75,33.38-2.26-3.58-10.35-7.99-20.69-13.13-30.77-10.76,1.52-21.95,2.3-33.3,2.31,5.14,10.12,9.52,20.44,13.05,30.72Z"/>
      <path class="cls-2" d="m209.52,368.36h-1.54c-12.11-.07-24.58-1.05-37.06-2.92l-.97-.15-.3-.88c-3.8-11.21-8.54-22.32-14.08-33.02l-.99-1.91,2.18.33c12.31,1.86,24.64,2.83,36.66,2.91h.96s.44.86.44.86c5.67,10.97,10.46,22.2,14.23,33.37l.48,1.42Zm-37.63-5.2c11.49,1.68,22.96,2.59,34.13,2.72-3.55-10.28-7.97-20.61-13.14-30.72-11.15-.11-22.55-.99-33.95-2.61,5.04,9.95,9.4,20.24,12.96,30.61Z"/>
      <path class="cls-2" d="m172.75,365.71l-1.83-.27c-12.32-1.85-24.8-4.62-37.11-8.25l-.8-.24-.25-.74c-3.77-11.09-8.52-22.2-14.13-33.03l-1.19-2.3,2.59.76c12.06,3.56,24.42,6.3,36.74,8.16l.81.12.37.72c5.6,10.82,10.4,22.06,14.24,33.39l.57,1.67Zm-37.72-10.61c11.29,3.29,22.73,5.86,34.04,7.63-3.61-10.39-8.02-20.68-13.13-30.63-11.32-1.74-22.67-4.22-33.78-7.38,5.04,9.98,9.37,20.19,12.87,30.38Z"/>
      <path class="cls-2" d="m135.96,357.83l-2.15-.63c-12.31-3.63-24.5-8.12-36.24-13.36l-.64-.29-.21-.62c-3.81-11.19-8.54-22.28-14.05-32.95l-1.46-2.82,3.06,1.36c11.43,5.09,23.46,9.51,35.76,13.13l.67.2.31.59c5.67,10.95,10.48,22.19,14.29,33.4l.67,1.98Zm-36.92-15.88c10.72,4.75,21.81,8.88,33.03,12.28-3.58-10.22-7.99-20.45-13.14-30.44-11.13-3.31-22.03-7.26-32.47-11.76,4.88,9.73,9.1,19.78,12.59,29.92Z"/>
      <path class="cls-2" d="m100.06,344.94l-2.49-1.11c-9.41-4.2-18.76-8.98-27.8-14.21l-.17-.1-.15-.14c-2.71-2.6-5.36-5.21-7.95-7.83l-.23-.24-.11-.3c-3.52-9.8-7.8-19.59-12.7-29.09l-1.86-3.59,3.65,2.23c11.13,6.81,22.57,12.85,34.02,17.95l.52.23.25.49c5.58,10.79,10.36,22,14.21,33.32l.81,2.39Zm-28.98-17.24c8.08,4.67,16.41,8.97,24.8,12.82-3.6-10.2-7.95-20.3-12.97-30.06-10.18-4.56-20.35-9.85-30.31-15.76,4.17,8.4,7.85,17,10.96,25.61,2.45,2.48,4.96,4.94,7.51,7.4Z"/>
      <path class="cls-2" d="m65.45,325.56l-3.96-4.01c-15.56-15.77-28.17-31.33-37.46-46.24l-3.3-5.29,5.17,3.93c7.75,5.89,15.94,11.48,24.34,16.63l.38.24.2.38c4.96,9.61,9.28,19.51,12.85,29.42l1.78,4.96Zm-35.74-45.9c7.87,11.75,17.76,23.88,29.51,36.18-3.07-7.93-6.61-15.83-10.58-23.53-6.47-3.98-12.81-8.22-18.93-12.65Z"/>
      <path class="cls-2" d="m393.66,141.57l-.37.39c-.26.23-1.67,1.44-3.76,3.49l-1.24,1.21-.96-1.71c-1.38-2.45-2.79-4.89-4.26-7.31l-2-3.29,3.61,1.77c2.75,1.35,5.37,2.57,8.02,3.72l.87.38.09,1.35Zm-4.97.85c.5-.48.95-.89,1.32-1.23-.92-.41-1.83-.83-2.76-1.26.48.83.96,1.66,1.44,2.49Z"/>
      <path class="cls-2" d="m390.09,144.9l-.56.55c-3.4,3.34-8.49,8.79-13.41,15.75l-1.07,1.51-1.19-1.78c-1.49-2.22-3-4.43-4.56-6.62l-.32-.45.09-.48c1.3-7.27,2.18-14.84,2.61-22.5l.1-1.82,1.81,1.08c3.49,2.07,7.22,4.09,11.08,5.98l.43.21.24.39c1.49,2.45,2.91,4.91,4.31,7.39l.44.78Zm-15.2,13.25c4.39-6.01,8.81-10.8,12-13.97-1.16-2.06-2.35-4.11-3.58-6.14-3.13-1.55-6.17-3.17-9.08-4.84-.45,6.96-1.27,13.84-2.44,20.48,1.05,1.48,2.08,2.98,3.1,4.48Z"/>
      <path class="cls-2" d="m363,189l-2.75-3.86.21-.55c3.8-10.07,6.7-20.57,8.6-31.21l.5-2.81,1.89,2.65c1.58,2.21,3.11,4.45,4.61,6.69l.47.7-.42.59c-5.96,8.45-10.14,16.97-12.44,25.34l-.68,2.46Zm7.15-23.81c1.01-1.65,2.1-3.31,3.24-4.96-.73-1.09-1.48-2.18-2.22-3.26-.7,3.54-1.5,7.06-2.41,10.56.45-.78.91-1.56,1.39-2.33Z"/>
      <path class="cls-2" d="m366.86,248.26l-1.19-2.3c-5.57-10.79-12.01-21.33-19.14-31.34l-.48-.67.37-.6c5.52-9.02,10.24-18.7,14.04-28.76l.81-2.14,2.55,3.58-.14.52c-4.73,17.23-1.28,33.32,10.26,47.81l.52.65-.33.63c-1.7,3.29-3.69,6.79-6.08,10.69l-1.19,1.94Zm-17.69-34.06c6.52,9.21,12.46,18.86,17.68,28.73,1.71-2.86,3.2-5.5,4.51-8.01-9.64-12.4-13.68-25.88-12.06-40.18-2.98,6.73-6.37,13.25-10.14,19.46Z"/>
      <path class="cls-2" d="m367.94,246.5c-5.56,9.07-12.05,17.72-19.3,25.71l-1.28,1.41-.99-1.91c-5.52-10.68-11.97-21.22-19.18-31.32l-.57-.8.57-.63c7.19-7.9,13.62-16.46,19.13-25.43l.11-.18.99-1.62,1.28,1.79c7.21,10.12,13.73,20.79,19.36,31.69l.31.59-.31.5-.11.18Zm-20.19,22.55c6.58-7.41,12.5-15.36,17.62-23.68-5.16-9.94-11.06-19.66-17.56-28.95-5.22,8.32-11.23,16.27-17.89,23.66,6.64,9.37,12.63,19.1,17.83,28.97Z"/>
      <path class="cls-2" d="m349.11,271.68l-.48.53c-7.32,8.07-15.45,15.5-24.16,22.11l-1.3.98-.83-1.61c-5.56-10.75-12.03-21.3-19.22-31.36l-.67-.94.81-.61c8.67-6.56,16.73-13.9,23.93-21.82l1.08-1.18,1.08,1.51c7.29,10.21,13.82,20.87,19.4,31.68l.37.71Zm-25.24,19.66c7.94-6.13,15.37-12.97,22.12-20.35-5.16-9.91-11.12-19.69-17.74-29.1-6.78,7.32-14.28,14.13-22.31,20.28,6.65,9.38,12.68,19.18,17.93,29.17Z"/>
      <path class="cls-2" d="m325.16,293.8l-.68.52c-8.85,6.71-18.38,12.67-28.32,17.72l-1.26.64-.71-1.36c-5.57-10.74-12.04-21.3-19.24-31.38l-.79-1.1,1.08-.55c9.92-5.06,19.35-10.94,28.02-17.5l1.1-.83.92,1.28c7.27,10.17,13.81,20.84,19.44,31.72l.44.85Zm-29.31,15.4c9.12-4.72,17.88-10.22,26.06-16.36-5.22-10-11.23-19.83-17.87-29.23-8.15,6.06-16.93,11.54-26.15,16.31,6.66,9.44,12.7,19.27,17.97,29.27Z"/>
      <path class="cls-2" d="m297.07,311.57l-.92.47c-10.08,5.12-20.77,9.46-31.76,12.9l-1.19.37-.6-1.17c-5.53-10.69-11.99-21.25-19.19-31.37l-.91-1.28,1.38-.44c10.89-3.42,21.44-7.72,31.36-12.77l1.08-.55.78,1.1c7.28,10.2,13.83,20.88,19.46,31.74l.52,1Zm-32.71,10.65c10.12-3.23,19.96-7.23,29.3-11.91-5.25-10.01-11.27-19.85-17.94-29.29-9.29,4.66-19.12,8.67-29.25,11.93,6.66,9.47,12.67,19.31,17.89,29.27Z"/>
      <path class="cls-2" d="m265.58,324.56l-1.19.37c-11,3.44-22.56,6.05-34.37,7.78l-1.08.16-.52-1c-5.49-10.64-11.94-21.19-19.19-31.35l-1.08-1.51,1.74-.25c11.66-1.69,23.09-4.29,33.98-7.71l1.02-.32.67.94c7.28,10.23,13.81,20.91,19.41,31.72l.6,1.17Zm-35.3,5.56c10.87-1.64,21.53-4.05,31.71-7.16-5.22-9.96-11.24-19.8-17.92-29.26-10.17,3.13-20.79,5.56-31.62,7.22,6.67,9.49,12.66,19.3,17.82,29.2Z"/>
      <path class="cls-2" d="m231.5,332.49l-1.48.22c-11.67,1.7-23.84,2.53-36.19,2.46h-.96s-.44-.86-.44-.86c-5.52-10.68-11.98-21.22-19.22-31.35l-1.28-1.79h2.15c12.04.1,24.09-.72,35.81-2.42l.92-.13.57.8c7.33,10.28,13.86,20.94,19.41,31.71l.71,1.37Zm-37.13.23c11.36.03,22.56-.72,33.34-2.22-5.19-9.9-11.2-19.71-17.91-29.18-10.87,1.53-22.01,2.32-33.16,2.33,6.62,9.42,12.58,19.19,17.73,29.07Z"/>
      <path class="cls-2" d="m195.64,335.18h-1.81c-12.15-.09-24.63-1.07-37.08-2.95l-.81-.12-.37-.72c-5.54-10.69-12.01-21.24-19.25-31.37l-1.54-2.16,2.62.4c12.31,1.86,24.65,2.84,36.69,2.93h.81s.48.68.48.68c7.32,10.24,13.86,20.91,19.44,31.71l.83,1.61Zm-38.07-5.25c11.42,1.69,22.85,2.61,34.02,2.77-5.21-9.89-11.22-19.65-17.9-29.06-11.07-.11-22.4-.98-33.71-2.58,6.55,9.36,12.46,19.06,17.59,28.87Z"/>
      <path class="cls-2" d="m158.93,332.56l-2.18-.33c-12.46-1.88-24.96-4.65-37.16-8.25l-.67-.2-.31-.59c-5.59-10.78-12.04-21.33-19.19-31.34l-1.89-2.65,3.18.93c12.02,3.53,24.36,6.27,36.68,8.13l.68.1.4.56c7.32,10.24,13.87,20.92,19.47,31.73l.99,1.91Zm-38.25-10.71c11.13,3.25,22.51,5.81,33.88,7.62-5.21-9.83-11.2-19.54-17.85-28.89-11.16-1.71-22.35-4.14-33.29-7.22,6.37,9.16,12.17,18.72,17.26,28.49Z"/>
      <path class="cls-2" d="m122.18,324.74l-2.59-.76c-12.44-3.67-24.61-8.14-36.16-13.28l-.52-.23-.25-.49c-5.53-10.69-11.99-21.25-19.21-31.38l-2.4-3.37,3.89,1.73c11.72,5.21,23.75,9.64,35.78,13.18l.54.16.32.45c7.23,10.13,13.76,20.79,19.41,31.7l1.19,2.3Zm-37.4-15.99c10.46,4.63,21.41,8.7,32.62,12.12-5.22-9.81-11.15-19.41-17.65-28.57-10.68-3.17-21.37-7.03-31.83-11.5,6.27,9.08,11.93,18.46,16.87,27.96Z"/>
      <path class="cls-2" d="m86.49,312.06l-3.06-1.36c-11.58-5.15-23.15-11.26-34.4-18.15l-.38-.24-.2-.38c-5.54-10.74-11.95-21.23-19.03-31.18l-3.23-4.54,4.91,3c10.79,6.59,22.17,12.56,33.83,17.75l.41.18.26.36c7.3,10.25,13.84,20.93,19.43,31.74l1.46,2.82Zm-35.87-21.25c10,6.1,20.25,11.58,30.53,16.31-5.12-9.58-10.98-19.04-17.46-28.16-9.96-4.45-19.72-9.46-29.08-14.94,5.88,8.63,11.26,17.62,16.01,26.8Z"/>
      <path class="cls-2" d="m52.68,294.78l-3.65-2.23c-8.5-5.2-16.78-10.86-24.61-16.81l-.39-.42c-5.8-9.32-10.44-18.58-13.78-27.55l-1.31-3.5,3.27,2.37c6.15,4.45,12.51,8.68,18.89,12.58l.29.18.19.26c7.16,10.07,13.64,20.68,19.25,31.54l1.86,3.59Zm-26.54-20.65c6.53,4.95,13.36,9.68,20.37,14.12-5.03-9.36-10.7-18.5-16.9-27.23-5.21-3.2-10.4-6.61-15.48-10.17,3.11,7.61,7.14,15.43,12.01,23.29Z"/>
      <polygon class="cls-2" points="349.72 19.5 348.78 20.43 347.86 21.92 343.23 15.53 349.72 19.5"/>
      <path class="cls-2" d="m349.25,19.76l-.47.65c-.1.13-2.53,3.28-5.47,8.54l-.83,1.48-1.34-1.48c-1.04-1.15-2.1-2.27-3.17-3.39l-1.29-1.36-.1-.29c-.85-2.53-1.82-5.22-2.97-8.22l-.71-1.85,2.05.43c8.79,1.85,13.05,4.19,13.23,4.29l.32.18.75,1.03Zm-6.43,4.53c1.19-1.95,2.2-3.42,2.86-4.36-1.58-.68-4.5-1.79-8.85-2.82.81,2.18,1.54,4.21,2.19,6.14l.83.88c.63.66,1.25,1.32,1.87,1.98.38-.65.74-1.26,1.09-1.82Z"/>
      <path class="cls-2" d="m340.07,35.15l-1.02-3.43c-.77-2.6-1.59-5.21-2.46-7.81l-1.7-5.03,4.97,5.25c1.08,1.14,2.16,2.28,3.22,3.44l.63.69-.39.69c-.57,1.02-1.16,2.12-1.76,3.29l-1.49,2.91Z"/>
      <path class="cls-2" d="m371.2,156.96l-1.89-2.65c-7.16-10.03-15.19-19.78-23.89-29l-.48-.51.1-.59c.78-4.37,1.41-8.75,1.86-13.03l.28-2.6,2.01,2.22c6.34,6.98,14.55,13.49,24.4,19.34l.79.47-.04.79c-.43,7.75-1.32,15.4-2.64,22.75l-.5,2.81Zm-23.41-32.57c7.84,8.36,15.15,17.15,21.77,26.18,1-6.15,1.7-12.49,2.08-18.9-8.79-5.3-16.29-11.12-22.36-17.35-.4,3.33-.9,6.71-1.49,10.08Z"/>
      <path class="cls-2" d="m362.19,187.86l-1.54-2.16c-7.22-10.13-15.24-19.89-23.83-29l-.57-.61.25-.67c3.75-9.95,6.63-20.45,8.55-31.2l.41-2.29,1.85,1.96c8.79,9.32,16.92,19.19,24.15,29.33l.32.45-.09.48c-1.93,10.76-4.86,21.37-8.7,31.56l-.81,2.14Zm-22.91-31.98c7.86,8.39,15.25,17.32,21.98,26.57,3.36-9.26,5.95-18.86,7.72-28.58-6.56-9.16-13.86-18.09-21.73-26.58-1.89,9.83-4.56,19.44-7.97,28.6Z"/>
      <path class="cls-2" d="m347.81,216.42l-1.28-1.79c-7.15-10.04-15.19-19.8-23.88-29l-.68-.72.44-.72c5.59-9.12,10.33-18.8,14.09-28.76l.67-1.78,1.54,1.63c8.69,9.22,16.8,19.09,24.1,29.33l.4.56-.21.55c-3.84,10.18-8.62,19.97-14.2,29.09l-.99,1.62Zm-22.6-31.5c8.01,8.54,15.47,17.55,22.18,26.81,5-8.39,9.32-17.32,12.86-26.59-6.69-9.33-14.05-18.34-21.91-26.81-3.59,9.19-8,18.13-13.13,26.59Z"/>
      <path class="cls-2" d="m348.69,214.98c-5.56,9.08-12.07,17.73-19.34,25.73l-1.08,1.18-1.08-1.51c-7.21-10.1-15.25-19.86-23.91-29.01l-.81-.85.67-.74c7.21-7.9,13.69-16.52,19.26-25.61l.83-1.36,1.3,1.37c8.79,9.31,16.92,19.18,24.16,29.33l.48.67-.37.6-.11.18Zm-20.43,22.79c6.65-7.45,12.63-15.45,17.79-23.82-6.68-9.31-14.11-18.37-22.12-26.96-5.27,8.42-11.31,16.42-17.97,23.81,8.02,8.55,15.51,17.61,22.3,26.98Z"/>
      <path class="cls-2" d="m329.92,240.08l-.57.63c-7.29,8.01-15.43,15.44-24.21,22.07l-1.1.83-.92-1.28c-7.21-10.08-15.26-19.84-23.92-29.01l-.94-1,.94-.71c8.68-6.58,16.73-13.92,23.94-21.82l.92-1,1.1,1.16c8.75,9.25,16.89,19.12,24.18,29.34l.57.8Zm-25.56,19.87c8.03-6.17,15.51-13.01,22.26-20.36-6.76-9.39-14.23-18.48-22.24-27.05-6.79,7.33-14.3,14.16-22.35,20.35,8.04,8.59,15.54,17.68,22.33,27.06Z"/>
      <path class="cls-2" d="m305.95,262.17l-.81.61c-8.77,6.63-18.3,12.58-28.34,17.69l-1.08.55-.78-1.1c-7.2-10.08-15.22-19.84-23.85-28.99l-1.1-1.16,1.26-.64c9.88-5.05,19.29-10.94,27.95-17.51l.94-.71.94,1c8.76,9.27,16.9,19.14,24.19,29.34l.67.94Zm-29.64,15.56c9.22-4.77,18.01-10.26,26.14-16.34-6.77-9.38-14.27-18.48-22.31-27.07-8.13,6.08-16.89,11.57-26.07,16.35,8,8.59,15.48,17.68,22.24,27.06Z"/>
      <path class="cls-2" d="m277.88,279.93l-1.08.55c-10.02,5.11-20.69,9.45-31.71,12.91l-1.02.32-.67-.94c-7.11-9.99-15.14-19.74-23.87-28.98l-1.3-1.37,1.63-.51c10.93-3.42,21.48-7.72,31.37-12.78l.92-.47.81.86c8.73,9.26,16.84,19.13,24.12,29.32l.79,1.1Zm-32.99,10.8c10.14-3.24,19.97-7.24,29.26-11.9-6.77-9.38-14.25-18.47-22.26-27.04-9.24,4.67-19.04,8.67-29.18,11.94,8.06,8.65,15.51,17.72,22.18,27Z"/>
      <path class="cls-2" d="m246.48,292.95l-1.38.44c-11.02,3.46-22.58,6.08-34.37,7.79l-.92.13-.57-.8c-7.15-10.02-15.19-19.78-23.91-29l-1.54-1.63,2.07-.3c11.62-1.67,23.07-4.26,34.03-7.69l.86-.27.68.72c8.82,9.35,16.94,19.21,24.14,29.32l.91,1.28Zm-35.66,5.67c10.85-1.62,21.49-4.02,31.67-7.14-6.69-9.28-14.18-18.34-22.26-26.97-10.17,3.14-20.76,5.56-31.49,7.21,8,8.59,15.42,17.63,22.09,26.91Z"/>
      <path class="cls-2" d="m212.46,300.93l-1.74.25c-11.85,1.72-24.04,2.55-36.22,2.46h-.81s-.48-.68-.48-.68c-7.25-10.14-15.3-19.91-23.94-29.04l-1.85-1.96,2.59.02c12.2.09,24.25-.72,35.84-2.39l.78-.11.58.61c8.81,9.32,16.95,19.19,24.18,29.33l1.08,1.51Zm-37.57.27c11.17.04,22.35-.69,33.25-2.19-6.72-9.27-14.19-18.3-22.25-26.87-10.67,1.5-21.72,2.28-32.91,2.31,7.86,8.47,15.22,17.46,21.91,26.75Z"/>
      <path class="cls-2" d="m176.65,303.66h-2.15c-12.18-.1-24.66-1.1-37.11-2.98l-.68-.1-.4-.56c-7.24-10.13-15.28-19.89-23.89-29l-2.27-2.41,3.22.48c12.17,1.83,24.5,2.8,36.64,2.88h.67s.48.51.48.51c8.74,9.24,16.88,19.12,24.21,29.37l1.28,1.79Zm-38.58-5.3c11.35,1.68,22.72,2.63,33.85,2.8-6.77-9.31-14.22-18.29-22.16-26.73-11.01-.11-22.17-.93-33.22-2.46,7.71,8.36,14.94,17.22,21.54,26.39Z"/>
      <path class="cls-2" d="m140.01,301.08l-2.62-.4c-12.46-1.88-24.94-4.65-37.1-8.22l-.54-.16-.32-.45c-7.16-10.02-15.19-19.78-23.89-29l-2.89-3.06,4.04,1.18c12.16,3.57,24.5,6.3,36.68,8.13l.55.08.39.41c8.7,9.22,16.83,19.08,24.16,29.33l1.54,2.16Zm-38.76-10.79c10.99,3.21,22.24,5.75,33.49,7.56-6.72-9.2-14.08-18.07-21.93-26.41-10.83-1.65-21.77-4-32.6-7.01,7.6,8.29,14.66,16.97,21.04,25.87Z"/>
      <path class="cls-2" d="m103.47,293.39l-3.18-.93c-12.16-3.58-24.34-8.06-36.18-13.32l-.41-.18-.26-.36c-7.19-10.09-15.17-19.8-23.71-28.88l-3.89-4.13,5.24,2.33c11.51,5.11,23.49,9.5,35.6,13.05l.43.13.31.33c8.79,9.32,16.92,19.19,24.16,29.33l1.89,2.65Zm-38.12-16.25c10.53,4.66,21.33,8.7,32.14,12.02-6.57-8.97-13.84-17.7-21.64-25.99-10.35-3.05-20.6-6.71-30.55-10.9,7.16,7.91,13.89,16.25,20.05,24.87Z"/>
      <path class="cls-2" d="m68,280.86l-3.89-1.73c-11.79-5.24-23.31-11.28-34.22-17.95l-.29-.18-.19-.26c-7.07-9.93-15-19.6-23.59-28.72l-.3-.32-.52-2.83,2.35,1.34c10.88,6.65,22.23,12.6,33.73,17.71l.31.14.23.24c8.64,9.18,16.71,19,23.98,29.2l2.4,3.37Zm-36.61-21.48c9.47,5.77,19.39,11.06,29.56,15.76-6.46-8.77-13.5-17.23-20.99-25.19-9.21-4.1-18.33-8.74-27.18-13.84,6.68,7.49,12.92,15.29,18.61,23.27Z"/>
      <path class="cls-2" d="m34.81,264.19l-4.91-3c-6.46-3.95-12.89-8.23-19.11-12.73l-.39-.28-.16-.42c-2.04-5.47-3.65-11-4.78-16.42l-.84-4.04,3.09,3.29c8.69,9.23,16.71,19.01,23.86,29.05l3.23,4.54Zm-22.21-17.28c4.37,3.15,8.84,6.19,13.35,9.08-5.23-7.01-10.89-13.87-16.89-20.47.96,3.78,2.14,7.6,3.54,11.39Z"/>
      <path class="cls-2" d="m340.82,28.58l-3.91-4.14c-3-3.17-6.09-6.3-9.2-9.3l-2.55-2.46,3.42.48c2.23.31,4.37.68,6.38,1.11l.86.18.3.78c1.15,3.03,2.14,5.75,3,8.32l1.7,5.03Zm-8.75-12.45c.92.91,1.83,1.83,2.74,2.75-.29-.78-.58-1.58-.89-2.41-.61-.12-1.22-.24-1.85-.35Z"/>
      <path class="cls-2" d="m335.21,48.02l-1.6-1.5c-5.38-5.06-10.81-9.81-16.13-14.13l-.45-.36-.08-.51c-1-5.9-2.31-12.01-3.91-18.16l-.35-1.35,1.46.03c5.04.1,9.9.47,14.44,1.11l.52.07.38.37c3.15,3.04,6.28,6.2,9.31,9.41l.23.24.1.29c.89,2.63,1.71,5.26,2.49,7.9l.13.43-.19.37c-2.34,4.59-4.29,9.3-5.79,14.01l-.56,1.77Zm-15.71-16.99c4.72,3.84,9.51,8.02,14.28,12.45,1.4-4.1,3.13-8.19,5.15-12.19-.71-2.36-1.45-4.73-2.24-7.09-2.8-2.96-5.69-5.88-8.59-8.69-3.84-.52-7.91-.84-12.12-.97,1.41,5.58,2.59,11.12,3.52,16.5Z"/>
      <path class="cls-2" d="m332.65,76.86l-2.42-2.15c-3.19-2.83-6.51-5.65-9.87-8.37l-.55-.44v-.61c0-11.19-.97-22.54-2.87-33.75l-.5-2.96,2.6,2.11c5.38,4.36,10.87,9.17,16.31,14.29l.63.6-.22.7c-3.03,9.51-4.16,18.84-3.37,27.74l.25,2.86Zm-10.17-11.8c2.39,1.95,4.76,3.94,7.08,5.96-.37-8.11.78-16.54,3.42-25.08-4.31-4.03-8.64-7.86-12.92-11.42,1.57,10.16,2.38,20.42,2.42,30.54Z"/>
      <path class="cls-2" d="m347.27,127.28l-1.85-1.96c-8.7-9.22-18.09-17.94-27.92-25.92l-.66-.53.13-.71c1.9-10.64,2.86-21.7,2.85-32.87v-2.38s2.12,1.72,2.12,1.72c3.39,2.75,6.75,5.6,9.98,8.47l.44.39.05.52c1.19,13.46,6.84,25.85,16.79,36.8l.42.46-.06.54c-.46,4.33-1.09,8.76-1.88,13.18l-.41,2.29Zm-27.55-29.07c9.01,7.35,17.64,15.32,25.71,23.72.57-3.43,1.04-6.85,1.41-10.21-9.99-11.17-15.73-23.75-17.05-37.4-2.39-2.11-4.84-4.21-7.32-6.26-.12,10.24-1.04,20.37-2.74,30.15Z"/>
      <path class="cls-2" d="m338.36,158.33l-1.54-1.63c-8.61-9.13-18.02-17.85-27.97-25.91l-.78-.63.3-.79c3.8-10.04,6.7-20.54,8.6-31.21l.34-1.9,1.76,1.43c9.94,8.06,19.44,16.88,28.24,26.21l.48.51-.1.59c-1.94,10.87-4.85,21.49-8.65,31.56l-.67,1.78Zm-27.16-28.63c9.18,7.49,17.9,15.54,25.96,23.94,3.36-9.24,5.98-18.92,7.78-28.83-8.05-8.49-16.68-16.55-25.69-23.98-1.87,9.86-4.58,19.55-8.05,28.87Z"/>
      <path class="cls-2" d="m324.78,185.64l-.83,1.36-1.3-1.37c-8.67-9.18-18.09-17.9-28-25.91l-.92-.75.52-.84.11-.18c5.52-9.01,10.24-18.63,14.01-28.59l.57-1.5,1.48,1.2c10.07,8.15,19.58,16.97,28.29,26.21l.57.61-.25.67c-3.8,10.08-8.6,19.87-14.25,29.09Zm-27.64-26.9c9.19,7.49,17.95,15.59,26.09,24.09,5.11-8.52,9.48-17.5,13.01-26.74-8.02-8.46-16.73-16.55-25.92-24.1-3.62,9.3-8.05,18.28-13.18,26.75Z"/>
      <path class="cls-2" d="m325.22,184.92l-.44.72c-5.64,9.2-12.19,17.91-19.48,25.9l-.92,1-1.1-1.16c-8.67-9.16-18.09-17.88-28-25.91l-1.08-.87.78-.86c7.21-7.93,13.7-16.55,19.27-25.61l.71-1.15,1.26,1.02c10.02,8.1,19.54,16.92,28.31,26.2l.68.72Zm-21.17,23.86c6.66-7.41,12.67-15.44,17.91-23.89-8.11-8.53-16.87-16.65-26.05-24.16-5.27,8.42-11.31,16.45-17.99,23.89,9.21,7.54,18,15.66,26.14,24.16Z"/>
      <path class="cls-2" d="m305.97,210.8l-.67.74c-7.29,7.99-15.43,15.42-24.21,22.07l-.94.71-.94-1c-8.65-9.16-18.05-17.88-27.94-25.91l-1.26-1.02,1.1-.84c8.64-6.56,16.67-13.91,23.87-21.83l.78-.86,1.08.87c10.03,8.12,19.55,16.94,28.32,26.2l.81.85Zm-25.83,20.09c8.05-6.19,15.56-13.03,22.33-20.37-8.13-8.52-16.91-16.64-26.12-24.18-6.78,7.35-14.26,14.2-22.26,20.38,9.18,7.54,17.93,15.66,26.05,24.18Z"/>
      <path class="cls-2" d="m282.03,232.89l-.94.71c-8.76,6.64-18.28,12.6-28.27,17.71l-.92.47-.81-.86c-8.62-9.15-18.02-17.86-27.93-25.9l-1.48-1.2,1.48-.75c9.91-5.06,19.31-10.95,27.95-17.51l.81-.61.92.75c9.99,8.11,19.5,16.93,28.25,26.2l.94,1Zm-29.86,15.76c9.19-4.76,17.95-10.25,26.09-16.33-8.12-8.52-16.88-16.63-26.07-24.16-8.08,6.07-16.81,11.56-25.99,16.34,9.18,7.54,17.9,15.65,25.97,24.14Z"/>
      <path class="cls-2" d="m254.08,250.67l-1.26.64c-10,5.11-20.68,9.46-31.73,12.92l-.86.27-.68-.72c-8.6-9.11-18.02-17.83-27.99-25.9l-1.76-1.42,1.94-.61c10.9-3.4,21.47-7.69,31.43-12.78l.78-.4.78.63c10.03,8.13,19.53,16.94,28.25,26.2l1.1,1.16Zm-33.34,10.96c10.16-3.23,19.99-7.22,29.25-11.86-8.09-8.48-16.84-16.58-26.04-24.1-9.26,4.67-19.03,8.67-29.08,11.92,9.18,7.54,17.87,15.62,25.88,24.05Z"/>
      <path class="cls-2" d="m222.72,263.73l-1.63.51c-11.09,3.47-22.67,6.09-34.41,7.78l-.78.11-.58-.61c-8.71-9.21-18.14-17.94-28.03-25.94l-2.12-1.72,2.49-.36c11.73-1.69,23.19-4.26,34.07-7.65l.73-.23.66.54c10.09,8.16,19.61,16.98,28.31,26.19l1.3,1.37Zm-36.1,5.75c10.77-1.59,21.39-3.97,31.61-7.07-8.05-8.42-16.8-16.48-26.02-23.99-10.02,3.08-20.52,5.48-31.26,7.14,9.02,7.44,17.65,15.47,25.68,23.92Z"/>
      <path class="cls-2" d="m188.75,271.72l-2.07.3c-11.72,1.69-23.92,2.5-36.25,2.42h-.67s-.48-.51-.48-.51c-8.81-9.32-18.21-18.03-27.93-25.91l-2.6-2.11,3.18.02c12.01.07,24.04-.74,35.74-2.43l.65-.09.55.44c10,8.09,19.54,16.92,28.35,26.24l1.54,1.63Zm-38.07.27c11.24.05,22.35-.66,33.09-2.1-8.11-8.44-16.82-16.46-25.92-23.86-10.62,1.5-21.49,2.29-32.38,2.36,8.75,7.26,17.22,15.19,25.21,23.6Z"/>
      <path class="cls-2" d="m153.01,274.45l-2.59-.02c-12.28-.09-24.75-1.07-37.06-2.92l-.55-.08-.39-.41c-8.61-9.11-18.02-17.83-27.97-25.91l-3.3-2.68,4.09.61c12.31,1.84,24.65,2.81,36.68,2.89h.55s.44.36.44.36c9.83,7.96,19.33,16.78,28.24,26.2l1.85,1.96Zm-39.09-5.28c11.11,1.64,22.36,2.57,33.47,2.77-8.13-8.44-16.73-16.35-25.6-23.57-10.7-.09-21.63-.88-32.56-2.35,8.74,7.29,17.03,15.06,24.69,23.15Z"/>
      <path class="cls-2" d="m116.59,272l-3.22-.48c-12.32-1.85-24.8-4.62-37.1-8.22l-.43-.13-.31-.33c-8.65-9.18-18-17.86-27.78-25.8l-4.45-3.62,5.44,1.59c11.96,3.5,24.23,6.2,36.49,8.03l.44.07.35.29c10.06,8.17,19.58,16.98,28.29,26.2l2.27,2.41Zm-39.47-10.91c10.93,3.19,22.01,5.7,32.98,7.49-7.86-8.13-16.36-15.91-25.29-23.19-10.48-1.58-20.97-3.79-31.26-6.59,8.25,6.97,16.16,14.44,23.57,22.28Z"/>
      <path class="cls-2" d="m80.31,264.48l-4.04-1.18c-12.25-3.59-24.36-8.03-36-13.2l-.31-.14-.23-.24c-8.58-9.11-17.96-17.81-27.89-25.87l-6.75-5.48,7.95,3.53c11.68,5.19,23.69,9.6,35.71,13.12l.32.09.26.21c9.89,8.04,19.34,16.82,28.09,26.1l2.89,3.06Zm-38.92-16.43c10.1,4.47,20.56,8.38,31.14,11.66-7.72-7.94-15.96-15.49-24.52-22.47-9.57-2.81-19.14-6.19-28.54-10.06,7.72,6.62,15.07,13.61,21.91,20.87Z"/>
      <path class="cls-2" d="m45.51,252.42l-5.24-2.33c-11.63-5.16-23.12-11.19-34.12-17.91l-.58-.35-.12-.6c-.82-3.96-1.39-7.94-1.7-11.84l-.15-1.88,1.93.93c2.49,1.2,5,2.34,7.52,3.46l.2.09.17.14c10.04,8.15,19.53,16.95,28.2,26.17l3.89,4.13Zm-37.57-21.86c8.96,5.44,18.23,10.42,27.64,14.84-7.37-7.49-15.28-14.68-23.56-21.41-1.82-.81-3.64-1.64-5.45-2.49.3,3,.76,6.04,1.37,9.06Z"/>
      <path class="cls-2" d="m320.08,34.5l-2.6-2.11c-7.27-5.89-15.26-11.7-23.74-17.28l-2.83-1.86,3.13-.32c7.04-.72,13.81-1.02,20.11-.89l1.2.02.29,1.11c1.61,6.21,2.94,12.39,3.95,18.36l.5,2.96Zm-22.2-19.42c6.53,4.39,12.75,8.91,18.55,13.49-.85-4.62-1.89-9.34-3.1-14.09-4.9-.05-10.08.15-15.45.6Z"/>
      <path class="cls-2" d="m322.48,68.06l-2.12-1.72c-9.96-8.08-20.49-15.54-31.32-22.19l-.73-.45v-.74c0-9.18-.69-18.61-2.03-28.03l-.15-1.03,1.07-.15c2.34-.32,4.62-.59,6.82-.82l.53-.05.48.31c8.58,5.64,16.66,11.51,24.01,17.47l.45.36.08.51c1.92,11.34,2.9,22.82,2.91,34.13v2.38Zm-31.5-25.44c9.93,6.14,19.61,12.95,28.82,20.28-.13-10.24-1.06-20.61-2.77-30.87-7.01-5.65-14.68-11.24-22.82-16.6-1.67.17-3.38.38-5.13.61,1.23,8.93,1.87,17.86,1.91,26.57Z"/>
      <path class="cls-2" d="m319.26,100.83l-1.76-1.43c-9.86-8-20.41-15.46-31.37-22.18l-.86-.53.15-.85c1.93-10.75,2.91-21.81,2.9-32.88v-1.98s1.94,1.19,1.94,1.19c10.95,6.73,21.61,14.28,31.67,22.44l.55.45v.61c0,11.3-.96,22.48-2.88,33.25l-.34,1.9Zm-31.06-25.05c10.12,6.25,19.89,13.13,29.09,20.47,1.65-9.86,2.49-20.06,2.52-30.36-9.2-7.43-18.89-14.33-28.84-20.55-.1,10.25-1.03,20.47-2.77,30.43Z"/>
      <path class="cls-2" d="m310.33,131.99l-1.48-1.2c-9.92-8.04-20.48-15.5-31.39-22.17l-1.02-.62.35-.93c3.8-10,6.7-20.51,8.62-31.21l.29-1.6,1.63,1c11.08,6.79,21.75,14.34,31.73,22.43l.66.53-.13.71c-1.93,10.79-4.85,21.41-8.7,31.57l-.57,1.5Zm-30.65-24.73c10.13,6.25,19.95,13.17,29.24,20.6,3.44-9.36,6.11-19.1,7.91-29-9.18-7.4-18.95-14.34-29.08-20.64-1.88,9.94-4.59,19.7-8.08,29.04Z"/>
      <path class="cls-2" d="m296.74,159.4l-.11.18-.71,1.15-1.26-1.02c-9.92-8.02-20.48-15.48-31.4-22.17l-1.19-.73.61-.99c5.57-9.09,10.32-18.77,14.12-28.77l.48-1.27,1.39.85c11.03,6.75,21.71,14.29,31.75,22.42l.78.63-.3.79c-3.82,10.07-8.58,19.8-14.17,28.92Zm-31.08-23.1c10.16,6.29,20,13.24,29.3,20.67,5.12-8.49,9.53-17.5,13.11-26.82-9.27-7.46-19.09-14.41-29.22-20.69-3.62,9.3-8.05,18.32-13.19,26.83Z"/>
      <path class="cls-2" d="m297.14,158.74l-.52.84c-5.64,9.17-12.19,17.88-19.49,25.9l-.78.86-1.08-.87c-9.9-8.02-20.44-15.48-31.33-22.18l-1.39-.85.91-1.01c7.18-7.92,13.64-16.53,19.2-25.61l.61-.99,1.19.73c11.04,6.77,21.72,14.31,31.75,22.42l.92.75Zm-21.38,24.14c6.68-7.44,12.72-15.48,17.97-23.91-9.29-7.45-19.13-14.4-29.29-20.7-5.25,8.43-11.27,16.46-17.91,23.9,10.13,6.3,19.95,13.26,29.23,20.7Z"/>
      <path class="cls-2" d="m277.92,184.62l-.78.86c-7.29,8.01-15.41,15.44-24.14,22.07l-.81.61-.92-.75c-9.87-8.02-20.41-15.48-31.32-22.17l-1.63-1,1.29-.98c8.67-6.58,16.7-13.92,23.86-21.83l.67-.74,1.02.62c11.01,6.77,21.67,14.31,31.68,22.43l1.08.87Zm-26.01,20.33c8.02-6.17,15.51-13,22.28-20.35-9.28-7.44-19.1-14.39-29.24-20.68-6.72,7.33-14.18,14.16-22.18,20.35,10.12,6.3,19.91,13.25,29.14,20.68Z"/>
      <path class="cls-2" d="m254.1,206.72l-1.1.83c-8.73,6.64-18.24,12.6-28.27,17.71l-.78.4-.78-.63c-9.94-8.06-20.49-15.52-31.36-22.18l-1.94-1.19,1.76-.9c9.87-5.03,19.29-10.91,27.98-17.51l.69-.52.86.53c11.04,6.77,21.7,14.32,31.68,22.43l1.26,1.02Zm-30.15,15.95c9.21-4.75,17.96-10.22,26.06-16.28-9.24-7.42-19.05-14.35-29.2-20.62-8.08,6.07-16.77,11.54-25.87,16.29,10.03,6.25,19.77,13.17,29.01,20.61Z"/>
      <path class="cls-2" d="m226.21,224.51l-1.48.75c-10.07,5.14-20.77,9.49-31.79,12.93l-.73.23-.66-.53c-9.97-8.07-20.55-15.54-31.43-22.2l-2.34-1.43,2.34-.73c11.03-3.44,21.63-7.73,31.51-12.76l.66-.34.73.45c10.99,6.73,21.66,14.28,31.71,22.43l1.48,1.2Zm-33.76,11.11c10.1-3.19,19.92-7.15,29.22-11.8-9.28-7.42-19.07-14.32-29.14-20.53-9.11,4.59-18.82,8.57-28.9,11.83,9.95,6.22,19.64,13.1,28.82,20.49Z"/>
      <path class="cls-2" d="m194.88,237.59l-1.94.61c-11,3.43-22.59,6.03-34.45,7.74l-.65.09-.55-.44c-10.08-8.15-20.62-15.62-31.32-22.18l-2.87-1.76,3.06-.44c11.57-1.68,23-4.26,33.96-7.67l.6-.19.61.37c11.01,6.74,21.7,14.29,31.79,22.45l1.76,1.43Zm-36.57,5.83c10.81-1.59,21.38-3.92,31.46-6.96-9.26-7.37-19.02-14.23-29.04-20.4-9.95,3.07-20.27,5.45-30.73,7.12,9.67,6.08,19.18,12.88,28.32,20.24Z"/>
      <path class="cls-2" d="m160.98,245.57l-2.49.36c-11.84,1.7-24,2.53-36.14,2.45h-.55s-.44-.36-.44-.36c-9.73-7.89-20.31-15.35-31.43-22.17l-3.65-2.24,4.04.02c12.18.07,24.24-.75,35.84-2.43l.53-.08.49.3c10.83,6.64,21.49,14.18,31.68,22.43l2.12,1.72Zm-38.51.36c10.97.04,21.94-.65,32.67-2.08-9.27-7.36-18.91-14.13-28.68-20.15-10.32,1.47-20.99,2.27-31.79,2.37,9.78,6.19,19.12,12.85,27.8,19.86Z"/>
      <path class="cls-2" d="m125.52,248.4l-3.18-.02c-12.17-.08-24.65-1.06-37.1-2.92l-.44-.07-.35-.28c-9.91-8.04-20.4-15.48-31.17-22.1l-4.9-3.02,5.51.82c12.07,1.79,24.33,2.74,36.42,2.81h.43s.38.24.38.24c11.25,6.9,21.94,14.45,31.78,22.42l2.6,2.11Zm-39.84-5.3c11.07,1.64,22.15,2.57,33.01,2.78-8.87-7.01-18.4-13.66-28.38-19.81-10.34-.08-20.79-.79-31.14-2.11,9.13,5.86,18.03,12.28,26.51,19.14Z"/>
      <path class="cls-2" d="m89.33,246.07l-4.09-.61c-12.39-1.85-24.81-4.58-36.9-8.12l-.32-.09-.26-.21c-9.82-7.98-20.35-15.43-31.28-22.15l-7.44-4.57,8.25,2.42c12.13,3.56,24.44,6.27,36.6,8.08l.32.05.29.18c10.89,6.7,21.49,14.22,31.52,22.35l3.31,2.68Zm-40.26-10.97c10.49,3.05,21.22,5.5,31.97,7.28-8.8-6.93-18.02-13.37-27.46-19.19-9.69-1.45-19.47-3.48-29.18-6.03,8.56,5.58,16.83,11.59,24.67,17.95Z"/>
      <path class="cls-2" d="m53.78,238.94l-5.44-1.59c-12.15-3.55-24.31-8.02-36.11-13.26l-.2-.09-.17-.14c-2.74-2.22-5.26-4.2-7.69-6.05l-.56-.42-.03-.62c-.11-2.25-.13-4.6-.06-6.99l.04-1.45,1.56.54c4.02,1.38,8.12,2.68,12.18,3.87l.4.18c11.05,6.79,21.69,14.33,31.63,22.4l4.45,3.62Zm-40.53-16.95c9.75,4.33,19.74,8.11,29.77,11.28-8.38-6.52-17.22-12.65-26.35-18.26-3.51-1.03-7.04-2.15-10.53-3.32-.02,1.62,0,3.21.06,4.75,2.24,1.71,4.56,3.53,7.05,5.55Z"/>
      <path class="cls-2" d="m20.17,227.61l-7.95-3.53c-2.54-1.13-5.08-2.29-7.61-3.5l-.81-.39-.06-.79,1.33.11-1.33-.18c-.07-.86-.13-1.71-.18-2.57l-.12-2.41,2.19,1.66c2.47,1.87,5.02,3.87,7.79,6.12l6.75,5.48Z"/>
      <path class="cls-2" d="m290.99,45.34l-1.94-1.19c-10.86-6.67-22.3-12.69-33.99-17.9l-.92-.41v-.88c0-1.17,0-2.34-.02-3.5v-.79s.77-.21.77-.21c11.25-3.05,22.13-5.31,32.33-6.7l1.51-.21.21,1.46c1.35,9.53,2.05,19.07,2.05,28.35v1.98Zm-34.19-20.86c10.81,4.86,21.4,10.4,31.51,16.5-.09-8.07-.7-16.33-1.81-24.59-9.41,1.35-19.39,3.44-29.7,6.21,0,.62,0,1.25,0,1.87Z"/>
      <path class="cls-2" d="m287.77,78.22l-1.63-1c-10.93-6.7-22.37-12.72-34.01-17.89l-1.09-.48.18-1c1.93-10.68,2.91-21.74,2.92-32.89v-1.67s1.74.78,1.74.78c11.83,5.27,23.39,11.36,34.38,18.1l.73.45v.74c0,11.2-.98,22.39-2.93,33.26l-.29,1.6Zm-33.74-20.59c10.82,4.86,21.46,10.44,31.68,16.61,1.71-10.01,2.58-20.27,2.62-30.54-10.1-6.16-20.7-11.77-31.53-16.67-.09,10.37-1.02,20.65-2.77,30.61Z"/>
      <path class="cls-2" d="m278.85,109.46l-1.39-.85c-10.92-6.68-22.36-12.7-34.02-17.89l-1.27-.56.41-1.09c3.79-10.03,6.7-20.53,8.63-31.22l.25-1.36,1.48.66c11.77,5.23,23.35,11.32,34.4,18.09l.86.53-.15.85c-1.94,10.83-4.88,21.46-8.72,31.57l-.48,1.27Zm-33.32-20.35c10.86,4.89,21.52,10.5,31.75,16.68,3.47-9.36,6.15-19.13,7.99-29.1-10.2-6.21-20.85-11.82-31.67-16.7-1.88,9.95-4.59,19.74-8.07,29.12Z"/>
      <path class="cls-2" d="m265.05,137.28l-.61.99-1.19-.73c-10.9-6.68-22.32-12.71-33.96-17.9l-1.48-.66.7-1.15c5.55-9.08,10.28-18.76,14.06-28.76l.41-1.09,1.27.56c11.79,5.25,23.36,11.33,34.4,18.09l1.02.62-.35.93c-3.84,10.11-8.65,19.9-14.28,29.09Zm-33.45-19.16c10.83,4.91,21.48,10.53,31.68,16.71,5.14-8.52,9.56-17.54,13.16-26.85-10.21-6.19-20.88-11.8-31.73-16.7-3.59,9.3-8,18.32-13.11,26.84Z"/>
      <path class="cls-2" d="m265.66,136.3l-.61.99c-5.63,9.18-12.16,17.89-19.42,25.9l-.67.74-1.02-.62c-10.87-6.68-22.29-12.7-33.95-17.9l-1.74-.78,1.08-1.18c7.2-7.93,13.55-16.58,19.2-25.6l.52-.85,1.09.49c11.76,5.25,23.31,11.35,34.34,18.1l1.19.73Zm-21.52,24.4c6.65-7.42,12.68-15.45,17.93-23.88-10.2-6.19-20.85-11.8-31.69-16.69-5.21,8.41-11.2,16.43-17.83,23.87,10.83,4.91,21.44,10.52,31.59,16.7Z"/>
      <path class="cls-2" d="m246.55,162.17l-.91,1.01c-7.25,8-15.37,15.42-24.14,22.08l-.69.52-.86-.53c-10.95-6.72-22.39-12.74-33.98-17.9l-2.07-.92,1.54-1.17c8.63-6.53,16.67-13.87,23.89-21.83l.57-.63.92.41c11.79,5.26,23.34,11.35,34.34,18.11l1.39.85Zm-26.25,20.57c8.04-6.16,15.52-12.98,22.26-20.3-10.17-6.17-20.8-11.76-31.64-16.64-6.73,7.34-14.15,14.15-22.07,20.29,10.72,4.87,21.28,10.46,31.45,16.65Z"/>
      <path class="cls-2" d="m222.79,184.27l-1.29.98c-8.79,6.67-18.31,12.63-28.3,17.71l-.66.34-.73-.45c-10.88-6.66-22.34-12.69-34.07-17.9l-2.49-1.11,2.12-1.08c10-5.08,19.44-10.97,28.07-17.51l.58-.44.78.35c11.73,5.21,23.29,11.31,34.37,18.1l1.63,1Zm-30.5,16.16c9.14-4.7,17.88-10.14,26.01-16.19-10.21-6.17-20.81-11.73-31.56-16.55-7.97,5.98-16.61,11.42-25.72,16.19,10.75,4.89,21.25,10.45,31.27,16.55Z"/>
      <path class="cls-2" d="m194.96,202.07l-1.76.9c-9.99,5.09-20.71,9.43-31.87,12.9l-.6.19-.61-.37c-11.1-6.79-22.52-12.82-33.95-17.91l-3.06-1.36,2.87-.9c10.85-3.39,21.41-7.68,31.38-12.75l.55-.28.64.29c11.87,5.27,23.46,11.36,34.46,18.1l1.94,1.19Zm-34.23,11.27c10.15-3.2,19.93-7.12,29.12-11.67-10.09-6.07-20.66-11.59-31.47-16.42-9.06,4.57-18.59,8.5-28.38,11.72,10.34,4.75,20.66,10.25,30.73,16.38Z"/>
      <path class="cls-2" d="m163.67,215.14l-2.34.73c-11.08,3.45-22.64,6.06-34.34,7.76l-.53.08-.49-.3c-10.72-6.57-22.18-12.59-34.05-17.88l-3.89-1.74,3.89-.57c11.73-1.71,23.19-4.3,34.06-7.69l.49-.15.53.23c11.56,5.15,23.11,11.24,34.33,18.11l2.34,1.43Zm-36.98,5.98c10.56-1.56,21-3.87,31.07-6.87-10.18-6.11-20.62-11.56-31.06-16.24-9.67,3-19.8,5.36-30.17,7.04,10.47,4.84,20.6,10.24,30.16,16.07Z"/>
      <path class="cls-2" d="m130.05,223.18l-3.06.44c-11.74,1.7-23.93,2.53-36.25,2.46h-.43s-.38-.24-.38-.24c-10.83-6.65-22.22-12.65-33.87-17.85l-5.25-2.35,5.46.03c11.98.07,23.98-.76,35.67-2.46l.41-.06.41.18c12,5.35,23.59,11.44,34.44,18.09l2.87,1.76Zm-39.3.45c10.95.04,21.8-.63,32.3-2-9.75-5.81-20.06-11.16-30.71-15.93-10,1.44-20.21,2.24-30.45,2.41,9.9,4.64,19.59,9.85,28.87,15.53Z"/>
      <path class="cls-2" d="m94.78,226.11l-4.04-.02c-12.23-.07-24.62-1.03-36.83-2.84l-.32-.05-.29-.18c-10.82-6.66-22.23-12.67-33.9-17.88l-7.94-3.55,8.35,1.25c12.23,1.82,24.49,2.78,36.45,2.85h.32s.31.14.31.14c11.78,5.26,23.31,11.33,34.26,18.05l3.65,2.24Zm-40.56-5.24c10.59,1.56,21.31,2.47,31.93,2.71-9.59-5.69-19.6-10.87-29.8-15.44-9.52-.06-19.23-.68-28.96-1.85,9.2,4.41,18.19,9.3,26.82,14.59Z"/>
      <path class="cls-2" d="m59.41,224.06l-5.51-.82c-12.3-1.83-24.76-4.58-37.02-8.17l-.4-.18c-4-2.45-8.04-4.81-12.02-7l-.85-.47.06-.83c.13-1.8.29-3.61.53-5.4l.15-1.11,1.25.26c4.57.94,9.35,1.78,14.2,2.5l.41.12c11.8,5.27,23.34,11.36,34.29,18.09l4.9,3.02Zm-41.9-11.26c10.13,2.96,20.39,5.34,30.58,7.09-9.19-5.39-18.74-10.31-28.49-14.66-4.39-.66-8.72-1.41-12.89-2.24-.13,1.11-.23,2.22-.32,3.33,3.69,2.05,7.42,4.23,11.12,6.49Z"/>
      <path class="cls-2" d="m25.14,217.49l-8.25-2.42c-4.11-1.2-8.25-2.52-12.32-3.92l-1.09-.37.03-1c.03-1.06.09-2.12.16-3.18l.12-1.72,1.75.96c4.03,2.21,8.12,4.6,12.16,7.08l7.44,4.57Zm-18.93-8.25c.55.19,1.1.37,1.65.55-.54-.31-1.09-.62-1.63-.92,0,.12-.01.25-.02.37Z"/>
      <path class="cls-2" d="m256.81,27.03l-1.75-.78c-1.63-.73-3.27-1.44-4.91-2.13l-3.28-1.39,3.08-.89c1.67-.48,3.31-.94,4.94-1.38l1.86-.5.03,1.87c.02,1.18.02,2.36.02,3.54v1.67Z"/>
      <path class="cls-2" d="m253.6,59.99l-1.48-.66c-11.65-5.17-23.7-9.6-35.81-13.16l-1.32-.39.21-1.16c.64-3.53,1.18-7.19,1.61-10.85l.07-.59.57-.22c11.08-4.35,22.01-8.09,32.48-11.11l.47-.13.5.21c1.66.71,3.32,1.42,4.97,2.16l.92.41v.88c0,11.28-1,22.47-2.95,33.27l-.25,1.36Zm-35.55-15.76c11.29,3.38,22.51,7.5,33.41,12.27,1.72-9.98,2.63-20.28,2.68-30.66-1.16-.51-2.32-1.02-3.49-1.51-10.08,2.93-20.58,6.52-31.24,10.68-.38,3.11-.84,6.2-1.36,9.22Z"/>
      <path class="cls-2" d="m244.71,91.29l-1.27-.56c-11.65-5.19-23.67-9.62-35.75-13.19l-1.54-.45.48-1.27c3.77-10.01,6.66-20.5,8.57-31.19l.21-1.16,1.32.39c12.24,3.6,24.43,8.08,36.21,13.31l1.09.48-.18,1c-1.95,10.81-4.89,21.43-8.73,31.57l-.41,1.09Zm-35.06-15.62c11.26,3.39,22.46,7.53,33.35,12.32,3.48-9.39,6.18-19.18,8.04-29.13-10.89-4.78-22.11-8.91-33.4-12.29-1.85,9.96-4.54,19.74-7.98,29.11Z"/>
      <path class="cls-2" d="m230.39,120.13l-1.09-.49c-11.61-5.19-23.64-9.62-35.74-13.19l-1.81-.53.83-1.36c5.56-9.08,10.29-18.76,14.05-28.75l.35-.93,1.13.33c12.21,3.6,24.37,8.09,36.15,13.34l1.27.56-.41,1.09c-3.83,10.11-8.61,19.89-14.22,29.08l-.52.85Zm-34.61-15.46c11.26,3.4,22.43,7.54,33.26,12.32,5.12-8.5,9.54-17.52,13.13-26.82-10.89-4.79-22.1-8.92-33.35-12.29-3.56,9.28-7.94,18.28-13.04,26.79Z"/>
      <path class="cls-2" d="m230.77,119.5c-5.57,9.09-12.06,17.73-19.28,25.68l-.57.63-.92-.41c-11.69-5.21-23.72-9.65-35.77-13.18l-2.15-.63,1.28-1.41c7.15-7.85,13.61-16.45,19.18-25.54l.04-.07.44-.72.96.28c12.24,3.6,24.41,8.09,36.15,13.34l1.48.66-.7,1.15-.13.22Zm-20.88,23.31c6.67-7.41,12.69-15.42,17.92-23.82-10.85-4.77-22.04-8.89-33.3-12.25-5.21,8.42-11.17,16.41-17.74,23.78,11.15,3.37,22.28,7.5,33.12,12.29Z"/>
      <path class="cls-2" d="m212.57,143.99l-1.08,1.18c-7.31,8.05-15.44,15.47-24.17,22.08l-.58.44-.78-.35c-11.6-5.16-23.67-9.59-35.86-13.17l-2.59-.76,1.86-1.4c8.73-6.6,16.8-13.94,23.99-21.84l.48-.53.81.24c12.18,3.58,24.35,8.06,36.17,13.33l1.74.78Zm-26.55,20.83c7.98-6.09,15.45-12.88,22.23-20.2-10.87-4.76-22.03-8.85-33.21-12.17-6.65,7.23-14.02,14.01-21.95,20.16,11.19,3.39,22.25,7.5,32.93,12.21Z"/>
      <path class="cls-2" d="m188.86,166.09l-1.54,1.17c-8.73,6.61-18.29,12.57-28.39,17.71l-.55.28-.64-.29c-11.71-5.2-23.75-9.64-35.78-13.18l-3.18-.93,2.6-1.33c9.86-5.02,19.27-10.91,27.99-17.5l.48-.36.67.19c12.33,3.62,24.53,8.1,36.27,13.32l2.07.92Zm-30.95,16.4c9.2-4.71,17.92-10.11,25.97-16.06-10.75-4.68-21.87-8.73-33.1-12.05-7.92,5.95-16.41,11.33-25.28,16.02,10.9,3.35,21.79,7.41,32.41,12.1Z"/>
      <path class="cls-2" d="m161.05,183.89l-2.12,1.08c-10.08,5.13-20.76,9.46-31.74,12.9l-.49.15-.53-.23c-11.45-5.1-23.51-9.53-35.83-13.16l-4.04-1.19,3.65-1.14c10.99-3.44,21.56-7.74,31.44-12.77l.45-.23.55.16c12.17,3.58,24.34,8.06,36.18,13.32l2.49,1.11Zm-34.58,11.48c9.9-3.12,19.56-6.99,28.74-11.52-10.73-4.65-21.72-8.65-32.71-11.91-8.79,4.45-18.12,8.33-27.8,11.54,10.91,3.38,21.57,7.36,31.77,11.88Z"/>
      <path class="cls-2" d="m130.06,196.96l-2.87.9c-11,3.44-22.58,6.05-34.45,7.78l-.41.06-.41-.18c-11.55-5.15-23.55-9.57-35.65-13.15l-5.46-1.61,5.25-.76c11.54-1.68,22.94-4.28,33.88-7.7l.39-.12.43.13c12.46,3.67,24.66,8.15,36.24,13.31l3.06,1.36Zm-37.73,6.19c10.54-1.55,20.86-3.82,30.72-6.74-10.38-4.47-21.22-8.39-32.29-11.66-9.36,2.91-19.05,5.22-28.88,6.88,10.33,3.26,20.54,7.13,30.44,11.52Z"/>
      <path class="cls-2" d="m96.64,205.07l-3.89.57c-11.82,1.72-23.95,2.56-36.07,2.49h-.32s-.3-.14-.3-.14c-11.66-5.21-23.66-9.64-35.66-13.18l-8.28-2.44,8.28.05c12.11.07,24.11-.75,35.67-2.44l.31-.05.32.09c12.24,3.61,24.37,8.09,36.06,13.3l3.89,1.73Zm-40.07.61c10.5.04,21.03-.6,31.33-1.92-10.21-4.36-20.72-8.16-31.32-11.3-9.21,1.33-18.69,2.12-28.28,2.35,9.52,3.1,19,6.74,28.27,10.87Z"/>
      <path class="cls-2" d="m62.13,208.16l-5.46-.03c-12.09-.06-24.5-1.03-36.87-2.88l-.41-.12c-4.62-2.06-9.23-3.98-13.7-5.71l-1.17-.45.19-1.05c.3-1.72.65-3.44,1.06-5.15l.2-.84.97.06c4.39.26,8.92.41,13.44.43l.42.06c12.14,3.58,24.27,8.06,36.07,13.32l5.25,2.34Zm-42.11-5.29c10.2,1.51,20.42,2.42,30.47,2.71-9.83-4.15-19.86-7.74-29.89-10.7-4.17-.03-8.34-.16-12.41-.38-.24,1.05-.45,2.09-.65,3.14,4.08,1.6,8.27,3.35,12.48,5.23Z"/>
      <path class="cls-2" d="m28.16,206.5l-8.36-1.25c-4.91-.73-9.74-1.58-14.36-2.53l-1.41-.29.17-1.25c.15-1.09.33-2.17.52-3.26l.22-1.29,1.43.55c4.51,1.74,9.18,3.68,13.85,5.77l7.95,3.55Zm-21.14-5.88c1.07.21,2.16.42,3.25.62-1.05-.43-2.1-.85-3.15-1.26-.03.21-.07.42-.1.64Z"/>
      <path class="cls-2" d="m217.64,46.55l-1.32-.39c-4.76-1.4-9.8-2.73-14.98-3.95l-3.82-.9,3.22-1.41c5.8-2.54,11.43-4.88,16.73-6.96l2.29-.9-.28,2.36c-.44,3.71-.99,7.4-1.63,10.98l-.21,1.16Zm-12.24-5.79c3.43.85,6.79,1.75,10.03,2.69.42-2.4.79-4.85,1.11-7.31-3.59,1.43-7.32,2.98-11.14,4.63Z"/>
      <path class="cls-2" d="m208.82,77.87l-1.13-.33c-12.06-3.56-24.39-6.3-36.65-8.15l-1.83-.28.56-1.5c1.86-4.92,3.52-10,4.92-15.09l.12-.42.4-.2c8.58-4.3,17.16-8.34,25.52-12l.39-.17.46.11c5.23,1.23,10.33,2.58,15.15,3.99l1.32.39-.21,1.16c-1.94,10.81-4.86,21.42-8.67,31.55l-.35.93Zm-35.95-10.62c11.41,1.8,22.88,4.36,34.11,7.63,3.47-9.36,6.16-19.14,8.01-29.1-4.23-1.22-8.66-2.38-13.2-3.45-8.07,3.54-16.35,7.44-24.62,11.58-1.25,4.49-2.69,8.97-4.3,13.35Z"/>
      <path class="cls-2" d="m194.52,106.74l-.96-.28c-12.14-3.57-24.47-6.31-36.67-8.14l-2.18-.33.99-1.61.04-.07c5.53-9.02,10.25-18.67,14.04-28.69l.3-.79.97.15c12.39,1.87,24.87,4.64,37.07,8.24l1.54.45-.48,1.27c-3.81,10.11-8.59,19.89-14.22,29.08l-.44.72Zm-35.47-10.51c11.31,1.79,22.73,4.35,33.97,7.62,5.14-8.49,9.55-17.48,13.13-26.76-11.25-3.25-22.72-5.79-34.14-7.55-3.56,9.29-7.92,18.25-12.97,26.69Z"/>
      <path class="cls-2" d="m194.91,106.09c-5.64,9.2-12.16,17.89-19.4,25.83l-.48.53-.81-.24c-12.06-3.54-24.43-6.27-36.76-8.11l-2.62-.39,1.54-1.69c7.27-7.97,13.77-16.6,19.31-25.64l.37-.6.82.12c12.34,1.85,24.82,4.62,37.09,8.23l1.81.53-.83,1.36-.04.07Zm-21.08,23.56c6.63-7.34,12.64-15.31,17.9-23.72-11.28-3.24-22.72-5.75-34.04-7.49-5.14,8.29-11.06,16.23-17.64,23.64,11.34,1.8,22.68,4.35,33.78,7.57Z"/>
      <path class="cls-2" d="m176.8,130.52l-1.28,1.41c-7.28,7.99-15.44,15.42-24.26,22.09l-.48.36-.67-.19c-12.16-3.57-24.5-6.3-36.68-8.13l-3.22-.48,2.28-1.72c8.61-6.53,16.66-13.87,23.91-21.83l.4-.44.68.1c12.47,1.86,24.98,4.62,37.18,8.2l2.15.63Zm-26.95,21.14c8.02-6.11,15.48-12.85,22.21-20.07-11.15-3.17-22.55-5.65-33.92-7.38-6.6,7.19-13.84,13.88-21.55,19.92,11.06,1.8,22.23,4.33,33.26,7.53Z"/>
      <path class="cls-2" d="m153.11,152.61l-1.86,1.4c-8.81,6.67-18.34,12.62-28.31,17.7l-.45.23-.55-.16c-12.04-3.54-24.38-6.27-36.68-8.13l-4.09-.62,3.31-1.69c9.96-5.09,19.38-10.98,27.99-17.5l.39-.3.55.08c12.32,1.85,24.8,4.62,37.09,8.22l2.59.76Zm-31.28,16.68c8.99-4.61,17.61-9.94,25.66-15.87-11.13-3.15-22.39-5.6-33.51-7.29-7.67,5.78-15.97,11.06-24.71,15.73,10.93,1.81,21.86,4.31,32.56,7.43Z"/>
      <path class="cls-2" d="m125.55,170.39l-2.6,1.33c-9.99,5.09-20.68,9.44-31.79,12.91l-.39.12-.43-.13c-12.01-3.54-24.31-6.27-36.56-8.12l-5.52-.83,4.92-1.54c10.84-3.4,21.37-7.7,31.32-12.78l.35-.18.44.07c12.44,1.88,24.92,4.64,37.1,8.22l3.18.93Zm-35.22,11.78c9.87-3.11,19.4-6.91,28.39-11.32-10.87-3.05-21.96-5.45-33.01-7.13-8.52,4.33-17.46,8.09-26.64,11.22,10.49,1.8,20.99,4.22,31.27,7.24Z"/>
      <path class="cls-2" d="m94.8,183.49l-3.65,1.14c-11.06,3.47-22.59,6.09-34.27,7.79l-.31.05-.32-.09c-12.12-3.58-24.43-6.32-36.57-8.15l-8.38-1.26,7.98-1.16c11.65-1.7,23.06-4.28,33.89-7.68l.29-.09.32.05c12.39,1.87,24.83,4.64,36.97,8.21l4.04,1.19Zm-38.43,6.46c10.12-1.49,20.13-3.68,29.81-6.52-10.57-2.94-21.34-5.25-32.08-6.88-8.63,2.69-17.62,4.87-26.8,6.51,9.69,1.75,19.44,4.06,29.07,6.89Z"/>
      <path class="cls-2" d="m62.14,191.65l-5.25.76c-11.69,1.71-23.83,2.54-36.08,2.46l-.42-.06c-4.46-1.31-8.6-2.43-12.66-3.42l-1.52-.37.37-1.29c.54-1.94,1.18-3.92,1.96-6.05l.22-.6.7-.07c3.23-.33,6.54-.74,9.84-1.22h.41c12.29,1.85,24.73,4.63,36.99,8.24l5.46,1.61Zm-41.54.78c10.11.05,20.14-.52,29.9-1.7-10.17-2.77-20.44-4.94-30.59-6.48-3.03.44-6.07.82-9.05,1.13-.5,1.4-.93,2.73-1.33,4.03,3.56.89,7.2,1.89,11.07,3.02Z"/>
      <path class="cls-2" d="m29.09,194.93l-8.28-.05c-4.58-.03-9.15-.17-13.6-.44l-1.81-.11.38-1.56c.24-1.02.51-2.03.8-3.04l.27-.98,1.16.28c4.11,1,8.3,2.13,12.8,3.46l8.28,2.44Zm-20.31-2.83c.71.04,1.43.07,2.15.1-.68-.18-1.36-.35-2.04-.52l-.11.41Z"/>
      <path class="cls-2" d="m172.02,69.54l-.97-.15c-6.53-.98-13.06-1.72-19.43-2.2l-4.47-.33,3.54-1.97c8.39-4.67,16.65-9.03,24.53-12.99l2.91-1.46-.84,3.03c-1.42,5.15-3.09,10.28-4.98,15.26l-.3.79Zm-16.19-4.42c4.71.43,9.48,1.01,14.26,1.71,1.37-3.68,2.63-7.44,3.75-11.23-5.85,2.97-11.88,6.17-18,9.52Z"/>
      <path class="cls-2" d="m158.12,97.76l-.04.07-.37.6-.82-.12c-12.21-1.83-24.6-2.79-36.8-2.86h-2.59s1.19-1.95,1.19-1.95c3.1-5.1,5.7-9.76,8.02-14.51l.12-.26.26-.15c7.92-4.78,15.86-9.39,23.6-13.69l.31-.17.4.03c6.44.48,13.05,1.23,19.65,2.22l1.83.28-.56,1.5c-3.83,10.13-8.61,19.9-14.2,29.02Zm-35.88-4.73c11.24.17,22.6,1.1,33.84,2.74,5.11-8.41,9.53-17.37,13.14-26.66-5.78-.83-11.55-1.47-17.19-1.9-7.53,4.19-15.25,8.67-22.97,13.32-2.01,4.11-4.25,8.22-6.81,12.49Z"/>
      <path class="cls-2" d="m159.06,96.22l-.99,1.61c-5.61,9.14-12.18,17.87-19.53,25.93l-.4.44-.68-.1c-12.31-1.84-24.65-2.81-36.68-2.89l-3.18-.02,1.89-2.08c7.07-7.77,13.53-16.39,19.19-25.61l.31-.5h.67c12.34.07,24.87,1.04,37.22,2.89l2.18.33Zm-22.28,25.36c6.67-7.37,12.69-15.3,17.91-23.58-11.28-1.59-22.68-2.44-33.94-2.53-5.16,8.33-10.95,16.17-17.26,23.34,10.95.21,22.13,1.14,33.29,2.78Z"/>
      <path class="cls-2" d="m140.09,122.07l-1.54,1.69c-7.34,8.04-15.47,15.47-24.18,22.07l-.39.3-.55-.08c-12.2-1.83-24.57-2.8-36.75-2.89l-4.04-.03,2.89-2.2c8.83-6.7,16.89-14.04,23.97-21.82l.32-.36h.55c12.17.08,24.65,1.06,37.1,2.92l2.62.39Zm-27.22,21.47c7.85-5.98,15.22-12.64,21.95-19.83-11.24-1.57-22.49-2.41-33.49-2.5-6.32,6.91-13.41,13.47-21.12,19.55,10.85.24,21.82,1.18,32.66,2.78Z"/>
      <path class="cls-2" d="m116.64,144.11l-2.28,1.72c-8.71,6.6-18.23,12.56-28.31,17.7l-.35.18-.43-.07c-12.3-1.86-24.63-2.84-36.64-2.93l-5.46-.04,4.47-2.28c9.91-5.07,19.29-10.94,27.88-17.46l.31-.23h.43c12.32.09,24.82,1.07,37.16,2.92l3.22.48Zm-31.8,17.06c8.94-4.59,17.44-9.82,25.31-15.59-11-1.51-22.1-2.32-33.05-2.41-7.37,5.57-15.31,10.67-23.66,15.2,10.34.29,20.88,1.23,31.4,2.8Z"/>
      <path class="cls-2" d="m89.37,161.85l-3.31,1.69c-10.05,5.14-20.71,9.48-31.67,12.92l-.29.09-.32-.05c-12.32-1.86-24.66-2.84-36.69-2.92l-8.31-.05,7.5-2.34c10.85-3.39,21.4-7.69,31.37-12.79l.26-.13h.32c12.15.09,24.62,1.09,37.06,2.97l4.09.62Zm-35.9,12.18c9.5-3,18.77-6.68,27.61-10.98-10.79-1.46-21.58-2.24-32.12-2.33-7.92,4.04-16.22,7.58-24.73,10.57,9.65.36,19.46,1.27,29.25,2.74Z"/>
      <path class="cls-2" d="m59.31,174.92l-4.92,1.54c-10.96,3.44-22.49,6.05-34.28,7.76h-.41c-2.98-.45-5.96-.83-8.95-1.18l-1.94-.22.62-1.57c1.14-2.88,2.53-5.87,4.11-8.87l.19-.37.43-.13c.37-.11.74-.24,1.11-.36l1.4-.39c12.17.08,24.65,1.07,37.11,2.95l5.52.84Zm-39.83,6.85c9.73-1.42,19.28-3.47,28.47-6.08-10.3-1.33-20.58-2.03-30.65-2.1l-.77.25c-.25.08-.5.17-.75.25-1.19,2.28-2.26,4.55-3.19,6.76,2.3.28,4.59.59,6.89.93Z"/>
      <path class="cls-2" d="m28.08,183.06l-7.97,1.16c-3.34.49-6.69.9-9.95,1.23l-2.36.24.86-2.38c.25-.69.5-1.38.77-2.06l.3-.74.91.11c3.02.35,6.04.74,9.05,1.19l8.38,1.26Z"/>
      <path class="cls-2" d="m121.22,94.7l-.16.26-.31.5h-.67c-5.32-.03-10.64.11-15.82.42l-5.14.3,3.96-2.57c7.89-5.12,15.97-10.18,24.01-15.04l4.13-2.49-2.05,4.2c-2.3,4.73-4.91,9.45-7.95,14.42Zm-12.49-1.51c3.39-.13,6.83-.19,10.26-.18,2.03-3.32,3.86-6.54,5.54-9.72-5.29,3.24-10.57,6.55-15.8,9.9Z"/>
      <path class="cls-2" d="m122.26,93.02l-1.19,1.94c-5.73,9.33-12.26,18.04-19.41,25.9l-.32.36h-.55c-12.05-.08-24.11.74-35.84,2.43l-3.9.56,3.24-3.55c.47-.51.94-1.01,1.39-1.53,12.81-9.15,25.33-17.69,37.41-25.51l.25-.16.33-.02c5.24-.31,10.62-.45,16-.43h2.59Zm-22.44,25.74c6.44-7.12,12.37-14.95,17.65-23.3-4.34.02-8.66.16-12.88.4-11.82,7.67-24.08,16.02-36.45,24.82,10.41-1.32,21.05-1.97,31.68-1.92Z"/>
      <path class="cls-2" d="m103.55,118.78l-1.89,2.08c-7.16,7.87-15.32,15.3-24.24,22.07l-.31.23h-.43c-12.13-.09-24.14.71-35.69,2.38l-5.26.76,3.9-2.97c8.66-6.58,16.67-13.9,23.81-21.77l.25-.28.41-.06c11.86-1.71,24.06-2.54,36.25-2.47l3.18.02Zm-27.71,21.93c7.91-6.03,15.2-12.58,21.72-19.49-10.83.08-21.65.87-32.2,2.38-6.13,6.72-12.89,13.05-20.14,18.85,9.98-1.21,20.26-1.8,30.62-1.74Z"/>
      <path class="cls-2" d="m80.3,140.74l-2.89,2.2c-8.69,6.59-18.18,12.54-28.2,17.66l-.26.13h-.32c-8.6-.06-17.3.34-25.85,1.2l-3.18.32,1.68-2.33c2-2.77,4.16-5.51,6.41-8.13l.22-.19c3.71-2.39,7.54-5.09,11.72-8.26l.23-.17.31-.05c11.68-1.68,23.83-2.49,36.09-2.41l4.04.03Zm-32.4,17.53c8.68-4.45,16.94-9.52,24.62-15.1-10.61.1-21.09.89-31.23,2.33-4.09,3.1-7.85,5.75-11.5,8.1-1.55,1.82-3.06,3.68-4.5,5.58,7.5-.65,15.09-.96,22.61-.92Z"/>
      <path class="cls-2" d="m53.68,158.31l-4.47,2.28c-10.07,5.15-20.75,9.5-31.72,12.93l-.4.06-.81-.02c-.3,0-.61-.02-.92-.01h-2.46s1.02-1.91,1.02-1.91c2.11-3.95,4.59-7.9,7.35-11.73l.27-.38.52-.05c8.64-.87,17.44-1.28,26.14-1.21l5.45.04Zm-36.08,12.46c8.68-2.78,17.16-6.14,25.29-10.02-6.54.11-13.1.48-19.58,1.12-2.08,2.92-4,5.9-5.71,8.9Z"/>
      <path class="cls-2" d="m24.99,171.19l-8.46,2.65c-.39.13-.78.26-1.18.38l-3.29.99,2.16-4.11h.7c.33,0,.66,0,1,.01l9.07.07Z"/>
      <path class="cls-2" d="m67.86,120.85c-.47.53-.95,1.05-1.43,1.58l-1.07,1.17-7.47,1.1,7.97-5.72,2.01,1.87Z"/>
      <path class="cls-2" d="m68.01,120.66l-2.41,2.65c-7.23,7.95-15.33,15.36-24.09,22.01l-.23.17-.3.04c-1.59.23-3.17.48-4.75.74l-4.3.71,2.82-2.82c6.39-6.41,13.82-12.71,22.1-18.73l5.8-4,5.36-.77Zm-28.15,22.5c5.35-4.08,10.45-8.43,15.24-13.03-5.59,4.25-10.75,8.62-15.4,13.05.05,0,.11-.02.16-.02Z"/>
      <path class="cls-2" d="m45.43,142.35l-3.91,2.97c-4.22,3.21-8.1,5.94-11.86,8.36l-8.03,5.16,6.06-7.05c2.21-2.58,4.59-5.14,7.06-7.62l.24-.24.37-.06c1.6-.26,3.2-.51,4.8-.75l5.26-.76Z"/>
      <g>
        <ellipse class="cls-2" cx="358.16" cy="17.17" rx="16.21" ry="19.48" transform="translate(156.33 313.54) rotate(-58.49)"/>
        <ellipse class="cls-1" cx="349.99" cy="12.16" rx="6.33" ry="7.61" transform="translate(156.7 304.18) rotate(-58.49)"/>
      </g>
      <g>
        <ellipse class="cls-2" cx="401.08" cy="143.89" rx="16.21" ry="19.48" transform="translate(68.78 410.62) rotate(-58.49)"/>
        <ellipse class="cls-1" cx="392.91" cy="138.88" rx="6.33" ry="7.61" transform="translate(69.15 401.27) rotate(-58.49)"/>
      </g>
      <g>
        <ellipse class="cls-2" cx="415.99" cy="261.38" rx="16.21" ry="19.48" transform="translate(-24.26 479.42) rotate(-58.49)"/>
        <ellipse class="cls-1" cx="407.82" cy="256.37" rx="6.33" ry="7.61" transform="translate(-23.89 470.06) rotate(-58.49)"/>
      </g>
      <g>
        <ellipse class="cls-2" cx="405.97" cy="390.51" rx="16.21" ry="19.48" transform="translate(-139.13 532.52) rotate(-58.49)"/>
        <ellipse class="cls-1" cx="397.8" cy="385.5" rx="6.33" ry="7.61" transform="translate(-138.76 523.16) rotate(-58.49)"/>
      </g>
      <g>
        <ellipse class="cls-2" cx="337.55" cy="498.35" rx="16.21" ry="19.48" transform="translate(-263.74 525.66) rotate(-58.49)"/>
        <ellipse class="cls-1" cx="329.38" cy="493.34" rx="6.33" ry="7.61" transform="translate(-263.37 516.3) rotate(-58.49)"/>
      </g>
    </g>
  </g>
</svg>