<?xml version="1.0" encoding="UTF-8"?>
<svg id="Layer_2" data-name="Layer 2" xmlns="http://www.w3.org/2000/svg" viewBox="0 0 771 530.23">
  <defs>
    <style>
      .cls-1, .cls-2 {
        fill: none;
      }

      .cls-3 {
        font-size: 109.79px;
      }

      .cls-3, .cls-4, .cls-5 {
        font-family: ComicSansMS, 'Comic Sans MS';
        isolation: isolate;
      }

      .cls-6 {
        fill: #fff92e;
      }

      .cls-7 {
        fill: #fffa00;
      }

      .cls-8 {
        fill: #ffa477;
      }

      .cls-9 {
        fill: #fba479;
      }

      .cls-10 {
        fill: #dd775f;
      }

      .cls-11 {
        fill: #e0d72d;
      }

      .cls-12 {
        fill: #434fcc;
      }

      .cls-13 {
        fill: #1c1e1f;
      }

      .cls-14 {
        fill: #454551;
      }

      .cls-15 {
        fill: #35251a;
      }

      .cls-16 {
        fill: #777077;
      }

      .cls-4 {
        font-size: 102.45px;
      }

      .cls-4, .cls-5 {
        fill: red;
      }

      .cls-2 {
        stroke: #1c1e1f;
        stroke-linecap: round;
        stroke-linejoin: round;
        stroke-width: 1.92px;
      }

      .cls-2, .cls-17, .cls-18, .cls-19 {
        fill-rule: evenodd;
      }

      .cls-17 {
        fill: #e0d9d9;
      }

      .cls-18 {
        fill: #908fb2;
      }

      .cls-19 {
        fill: #022f4d;
      }

      .cls-5 {
        font-size: 39.07px;
      }
    </style>
  </defs>
  <g id="Layer_2-2" data-name="Layer 2">
    <g id="Layer_1-2" data-name="Layer 1-2">
      <g id="OBJECTS">
        <g>
          <text class="cls-3" transform="translate(445.41 456.54) rotate(-39.52) scale(1.85 -1)"><tspan x="0" y="0">X</tspan></text>
          <rect class="cls-12" width="771" height="514"/>
          <text class="cls-4" transform="translate(74.71 132.94) scale(1.13 1)"><tspan x="0" y="0">Game over</tspan></text>
          <path class="cls-1" d="m570,422.3c0-2.3.7-3.5.9-5.4.2-2,0-4.3,0-6.4"/>
          <path class="cls-1" d="m577.3,417.8l-.2.7c-2.4.7-4.2-.7-6.3-1.2-2.3-.5-4.8-1.9-7.3-2.3"/>
          <path class="cls-1" d="m547.2,436l.2-.7c1.7-.6,4.4-.2,6.3-.2h9"/>
          <text class="cls-5" transform="translate(435.6 195.3)"><tspan x="0" y="0">try again?</tspan></text>
          <g>
            <path class="cls-8" d="m253.38,461.05c.07-.93-.33-1.59-.46-1.79,5.04,1.92,5.7,3.51,5.57,3.91"/>
            <path class="cls-15" d="m267.89,479.93c7.09-9.14,11,.66,12.52-15.17-8.88-4.11-8.28-6.89-6.03-15.3-1.06-7.88-5.76-7.55,4.57-11.2.33,6.89,6.03,2.98,10.67,3.71,8.81,1.46,9.54,13.45,7.35,19.41-.53,1.33-.13,2.19-.07,3.05.07,1.72-1.13,4.37-7.22,8.75,2.25,4.17-2.85,9.87-7.16,9.61,4.17-1.06,6.16-6.36,2.85-8.22-2.32,9.14-9.01,3.78-9.21,9.28-2.25-4.77,5.43-2.92,4.11-7.22-2.65,3.78-7.02.8-10.2,5.23.4-1.86,6.36-5.3,7.88-4.77-4.51-.46-7.49,1.66-10.07,2.85h0Z"/>
            <path d="m198.32,444.03c5.04-16.63,31.8-17.09,46.44-21.47-.8,5.37-1.52,11.66-1.99,16.7-.6,3.45.4,9.01-4.04,9.67-1.66.07-2.65-.13-4.64-.53-6.16-.93-15.17-4.17-20.54-3.18-8.22.66-20.34,14.71-15.24-1.19h0Z"/>
            <path class="cls-7" d="m26.41,328.79c.47-2.81,14.74-6.96,27.18-3.94,3.9.96,3.89,1.7,16.85,6.92,4.43,1.82,8.18,3.22,10.54,4.14-.13,1.42-.27,2.84-.34,4.29-1.34.43-2.73.83-4.07,1.26-7.93-4.14-27.77-7.98-37.74-3.79-3.96,1.62-6.53,3.88-8.09,3-1.97-1.09.5-5.18-2.42-9.36-1.11-1.76-2.06-1.8-1.9-2.54h0Z"/>
            <path class="cls-6" d="m6.59,421.23c.4-2.12,12.52-.2,25.64-6.56,13.65-7.42,17.89-13.18,24.31-20.54,1.86.07,3.71.07,5.43.13-.93,6.63-22.13,35.71-44.65,36.31-1.33-.6-.93-1.79-3.11-3.71-.66-.6-7.69-4.64-7.62-5.63h0Z"/>
            <path class="cls-6" d="m58.93,396.26c.8-1.26,1.66-1.79,2.58-2.32,1.52.07,2.98.13,4.57.2-.2,1.06-.46,2.19-.73,3.25-2.52-.8-10.14,4.31-6.43-1.13h0Z"/>
            <g>
              <path d="m139.89,410.77c1.72-7.62,1.99-15.37,8.81-20.41,13.05-12.65,36.44-30.54,56.45-23.78,3.51,1.13,5.57,4.31,7.69,7.02,2.39,2.98,6.23,4.57,7.75,8.08-23.12,17.42-53.27,23.32-80.7,29.08h0Z"/>
              <path d="m63.1,397.45c.13-1.33.27-2.05.4-3.31,3.84-.99,48.03-10.53,59.69-6.56,4.44,1.59,8.08,6.76,11.46,7.95,2.92.99,5.37,1.26,8.08,1.26,1.86,2.65,3.71,5.37,5.57,8.02-3.58,8.75-13.05,7.22-19.41,2.78-2.39-1.26-7.42-2.39-16.03-3.78-16.83-2.72-30.08-5.04-49.76-6.36h0Z"/>
              <path d="m65.69,397.65c16.76-1.06,34.52-2.19,51.28,3.38,10.6,3.71,17.82,9.08,27.23,4.44,10.53-6.29,22.53-14.24,35.31-16.03,6.89-.8,10.73,2.78,10.47,5.3-3.45,8.22-38.36,12.52-47.04,15.7-4.84,2.32-10.07-.73-14.05-2.92-18.35-5.57-40.68-7.55-63.21-9.87h0Z"/>
            </g>
            <path d="m176.53,480.27c5.7-13.05,17.62-40.28,28.82-46.05,1.13-.8,0,2.52.86,1.92,8.02-6.16,6.96,3.84,4.11,7.75-7.42,13.85-19.54,25.64-30.28,38.03-1.26-.46-2.45-1.13-3.51-1.66h0Z"/>
            <path class="cls-11" d="m74.23,340.94c.27-2.12,3.05-3.45,4.57-3.98,1.39.46,2.72.93,4.17,1.46-.53.99-1.06,2.05-1.59,3.05-1.86-.99-5.76,0-7.16-.53h0Z"/>
            <g>
              <path d="m142.6,373.86c2.32-2.85,4.64-5.7,7.02-8.61h0c.86-1.06,1.79-2.19,2.72-3.31h0c17.69-7.49,40.55-13.18,58.83-3.58,11.06,6.29,8.08,19.61,6.16,29.88-28.82-5.76-50.29-6.49-74.73-14.38h0Z"/>
              <path d="m79.33,340.94c.46-1.26.8-1.99,1.33-3.25,4.57.33,44.72,2.05,56.65,9.81,5.83,5.83,6.56,12.99,15.3,14.58.93,3.18,1.92,6.43,2.78,9.61-7.42,9.01-14.24,2.32-20.27-3.98-8.75-5.9-37.17-19.61-55.78-26.77h0Z"/>
              <path d="m79.33,340.94c.27-.6.53-1.39.73-1.86,9.67,3.38,20.14,5.76,26.77,6.89,15.37,2.12,32.86,3.51,35.31,20.87,2.32-.53,4.9-1.06,7.42-1.52,8.08-1.26,15.7-1.59,25.24-.13,12.72,1.86,33.92,8.88,7.95,13.58-10.27,3.11-20.54.73-30.61-2.05-1.06-.2-2.25-.8-3.31-.73-6.23,1.06-9.61-4.97-13.71-8.22-8.75-5.96-37.23-19.68-55.78-26.83h0Z"/>
            </g>
            <path class="cls-8" d="m242.38,446.94c.2-5.17.46-10.73.66-15.97,4.9-1.46,10.07-.6,15.04-1.39,4.64-.8,9.74-2.78,14.58-4.04-.73,1.33-1.59,2.72-2.32,4.04-1.06,1.92-2.19,3.91-3.31,5.76,2.05,4.51,5.04,8.68,8.55,12.19-2.58,4.77-9.14,7.42-14.38,5.43-3.71-1.52-5.63-5.5-8.41-8.08-3.45.8-6.89,1.46-10.4,2.05h0Z"/>
            <path class="cls-8" d="m249.87,455.89c4.84-6.43,12.06-9.94,19.74-11.46,1.79.07,2.32,2.39,3.45,3.45,2.72-2.98,8.22-2.98,10.47,0h0c.6.53,1.13,1.39.86,2.25h0c-.86,2.19-3.51,2.92-5.63,3.18h0c-.2-.07-.4-.2-.6-.33-.27-.13-.46-.27-.73-.4h0l-.33-.2c-.07-.07-.2-.13-.27-.13h0s-.07,0-.07-.07h0l-.07-.07h0c-.13-.07-.2-.13-.33-.2-.46.66-.99,1.46-1.52,2.12.07.07.13.07.27.13h0c3.58,2.05,7.49,4.9,8.68,9.01-1.86,2.19-2.85,2.39-2.39,3.84.99,3.18-1.86,6.49-2.58,6.36-3.51-.66-6.63-1.26-10-1.86-.66-1.26-1.39-2.52-2.05-3.71-2.52-.53-8.15-1.33-10-1.13,0-.86,1.39-2.85,1.72-3.45q0-.07.07-.07c-.46-.13-1.52-.93-1.92-.93.2-.53-.46-.53-1.46-.8-1.86-.53-8.81-1.72-5.3-5.57h0Z"/>
            <path d="m200.91,408.25c-.27-.46-.46-.93-.73-1.46h0c-1.46-3.11-2.85-6.49-2.98-9.87h0c-.13-4.7,4.44-6.69,6.96-10.2,4.04-4.51,8.28-9.61,12.26-13.91,12.79,13.52,77.25,31.01,55.52,55.72l-1.26,1.26c-.66.8-2.39,1.86-2.12,2.72-7.16.86-22.79,6.76-24.58,14.24-2.78.53-6.76,2.12-9.81,1.79-8.22-1.13-12.59-10-18.75-14.84.2-.99.33-1.99.53-2.98-4.97-6.63-11.13-14.77-15.04-22.46h0Z"/>
            <path class="cls-10" d="m276.37,451.98s0,.07-.07.07c0-.07-.07-.13-.07-.13,1.72,1.06,7.95.07,7.35-4.11,2.72,2.72-.93,4.97-4.7,5.5-.86-.33-1.66-.8-2.52-1.33h0Z"/>
            <path d="m206.67,430.38c-2.05-6.76,5.7-8.41,10-11.4,8.08-4.44,16.76-9.01,25.64-11.99,9.08-3.11,20.87-3.38,28.95,1.59.4.33,3.45,2.45,3.84,2.78.8.86,1.52,1.86,1.99,2.72,5.76,9.28-9.28,18.82-16.5,18.48-7.49-.2-15.3-.13-22.79.13h0c-5.57,0-10.34.86-15.44.8h0c-1.39-.07-2.85-.13-4.31-.27h0c-3.58-.73-9.01.46-11.4-2.85h0Z"/>
            <path d="m202.96,472.38c-4.51-13.71-1.92-30.41,3.45-44.19.99-2.58,1.52-4.37,4.11-4.9,1.79-.46,2.19-2.39,3.91-2.85,13.71-3.31-5.17,44.12-7.29,51.88-1.39,0-2.72.07-4.04.07h-.13Z"/>
            <path class="cls-16" d="m202.96,472.38c-1.33-4.37-2.39-10.27-2.39-16.23,3.38-1.86,9.47-2.05,12.19-.93-1.52,4.57-3.38,10.34-5.63,17.09-1.39,0-2.72.07-4.04.07h-.13Z"/>
            <path class="cls-16" d="m176.53,480.27c.8-2.12,5.23-12.59,7.75-17.09,2.52.46,5.23,1.39,8.08,4.84-4.04,4.64-8.22,9.41-12.39,14.05-1.19-.6-2.39-1.26-3.45-1.79h0Z"/>
            <path class="cls-14" d="m179.24,481.19c.86-1.46,3.18-3.84,4.9-4.9,3.11,3.25,6.29,6.63,9.41,9.87-1.13,1.66-3.11,3.78-4.64,4.97-3.18-3.31-6.49-6.56-9.67-9.94h0Z"/>
            <path class="cls-14" d="m181.03,479.47c.66-1.13,2.12-2.45,3.18-3.11,3.11,3.25,6.29,6.63,9.41,9.87-.73.99-1.86,2.32-2.92,3.11-3.25-3.31-6.49-6.63-9.67-9.87h0Z"/>
            <path class="cls-9" d="m193.22,484.24s.07,0,0,0q.07,0,0,0c.4.46.73.93,1.06,1.52.07-.07.2-.07.33-.13-.07.07-.13.13-.27.2.33.53.66,1.06.99,1.72v.07c.07-.07.2-.13.27-.2-.07.13-.2.2-.27.27.4.73.73,1.59,1.06,2.39.33-.27.66-.53.99-.8-1.13-1.72-2.78-4.31-3.91-5.7-.2.2-.4.4-.66.53.33,0,.4.07.4.13h0Zm0,0s.07,0,0,0h0q.07,0,0,0c.07.07.07.13.13.2h0c.33.4.6.8.93,1.33.07-.07.2-.07.33-.13-.07.07-.13.13-.27.2.33.53.66,1.06.99,1.72v.07c.07-.07.2-.13.27-.2-.07.13-.2.2-.27.27.4.73.73,1.59,1.06,2.39.33-.27.66-.53.99-.8-1.13-1.72-2.78-4.31-3.91-5.7-.2.2-.4.4-.66.53.33,0,.4.07.4.13h0Zm-1.99,5.7c1.59-.07,3.51-1.86,4.57-2.58-1.06,1.33-2.52,2.32-3.31,2.78-2.19,1.46,2.72,1.52,3.31.53-.4.99.2,2.98,1.46,3.05,3.11-.8,4.97-7.22,6.16-9.34,1.13-2.98,2.52-8.88,3.45-11.79-2.98-3.45-3.58.2-5.96,2.52-.93,1.13-3.78,3.78-4.17,5.37-1.26,2.25-5.37,4.44-6.36,6.36.2,1.46,3.05-.8,4.37-1.26-.93,1.19-4.84,2.65-3.51,4.37h0Zm7.22-1.13c-.4.99-.73,1.92-1.13,2.92,0-1.26-.27-1.66-.73-1.72.66-.53,1.46-1.06,2.05-1.72-.13.2-.2.33-.2.53h0Zm-5.23-4.57s.07,0,0,0h0q.07,0,0,0c.07.07.07.13.13.2h0c.33.4.6.8.93,1.33.07-.07.2-.07.33-.13-.07.07-.13.13-.27.2.33.53.66,1.06.99,1.72v.07c.07-.07.2-.13.27-.2-.07.13-.2.2-.27.27.4.73.73,1.59,1.06,2.39.33-.27.66-.53.99-.8-1.13-1.72-2.78-4.31-3.91-5.7-.2.2-.4.4-.66.53.33,0,.4.07.4.13h0Zm0,0s.07,0,0,0h0q.07,0,0,0c.07.07.07.13.13.2h0c.33.4.6.8.93,1.33.07-.07.2-.07.33-.13-.07.07-.13.13-.27.2.33.53.66,1.06.99,1.72v.07c.07-.07.2-.13.27-.2-.07.13-.2.2-.27.27.4.73.73,1.59,1.06,2.39.33-.27.66-.53.99-.8-1.13-1.72-2.78-4.31-3.91-5.7-.2.2-.4.4-.66.53.33,0,.4.07.4.13h0Z"/>
            <path class="cls-9" d="m181.23,500.47h0q.07,0,0,0c.4.46.73.93,1.06,1.52.07-.07.2-.07.33-.13-.07.07-.13.13-.27.2.33.53.66,1.06.99,1.72v.07c.07-.07.2-.13.27-.2l-.27.27c.4.73.73,1.59,1.06,2.45.33-.27.66-.53.99-.8-1.13-1.72-2.78-4.31-3.91-5.7-.2.2-.4.4-.66.53.33-.07.33,0,.4.07h0Zm0,0h0c.07.07.07.13.13.2h0c.33.4.6.8.93,1.33.07-.07.2-.07.33-.13-.07.07-.13.13-.27.2.33.53.66,1.06.99,1.72v.07c.07-.07.2-.13.27-.2-.07.13-.2.2-.27.27.4.73.73,1.59,1.06,2.45.33-.27.66-.53.99-.8-1.13-1.72-2.78-4.31-3.91-5.7-.2.2-.4.4-.66.53.33-.07.33,0,.4.07h0Zm-2.05,5.7c1.59,0,3.51-1.86,4.57-2.58-1.06,1.26-2.52,2.32-3.31,2.78-2.19,1.46,2.72,1.52,3.31.53-.4.99.2,2.98,1.46,3.05,3.11-.73,4.97-7.22,6.16-9.34,1.13-2.98,2.52-8.88,3.45-11.79-2.98-3.45-3.58.2-5.96,2.52-.93,1.13-3.78,3.71-4.17,5.37-1.26,2.25-5.37,4.44-6.36,6.36.2,1.46,3.05-.8,4.37-1.26-.86,1.19-4.77,2.72-3.51,4.37h0Zm7.22-1.13c-.4.99-.73,1.92-1.13,2.92,0-1.26-.27-1.66-.73-1.72.66-.53,1.46-1.06,2.05-1.72-.07.27-.13.4-.2.53h0Zm-5.17-4.57h0c.07.07.07.13.13.2h0c.33.4.6.8.93,1.33.07-.07.2-.07.33-.13-.07.07-.13.13-.27.2.33.53.66,1.06.99,1.72v.07c.07-.07.2-.13.27-.2l-.27.27c.4.73.73,1.59,1.06,2.45.33-.27.66-.53.99-.8-1.13-1.72-2.78-4.31-3.91-5.7-.2.2-.4.4-.66.53.33-.07.33,0,.4.07h0Zm0,0h0c.07.07.07.13.13.2h0c.33.4.6.8.93,1.33.07-.07.2-.07.33-.13-.07.07-.13.13-.27.2.33.53.66,1.06.99,1.72v.07c.07-.07.2-.13.27-.2l-.27.27c.4.73.73,1.59,1.06,2.45.33-.27.66-.53.99-.8-1.13-1.72-2.78-4.31-3.91-5.7-.2.2-.4.4-.66.53.33-.07.33,0,.4.07h0Z"/>
          </g>
          <g>
            <path class="cls-18" d="m509.59,429.62c.11,18.49,2.21,30.19,14.42,40.55,6.64,5.63,9.18,3.2,7.06-2.29-5.72-14.77-2.29-18.34-.04-25.81,1.6-5.31-21.48-17.61-21.45-12.45Z"/>
            <path class="cls-18" d="m440.85,420.07c.64,9.9,49.26,31.82,79.38,33.8,48.01,3.15,135.75-20.86,165.97-15.68,23.31,3.99,16.76-14.97-1.8-14.23-21.65.86-107.34-30.24-152.19-33.03-51.62-3.21-91.61,25.18-91.35,29.15Z"/>
            <path class="cls-17" d="m663.96,437.97c-16.48,1.8-64.59,12.4-102.21,7.76-46.61-5.74-84.35-17.76-111.21-15.65,15.84,10.27,47.69,22.35,69.68,23.79,39.07,2.56,104.45-12.86,143.73-15.9Z"/>
            <path class="cls-18" d="m690.11,427.54c-.7,14.22,6.25,32.88,16.02,44.77,5.5,6.69-7.72-23.38-3.06-39.76,4.86-17.09,30.23-40.49,21.08-36.35-4.14,1.87-33.31,16.64-34.04,31.34Z"/>
            <path class="cls-2" d="m466.23,438.4c1.59.34,16.35-1.35,19.23-4.06"/>
            <path class="cls-18" d="m529.11,440.01c15.98,11.56,24.79,17.08,40.02,22.47,20.71,7.33,17.87,3.04,6.55-3.44-11.16-6.39-14.99-16-21.63-21.7-4.3-3.69-29.24-.44-24.94,2.67Z"/>
            <path class="cls-18" d="m537.66,396.76c6.5-19.24,18.78-26.41,35.32-27.97,27.88-2.63,8.69.19,4.07,4.02-12.45,10.31-11.89,16.56-13.03,25.99-.66,5.49-28.02,2.86-26.36-2.05Z"/>
            <path class="cls-19" d="m497.99,405.94c4.73,6.27,13.63,17.76,9.72,25.42,7.69-5.27-1.36-21.63-9.72-25.42Z"/>
            <path class="cls-19" d="m503.53,405.94c4.73,6.27,12.25,18.99,8.33,26.65,7.69-5.27.02-22.87-8.33-26.65Z"/>
            <path class="cls-19" d="m509.18,406.56c4.73,6.27,12.25,18.99,8.33,26.65,7.69-5.27.02-22.87-8.33-26.65Z"/>
          </g>
          <path class="cls-13" d="m458.92,409.72l-.6.89-.15.36c-.06.2-.07.4-.03.6.04.33.18.62.41.86.46.48,1.15.76,1.81.74.71-.02,1.32-.29,1.86-.74s.79-1.11.81-1.78-.26-1.32-.74-1.73c-.99-.86-2.51-.95-3.5-.04-.52.48-.75,1.21-.66,1.9s.51,1.25,1.09,1.63c.22.15.49.26.76.32.42.09.76.1,1.18.01.76-.15,1.37-.78,1.58-1.52.14-.51,0-1.09-.39-1.46-.52-.5-1.25-.82-1.98-.78-.81.05-1.63.45-2.02,1.2-.3.58-.4,1.31-.18,1.93.32.89,1.01,1.48,1.97,1.55.81.06,1.51-.43,1.96-1.07.41-.59.52-1.35.38-2.04-.12-.6-.52-1.18-.99-1.56-.24-.19-.48-.37-.75-.51-.48-.24-1.04-.5-1.59-.34s-1.09.55-1.36,1.09c-.22.43-.34.92-.28,1.4s.17.99.46,1.41c.39.55.9.93,1.58,1.02s1.33-.11,1.83-.58c.34-.32.59-.78.66-1.24.08-.49.09-.98-.08-1.46-.2-.58-.53-1.07-1.05-1.4-.82-.53-2.12-.43-2.58.53-.35.72-.36,1.59.11,2.27.38.54.9.99,1.56,1.16.76.19,1.63.01,2.17-.59.22-.25.37-.52.41-.86s-.02-.64-.18-.96c-.32-.64-.99-1.12-1.67-1.3s-1.49-.1-2.14.27c-.34.19-.71.53-.9.87-.26.48-.26.97-.05,1.45.1.24.23.45.42.64.56.56,1.47.75,2.22.5.91-.3,1.53-1.06,1.57-2.03.02-.4-.12-.87-.34-1.21s-.54-.67-.92-.86-.79-.32-1.23-.3c-.58.02-1.05.23-1.49.59-.58.48-.88,1.32-.83,2.06.06.96.55,1.88,1.43,2.34.78.4,1.77.52,2.59.18l.36-.15c.17-.09.32-.22.42-.39.22-.28.28-.55.32-.91.07-.72-.24-1.4-.69-1.93-.37-.45-.91-.74-1.46-.93-1.23-.41-2.7.04-3.34,1.2-.19.35-.26.77-.15,1.16.1.35.36.73.69.9.35.18.77.28,1.16.15s.71-.34.9-.69c.03-.05.06-.1.1-.15l-.23.3c.06-.08.13-.15.22-.22l-.3.23c.07-.05.15-.1.23-.13l-.36.15c.11-.05.23-.08.35-.09l-.4.05c.14-.02.27-.01.41,0l-.4-.05c.16.02.32.07.47.13l-.36-.15c.14.06.27.14.39.23l-.3-.23c.1.08.19.17.27.26l-.23-.3c.07.09.13.19.17.29l-.15-.36c.04.1.06.19.08.3l-.05-.4c.01.1.01.19,0,.29l1.1-1.45c-.16.07-.32.11-.49.13l.4-.05c-.15.02-.3.02-.45,0l.4.05c-.13-.02-.26-.05-.38-.1l.36.15c-.11-.05-.21-.1-.3-.17l.3.23c-.09-.07-.17-.15-.24-.24l.23.3c-.06-.09-.11-.17-.15-.27l.15.36c-.04-.11-.07-.23-.09-.35l.05.4c-.01-.12-.01-.24,0-.36l-.05.4c.02-.1.04-.2.08-.3l-.15.36c.03-.08.08-.15.13-.23l-.23.3c.05-.07.11-.13.18-.18l-.3.23c.06-.04.11-.07.18-.1l-.36.15c.06-.02.13-.04.19-.05l-.4.05c.08,0,.16,0,.24,0l-.4-.05c.08.01.16.03.23.06l-.36-.15c.09.04.17.08.24.14l-.3-.23c.06.05.12.11.17.17l-.23-.3c.04.05.07.11.1.17l-.15-.36c.02.06.04.12.05.19l-.05-.4c0,.07,0,.13,0,.2l.05-.4s-.02.09-.04.13l.15-.36c-.02.05-.05.1-.09.14l.23-.3s-.08.08-.12.11l.3-.23c-.06.04-.11.07-.18.1l.36-.15c-.07.03-.15.05-.23.06l.4-.05c-.08,0-.15,0-.23,0l.4.05c-.06-.01-.13-.03-.19-.05l.36.15s-.07-.04-.11-.06l.3.23s-.06-.05-.09-.09l.23.3s-.05-.07-.07-.11l.15.36s-.02-.06-.03-.1l-.15,1.16s.03-.05.05-.07l-.23.3c.06-.07.12-.14.2-.2l-.3.23c.07-.05.15-.1.24-.14l-.36.15c.11-.05.22-.08.34-.09l-.4.05c.12-.01.24-.01.36,0l-.4-.05c.12.02.23.05.35.09l-.36-.15c.1.04.19.09.27.15l-.3-.23c.08.07.16.14.22.22l-.23-.3c.04.06.07.11.11.17l.23-1.82s-.07.07-.1.1l.3-.23s-.09.06-.15.08l.36-.15c-.05.02-.1.03-.16.04l.4-.05c-.07,0-.13,0-.2,0l.4.05c-.08-.01-.16-.03-.23-.06l.36.15c-.1-.04-.19-.1-.28-.16l.3.23c-.08-.06-.14-.13-.21-.2l.23.3c-.06-.08-.11-.15-.15-.24l.15.36c-.03-.06-.04-.13-.06-.2l.05.4c0-.07,0-.13,0-.2l-.05.4c0-.06.03-.11.05-.17l-.15.36s.03-.07.05-.1l-1.3.74c.06,0,.12,0,.19,0l-.4-.05c.06,0,.11.02.17.04l-.36-.15c.06.03.12.06.17.1l-.3-.23c.05.04.1.09.14.15l-.23-.3c.06.08.11.17.15.27l-.15-.36c.05.12.08.24.1.37l-.05-.4c.01.12.01.23,0,.35l.05-.4c-.01.1-.04.2-.08.3l.15-.36c-.03.06-.06.12-.1.18l.23-.3c-.04.05-.09.1-.14.14l.3-.23s-.08.05-.13.07l.36-.15c-.07.03-.14.05-.21.06l.4-.05c-.06,0-.12,0-.18,0l.4.05c-.06-.01-.11-.03-.17-.05l.36.15c-.05-.02-.1-.05-.15-.09l.3.23c-.06-.05-.12-.11-.17-.17l.23.3c-.06-.08-.11-.18-.16-.27l.15.36c-.05-.12-.08-.25-.1-.38l.05.4c-.01-.12-.02-.24,0-.35l-.05.4c.01-.09.04-.18.07-.27l-.15.36c.03-.06.06-.12.1-.18l-.23.3s.08-.09.12-.12l-.3.23s.1-.07.16-.09l-.36.15s.06-.02.09-.03h-.8c.06.02.13.05.19.08l-.36-.15c.24.1.47.23.68.38l-.3-.23c.14.11.26.22.36.36l-.23-.3c.07.1.13.2.18.31l-.15-.36c.04.09.06.18.08.27l-.05-.4c0,.09,0,.18,0,.27l.05-.4c-.02.11-.04.2-.08.3l.15-.36c-.04.1-.09.18-.15.27l.23-.3c-.05.07-.11.13-.18.18l.3-.23c-.05.04-.11.07-.17.1l.36-.15s-.1.03-.15.04l.4-.05c-.05,0-.11,0-.16,0l.4.05c-.05,0-.1-.02-.16-.04l.36.15s-.09-.04-.13-.07l.3.23s-.09-.08-.13-.13l.23.3c-.04-.05-.07-.11-.1-.16l.15.36c-.04-.09-.06-.17-.07-.27l.05.4c-.01-.09,0-.19,0-.28l-.05.4c.01-.08.03-.15.06-.23l-.15.36c.03-.06.06-.12.1-.17l-.23.3s.08-.09.12-.12l-.3.23c.06-.05.13-.09.2-.12l-.36.15c.09-.04.18-.06.27-.07l-.4.05c.1,0,.19,0,.28,0l-.4-.05c.11.02.22.05.32.09l-.36-.15c.09.04.17.09.25.15l-.3-.23s.07.06.11.1l-.39-1.46s-.02.06-.03.1l.15-.36s-.05.09-.08.13l.23-.3s-.06.07-.1.1l.3-.23s-.09.06-.15.09l.36-.15c-.07.03-.13.04-.2.05l.4-.05c-.09.01-.19,0-.28,0l.4.05c-.1-.02-.19-.04-.28-.08l.36.15c-.1-.04-.19-.09-.28-.16l.3.23c-.06-.05-.11-.1-.15-.15l.23.3s-.07-.1-.09-.16l.15.36c-.02-.06-.04-.11-.05-.17l.05.4c0-.06,0-.13,0-.19l-.05.4c.01-.07.03-.13.06-.2l-.15.36s.05-.1.08-.14l-.23.3c.04-.05.08-.09.13-.13l-.3.23c.06-.05.12-.08.19-.11l-.36.15c.09-.04.18-.06.28-.07l-.4.05c.1-.01.2-.01.3,0l-.4-.05c.11.02.22.04.32.09l-.36-.15c.09.04.18.09.26.15l-.3-.23c.06.05.11.1.16.16l-.23-.3c.04.05.07.11.1.17l-.15-.36c.03.06.04.13.05.2l-.05-.4c0,.08,0,.15,0,.23l.05-.4c-.01.09-.03.17-.07.25l.15-.36c-.04.08-.08.15-.13.22l.23-.3c-.06.08-.13.15-.21.21l.3-.23c-.09.07-.19.12-.29.17l.36-.15c-.11.04-.21.07-.33.09l.4-.05c-.11.01-.22.01-.33,0l.4.05c-.09-.01-.17-.04-.25-.07l.36.15c-.07-.03-.13-.07-.19-.11l.3.23s-.08-.07-.11-.1l.23,1.82.6-.89c.21-.31.25-.8.15-1.16s-.36-.73-.69-.9c-.35-.18-.77-.28-1.16-.15s-.67.35-.9.69h0Z"/>
        </g>
      </g>
    </g>
  </g>
</svg>