<?xml version="1.0" encoding="UTF-8"?>
<svg xmlns="http://www.w3.org/2000/svg" xmlns:xlink="http://www.w3.org/1999/xlink" viewBox="0 0 767.05 508.38">
  <defs>
    <style>
      .cls-1 {
        fill: #00ff1c;
      }

      .cls-2 {
        fill: #00368b;
      }

      .cls-3 {
        fill: #f5ff00;
      }

      .cls-4 {
        fill: #e7ff00;
      }

      .cls-5 {
        fill: #fff92e;
      }

      .cls-6 {
        fill: #fffa00;
      }

      .cls-7 {
        fill: #fff;
      }

      .cls-8 {
        fill: #ffe238;
      }

      .cls-9 {
        fill: #ffa477;
      }

      .cls-10 {
        fill: #fba479;
      }

      .cls-11 {
        fill: #908fb2;
      }

      .cls-12 {
        fill: #c60060;
      }

      .cls-13 {
        fill: #dd775f;
      }

      .cls-14 {
        fill: #e0d72d;
      }

      .cls-15 {
        fill: #e0dfd9;
      }

      .cls-16 {
        fill: #e22512;
      }

      .cls-17 {
        fill: #e225ae;
      }

      .cls-18 {
        fill: #e1ff45;
      }

      .cls-19 {
        fill: #201d30;
      }

      .cls-20, .cls-21 {
        fill: #454551;
      }

      .cls-22 {
        fill: #191919;
      }

      .cls-23 {
        fill: #1753ff;
      }

      .cls-24 {
        fill: #17af78;
      }

      .cls-25 {
        fill: #4561ff;
      }

      .cls-26 {
        fill: #2e4eff;
      }

      .cls-27 {
        fill: #2e9f7b;
      }

      .cls-28 {
        fill: #35251a;
      }

      .cls-29 {
        fill: #5dff2e;
      }

      .cls-30 {
        fill: #777077;
      }

      .cls-31 {
        fill: #2800ff;
      }

      .cls-32 {
        fill: #17ffc2;
        font-family: ComicSansMS-Bold, 'Comic Sans MS';
        font-size: 72px;
        font-weight: 700;
      }

      .cls-21 {
        mix-blend-mode: screen;
      }

      .cls-33 {
        fill: url(#Degradado_sin_nombre_9);
      }

      .cls-34 {
        isolation: isolate;
      }
    </style>
    <linearGradient id="Degradado_sin_nombre_9" data-name="Degradado sin nombre 9" x1="356.77" y1="490.51" x2="413.62" y2="-11.68" gradientUnits="userSpaceOnUse">
      <stop offset="0" stop-color="#434fcc"/>
      <stop offset="1" stop-color="#3b9cd5"/>
    </linearGradient>
  </defs>
  <g class="cls-34">
    <g id="Layer_2" data-name="Layer 2">
      <g id="OBJECTS">
        <polyline class="cls-33" points="767.05 0 767.05 508.38 0 508.38 0 0"/>
        <g>
          <g>
            <path class="cls-9" d="m79.31,217.67c-.81.76-.97,1.61-1,1.91-2.83-5.7-2.05-7.73-1.68-7.9"/>
            <path class="cls-28" d="m81.96,189.47c-.03.27-1.97.41-3.57.31-4.61-.26-6.68-2.47-9.37-3.21-.55-.15-1.04-.18-1.54-.07-1.77.36-3.67,2.33-8.72,6,.57,1.39,1,2.65,1.31,3.77.13.46.23.89.32,1.3.58,2.69.41,4.56-.11,5.92-.23.61-.54,1.12-.87,1.55-.34.44-.71.79-1.09,1.1-.41.34-.82.62-1.18.88-.31.22-.58.41-.83.57-.52.34-.92.57-1.33.79-.79.45-1.6.92-3.38,2.33-.74.59-1.22,1.39-1.59,2.26-.2.47-.37.96-.53,1.45-.13.42-.26.84-.4,1.25-.49,1.46-1.08,2.79-2.41,3.47-1.39.71-4.93-1.21-6.94-2.05-.5-.21-.91-.35-1.17-.37.93-1.14,1.93-2.81,1.58-4.62-.26-1.35-1.14-2.14-2.3-2.89-1.66-1.07-3.87-2.05-5.6-4.4-2.83-3.84-2.87-9.32-.62-12.76.74-1.13,1.14-1.15,1.92-2.54,2.08-3.71,5.68-6.5,8.03-7.53,1.51-.67,1.9-1.8,2.57-2.6,1.3-1.54,4.55-2.89,13.31-1.72.21-.68.7-1.85,1.89-2.9,2.19-1.93,5.59-2.4,8.34-1.68,1.8.47,3.02,1.38,3.72,2.01-3.15-1.44-6.66-.9-8.28.94-1.36,1.53-.95,3.47-.85,3.92,4.11-2.25,6.63-2.22,8.22-1.66,2.08.74,3.27,2.64,5.15,2.39.97-.13,1.67-.78,2.1-1.31-.64,1.72-1.47,2.26-2.13,2.42-1.71.41-3.04-1.5-5.13-1.08-1.32.26-2.32,1.32-2.15,1.63.15.26,1.07-.16,2.29-.09,2.52.15,3.27,2.26,5.94,3.35.98.4,2.54.79,4.87.5-.92.25-2.9.67-5.32.23-2.87-.52-4.68-1.92-5.37-2.51,2.83,2.83,5.53,4.05,7.54,4.63,1.72.5,3.65.74,3.63,1.01Z"/>
            <path d="m113.26,277.18c-1.07.58-3.26,1.66-6.05,2.35-.85.21-1.77.39-2.72.51-1.12.14-2.22.18-3.3.14-.64-.02-1.27-.07-1.9-.15-1.63-.2-3.23-.57-4.83-1.06-1.52-.47-3.03-1.07-4.54-1.74-.99-.44-1.99-.92-2.99-1.42-1.3-.65-2.62-1.34-3.95-2.05-.02-.01-.04-.02-.06-.03-2.9-1.54-5.96-3.2-9.16-4.98-.55-.31-1.1-.61-1.66-.93-.81-.45-1.62-.91-2.45-1.38-3.3-1.88-6.74-3.88-10.3-6.01-.08-.05-.16-.1-.25-.15-.03-.01-.05-.03-.07-.04-1.14-.68-2.29-1.38-3.46-2.09,1.09-.88,2.15-1.73,3.16-2.56,1.62-1.33,3.13-2.6,4.54-3.79.52-.44,1.01-.86,1.5-1.28.02-.01.03-.03.05-.04,2.33-1.99,4.33-3.76,5.98-5.25.28-.25.54-.49.81-.72.19-.18.38-.35.56-.51,0,0,0,0,0,0,1.23-1.12,2.24-2.02,3.11-2.74.33-.27.63-.51.93-.73.81-.6,1.51-.99,2.2-1.19.34-.1.68-.16,1.03-.18.19,0,.37,0,.56.01.74.06,1.37.28,2.12.87,0,0,0,0,0,0,.04.03.08.06.12.09.21.18.44.39.68.64.13.13.27.28.41.44h0c.65.73,1.42,1.7,2.36,3.01,0,0,0,0,0,0,.06.09.13.18.19.27.51.7,1.07,1.49,1.7,2.39,1.13,1.61,2.47,3.55,4.08,5.89,3.12,4.53,5.12,7.4,7.13,9.29.7.66,1.41,1.2,2.16,1.66,1.76,1.06,3.87,1.98,5.69,2.68.07.03.15.06.22.08,1.79.68,3.26,1.14,3.79,1.3,2.53.77,4.49,1.17,5.94,1.5,1.85.42,2.86.72,3.14,1.54.84,2.41-5.68,5.94-6.48,6.38Z"/>
            <path class="cls-6" d="m189.35,496.64c-1.43,3.12-19.12,3.18-32.35-4.36-4.14-2.35-3.88-3.2-17-13.45-4.49-3.5-8.23-6.3-10.72-8.14.4-1.06.8-2.13,1.2-3.19.04-.09.07-.19.11-.29.16-.42.31-.83.47-1.25,1.48-.04,2.95-.08,4.42-.12.05,0,.1,0,.15,0,.16,0,.33-.01.5-.01,4.49,3.89,11.57,8.96,21.48,12.55,8.04,2.9,13.36,4.83,20.34,4.06,5.04-.56,8.66-2.28,10.21-.77,1.9,1.85-2.27,5.79-.29,11.49.8,2.33,1.85,2.69,1.47,3.5Z"/>
            <path class="cls-5" d="m261.28,452.72c-2.05,1.53-11.04-10.02-27.52-15.12-11.82-3.65-24.4-3.02-28.26-2.83-3.93.19-7.19.6-9.51.96-1.26-1.24-2.51-2.48-3.77-3.71-.29-.29-.58-.57-.87-.86,1.46-.75,2.92-1.5,4.38-2.24.43-.23.86-.44,1.3-.67,5.94-1.44,28.71-7.72,55.17,2.34,2.59.99,6.14,2.36,7.32,5.23.66,1.59-.56,2.32-.29,5.72.16,2.07.65,2.38,1.45,6.08.68,3.17,1.02,4.77.6,5.09Z"/>
            <path class="cls-5" d="m195.66,431.95c-1.35.3-2.57.22-3.44.07-.26-.04-.49-.1-.68-.14-.62-.65-1.26-1.29-1.88-1.93-.63-.64-1.27-1.29-1.9-1.94,1.08-.75,2.16-1.49,3.25-2.23.39.37.86.79,1.45,1.21.68.51,1.48,1.04,2.45,1.53.29.15.57.28.84.4,1.6.72,2.72.99,2.73,1.53.01.85-2.59,1.45-2.81,1.5Z"/>
            <g>
              <path d="m137.1,353.53c-.27.19-.55.37-.82.56-1.1.76-2.2,1.53-3.29,2.29-1.65,1.14-3.28,2.28-4.94,3.42-1.61,1.12-3.22,2.24-4.83,3.35-.12.07-.23.16-.34.23-.56.06-1.16.13-1.8.2-.8.09-1.65.17-2.54.24-1.71.15-3.6.27-5.64.35,0,0,0,0,0,0-5.84.25-12.92.15-20.66-.83-5.1-.64-10.49-1.67-15.98-3.23-4.31-1.23-8.69-2.78-13.05-4.75-2.08-.93-4.16-1.96-6.22-3.09-3.44-1.88-7.96-5.83-10.89-10.51l-.13-.21c-.22-.36-.43-.72-.63-1.09-.11-.19-.21-.38-.31-.57-.15-.28-.28-.58-.42-.86,0,0,0,0,0-.01-.93-2.04-1.5-4.16-1.52-6.27,0-.67.04-1.34.15-2,.24-1.44.35-2.76.38-3.96,0-.03,0-.06,0-.09.02-.91,0-1.75-.04-2.55-.03-.5-.07-.99-.11-1.46,0-.05,0-.1-.01-.15-.05-.53-.12-1.05-.18-1.54-.03-.19-.05-.37-.07-.55h0c0-.06-.02-.12-.02-.17-.05-.33-.08-.65-.12-.96-.09-.74-.16-1.45-.18-2.14-.03-.95.03-1.87.26-2.79.01-.06.03-.11.04-.17.08-.28.17-.55.27-.83h0c1.22.12,2.42.27,3.62.44.11.01.22.03.33.05.23.03.45.06.67.1,2.44.36,4.83.79,7.18,1.28,1.26.26,2.51.54,3.75.84.73.17,1.45.35,2.16.54,1.54.39,3.05.81,4.54,1.25,2.47.72,4.86,1.5,7.18,2.31.41.14.82.29,1.23.44.05.02.11.04.17.06,3.15,1.13,6.16,2.33,9.02,3.55,2.95,1.26,5.74,2.54,8.35,3.8,1.48.71,2.9,1.42,4.26,2.11,1.02.52,2.01,1.03,2.96,1.53h0c.19.1.38.2.57.3,1.33.7,2.58,1.37,3.76,2.01,2.29,1.24,4.3,2.34,6,3.24.17.09.33.17.49.26.1.05.2.1.29.15.05.03.1.05.15.08.27.14.53.28.8.42,1.09.57,2.16,1.15,3.21,1.72,6.91,3.78,13.13,7.64,18.88,11.16,1.4.87,2.76,1.7,4.11,2.51Z"/>
              <path d="m192.91,427.48c-.14.12-.29.25-.45.38-1.05.89-1.52,1.29-2.58,2.21-.04-.02-.12-.06-.23-.12-3.92-2.14-50.17-29.8-56.89-42.61-2.59-4.98-1.6-12.43-3.52-16.21-1.16-2.28-2.59-4.15-3.96-5.6-.14-.15-.28-.29-.42-.43-.6-.62-1.17-1.15-1.69-1.61.02-.11.03-.22.06-.33.15-1.06.3-2.11.46-3.17,0,0,0-.02,0-.02.3-2.07.6-4.14.9-6.22.1-.59.18-1.18.27-1.78.79-.29,1.71-.57,2.69-.79,1-.21,2.06-.36,3.16-.37.57,0,1.17.03,1.76.12.02,0,.04,0,.06,0,.15.01.31.05.46.07.38.08.77.18,1.14.29,3.96,1.25,6.22,4.65,7.72,8.09.91,2.1,1.53,4.22,2.1,5.88,1.03,3.01,4.52,8.07,10.84,16.28,2,2.61,4.3,5.53,6.88,8.8,2.69,3.4,5.69,7.19,9.03,11.39,4.73,5.95,11.43,14.04,20.11,23.48.53.57,1.07,1.17,1.63,1.75.15.16.3.33.45.49Z"/>
              <path d="m190.82,425.24c-2.69-2.09-5.62-4.49-8.69-7.17-10.27-9.01-20.55-18.01-28.71-30.22-1.53-2.3-2.99-4.7-4.36-7.24-.35-.65-.69-1.29-1.01-1.92-5.37-10.53-6.47-17.52-15.06-22.31-.17-.1-.35-.21-.53-.29-1.33-.71-2.39-1.13-3.5-1.44-1.23-.35-2.53-.57-4.36-.9-1.64-.31-3.71-.72-6.53-1.4-.63-.15-1.28-.31-1.92-.46-5.21-1.26-10.96-2.72-16.51-4.73-1.67-.6-3.33-1.26-4.94-1.97-.28-.13-.57-.25-.85-.39-1.63-.74-3.22-1.55-4.74-2.44-.33-.19-.65-.38-.97-.58-.97-.59-1.91-1.21-2.81-1.87-6.62-4.86-7.1-11.16-4.79-13.09,1.65-1.38,8.48-.04,11.09,1.22,1.48.71,2.9,1.42,4.26,2.11,1.02.52,2.01,1.03,2.96,1.53.19.1.38.2.57.3,1.33.7,2.58,1.37,3.76,2.01,2.29,1.24,4.3,2.34,6,3.24.17.09.33.17.49.26.1.05.2.1.29.15.05.03.1.05.15.08.27.14.53.28.8.42,1.09.57,2.16,1.15,3.21,1.72,6.91,3.78,13.13,7.64,18.88,11.16.38.08.77.18,1.14.29,3.96,1.25,6.22,4.65,7.72,8.09.91,2.1,1.53,4.22,2.1,5.88,1.03,3.01,4.52,8.07,10.84,16.28,2,2.61,4.3,5.53,6.88,8.8,2.69,3.4,5.69,7.19,9.03,11.39,4.73,5.95,11.43,14.04,20.11,23.48Z"/>
            </g>
            <path d="m161.55,263.37s-.12.05-.34.16c-1.6.74-8.57,3.93-14.73,6.37-2,.79-3.9,1.5-5.52,2.02-.01,0-.03.01-.05.02-14.04,4.53-28.13,9.04-36.48,9.24-1.5.04-2.72-.39-3.7-.73-.53-.19-1-.35-1.4-.41-.02,0-.04,0-.05,0-1.65-.26,2.02-2.17.83-2.38-3.43-.62-4.76-1.19-5.34-1.65-.26-.2-.35-.39-.43-.54-1.01-2.3,3.1-5.57,4.17-6.38,1.26-.46,2.71-.99,4.36-1.52.02-.01.04-.01.06-.03.45-.14.91-.29,1.38-.44.75-.23,1.53-.47,2.34-.71,2.66-.78,5.66-1.56,8.97-2.25.9-.19,1.77-.36,2.68-.53,1.35-.24,2.79-.47,4.57-.72,3.13-.43,7.27-.91,13.67-1.57.42-.04.85-.09,1.3-.13.05,0,.09-.01.14-.01,1.74-.18,3.6-.37,5.59-.57.65-.07,1.32-.13,2.01-.2,1.93-.19,3.97-.39,6.11-.59,1.69-.16,3.45-.32,5.27-.49.97-.09,1.95-.18,2.95-.27.02,0,.03,0,.05,0,.12.3.22.6.33.91.02.04.03.09.05.14.21.57.42,1.14.63,1.71.07.19.14.39.21.58.12.33.25.65.36.97v.02Z"/>
            <path class="cls-14" d="m137.49,467.72c-.25.82-2.97.77-3.18.77-1.53-.03-2.76-.48-3.56-.85-.1-.05-.19-.09-.27-.13-.04-.02-.08-.04-.12-.06-.4-.77-.8-1.54-1.21-2.31-.39-.77-.8-1.53-1.2-2.3.59-.2,1.17-.41,1.75-.62.7-.24,1.41-.49,2.11-.74.27.47.61.99,1.04,1.56.48.64,1.09,1.32,1.83,1.99.2.19.41.35.6.52.12.1.25.2.36.29,1.17.92,2.01,1.4,1.85,1.89Z"/>
            <g>
              <path d="m104.88,383.47c-1.65.22-3.29.45-4.94.67-.26.04-.52.07-.78.11-.27.04-.54.08-.82.11-.03.01-.06.01-.1.02-.96.13-1.93.27-2.9.4-1.15.16-2.3.32-3.45.48-.02,0-.02,0-.04,0h0s0,0,0,0c-1.68.23-3.35.46-5.04.7,0,0-.01,0-.03,0-.55-.19-1.14-.4-1.76-.62-1.29-.46-2.7-.99-4.24-1.6-2.48-.99-5.24-2.18-8.18-3.61-2.68-1.3-5.5-2.8-8.38-4.51-5.9-3.52-12.04-7.96-17.65-13.5-2.13-2.09-4.18-4.34-6.12-6.77-1.75-2.17-3.39-4.48-4.91-6.92-1.06-1.69-2.04-4.06-2.69-6.73-.03-.13-.07-.26-.09-.39t0,0v-.03c-.28-1.19-.48-2.43-.59-3.7-.09-.99-.12-1.98-.1-2.99,0-.19.02-.38.03-.57.03-.56.08-1.12.16-1.68.11-.86.28-1.71.52-2.53.16-.59.36-1.17.59-1.74.24-.6.52-1.19.84-1.75.26-.46.55-.91.87-1.34.25-.34.52-.68.82-1,.4-.44.8-.88,1.19-1.29.31-.33.62-.65.93-.97.01-.01.03-.03.04-.04.39-.4.78-.79,1.16-1.16.52-.51,1.04-.99,1.55-1.46.26-.24.52-.47.77-.71.02-.02.04-.04.06-.06.43-.39.86-.77,1.28-1.13.24-.21.48-.41.72-.61.52-.43,1.02-.85,1.52-1.25.67-.53,1.31-1.03,1.94-1.5.05-.04.11-.08.16-.12.22-.16.43-.32.64-.48.29-.22.57-.43.85-.64.08-.06.15-.11.23-.17.37-.27.73-.54,1.09-.81.55-.42,1.1-.83,1.62-1.23.2.35,1.56,2.19,3.59,4.89,1.51,2,3.39,4.48,5.44,7.17,8.26,10.82,19.28,25.11,20.03,25.99h0s.14.17.17.2c.05.06,2.27,2.75,3.33,4.07.42.52.83,1.05,1.25,1.58,1.2,1.54,2.41,3.11,3.6,4.73,1.09,1.47,2.15,2.93,3.17,4.37,1.85,2.63,3.59,5.21,5.22,7.73.17.26.34.52.5.78.29.45.57.89.85,1.33.66,1.06,1.31,2.1,1.94,3.13v.02s.02,0,.02,0c1.2,1.98,2.33,3.93,3.4,5.83.26.42.48.85.72,1.27Z"/>
              <path d="m133.1,463.54c-.19.1-.36.17-.56.26-.64.31-1.1.52-1.58.74-.47.23-.94.45-1.61.76-.03-.03-.09-.09-.19-.17-2.11-2.04-19.29-20.08-30.78-35.76-1.63-2.23-3.15-4.41-4.48-6.48-3.1-4.79-5.26-9.04-5.78-12.13-.9-5.38,2.47-12.28,1.85-16.38-.23-1.45-.59-2.79-1.03-3.99-.38-1.05-.8-1.99-1.24-2.81-.18-.35-.35-.68-.53-.98-.12-.22-.24-.42-.35-.61-.07-.12-.14-.24-.21-.35.5-1,1-2.01,1.51-3.01,1.28-2.55,2.56-5.09,3.83-7.64.07,0,.13-.01.19-.01.81-.07,1.72-.12,2.66-.1,1.57.05,3.24.28,4.81.93.39.16.78.36,1.15.58h0c.11.06.23.13.33.19,2.52,1.59,3.77,4.08,4.38,6.75.34,1.48.48,3.01.54,4.47.06,1.65.01,3.2.02,4.5,0,.73.1,1.59.29,2.61,1.15,6.19,5.71,18.02,13.71,38.73,2.79,7.25,6.97,17.37,12.82,29.41.08.17.17.34.25.52Z"/>
              <path d="m133.1,463.54c-.19.1-.36.17-.56.26-.64.31-1.1.52-1.58.74-.42-.79-.84-1.57-1.25-2.34-5.91-10.81-11.77-19.26-16.41-25.38-5.35-7.06-10.24-12.58-13.62-17.95-1.24-1.97-2.27-3.92-3.04-5.91-1.14-2.92-1.73-5.95-1.6-9.3.23-5.83,2.55-10.54,4.49-13.64-1.29-.73-2.67-1.55-4.14-2.46-1.12-.7-2.3-1.45-3.5-2.27,0,0-.01,0-.02-.01h0c-1.21-.83-2.47-1.72-3.74-2.66-5.98-4.43-12.47-10.24-18.29-17.69-1.64-2.1-3.41-4.57-5.08-7.11-.53-.81-1.04-1.62-1.54-2.43-3.08-5.03-5.43-10.01-5.23-12.73.04-.65.24-1.18.6-1.54.06-.07.13-.13.21-.18,1.79-1.31,6.36.62,11.38,3.46.66.37,1.33.76,2,1.17.58.34,1.15.69,1.73,1.05h0c1.17.73,2.34,1.47,3.47,2.21.2.14.41.27.61.4.88.58,1.74,1.15,2.55,1.7.68.45,1.34.9,1.96,1.32.24.16.48.32.72.49.75.5,1.5,1.01,2.26,1.53,1.2,1.54,2.41,3.11,3.6,4.73,1.09,1.47,2.15,2.93,3.17,4.37,1.85,2.63,3.59,5.21,5.22,7.73.17.26.34.52.51.78.28.45.57.89.85,1.34.66,1.06,1.31,2.1,1.94,3.13v.02s.02,0,.02,0c.11.05.23.12.33.18,2.52,1.59,3.77,4.08,4.38,6.75.34,1.48.48,3.01.54,4.47.06,1.65.01,3.2.02,4.5,0,.73.1,1.59.29,2.61,1.15,6.19,5.71,18.02,13.71,38.73,2.79,7.25,6.97,17.37,12.82,29.41.08.17.17.34.25.52Z"/>
            </g>
            <path class="cls-9" d="m77.38,238.83c-.32.32-.65.64-.97.96-.41.4-.82.81-1.23,1.21-.31.3-.62.61-.93.91-.6.61-1.21,1.21-1.82,1.81-.04.04-.08.08-.12.12-.04.04-.09.08-.13.13,0,0,0,0,0,0-.69.68-1.67,1.64-2.73,2.68-1.43,1.4-3.01,2.95-4.23,4.15-.51.51-.97.95-1.32,1.3-.21-.11-.42-.21-.62-.33-1.69-.92-3.23-2.05-4.7-3.26-.49-.4-.98-.82-1.46-1.24-2.42-2.12-4.73-4.38-7.36-6.22-.94-.66-1.94-1.27-2.98-1.79-.16-.08-.33-.17-.5-.25-2-1.01-4.97-2.5-7.68-3.87-.05-.03-.1-.05-.15-.07t0,0c-1.28-.64-2.49-1.25-3.52-1.77-.39-.2-.76-.38-1.09-.55l1.48-.46h0c1.08-.33,2.16-.67,3.23-1.01.19-.06.39-.12.58-.18h0s0,0,0,0c.28-.09.55-.17.83-.26.16-.05.33-.1.49-.15.65-.2,1.31-.41,1.96-.61.04-.01.08-.03.12-.04.16-.05.32-.1.48-.15.15-.05.3-.09.45-.14.45-.14.9-.28,1.35-.42,0,0,.02,0,.03,0,.16-.05.32-.1.48-.15.46-.14.92-.29,1.38-.43.08-.24.15-.49.23-.74.07-.2.12-.39.19-.59.09-.31.18-.62.26-.94.07-.23.13-.45.19-.69l.14-.54c.02-.06.03-.13.05-.19.04-.16.08-.33.12-.49.1-.43.2-.86.28-1.31.02-.06.03-.13.04-.19.26-1.25.47-2.57.63-3.95.04-.33.09-.68.12-1.02.07-.73.13-1.46.17-2.16,0-.09.01-.18.01-.26.03-.44.04-.88.05-1.31,0-.1,0-.2,0-.3,0-.42.01-.83.01-1.24,0-.54,0-1.07-.02-1.59.56-.17,1.41-.39,2.47-.52,1.01-.13,2.2-.17,3.52-.02.17.02.35.05.53.08h0c.33.05.68.12,1.02.19,1.86.44,3.61,1.27,5.15,2.36.06.04.1.07.15.12,1.41,1.05,2.62,2.34,3.52,3.79,0,0,.01.02.02.03.18.28.34.57.49.87h0c.42.81.74,1.67.96,2.55,0,.09,0,.18,0,.27-.02,1.35-.05,2.7-.07,4.06-.01.69-.02,1.37-.03,2.06-.01.26-.01.52-.02.79-.02,1.41-.05,2.82-.07,4.23.83.53,1.66,1.07,2.49,1.61.02.01.05.03.07.04.48.31.97.62,1.45.93.04.03.08.05.12.08.05.03.11.07.16.1.36.22.71.45,1.06.67l.16.1.35.23c.33.2.65.41.98.61.71.45,1.42.9,2.13,1.35.07.04.15.09.26.16.03.02.06.04.09.05.17.11.34.22.51.33.25.16.5.32.75.47Z"/>
            <path class="cls-9" d="m78.13,225.03c-.1.01-.2.03-.29.03-.09.01-.18.02-.26.03-.4.05-.81.09-1.22.13-.15.01-.3.03-.46.04-.55.04-1.11.08-1.67.1-.7.03-1.4.05-2.11.04-.38,0-.77,0-1.15-.02-.39-.01-.78-.03-1.16-.06-.36-.03-.72-.05-1.08-.09-.6-.06-1.21-.13-1.81-.22-1.25-.18-2.49-.43-3.7-.75-.91-.24-1.81-.52-2.69-.85-2.02-.74-3.95-1.72-5.74-2.97-1.02-.55-2.05-1.08-3.1-1.54-.94-.91-.77-2.2-.51-3.51.12-.64.26-1.29.3-1.9,0-.14.01-.28,0-.42-.27,0-.64-.02-1.08-.06-.12-.01-.25-.03-.39-.04-.27-.03-.56-.08-.85-.14-.28-.06-.57-.13-.87-.22-.46-.13-.94-.31-1.42-.53-.03-.01-.06-.03-.1-.05-.1-.05-.2-.1-.3-.15-.12-.06-.23-.13-.35-.2-.88-.53-1.54-1.14-2.03-1.77-1.29-1.6-1.5-3.33-1.6-4.09-.05-.39-.09-.82-.1-1.26,0,0,0,0,0,0t0,0h0c0-.13-.01-.27-.01-.4,0-.02,0-.05,0-.08,0-.07.01-.13.01-.19,0-.11.01-.22.03-.33.02-.11.03-.22.07-.32,0-.03,0-.07.03-.1.02-.1.05-.2.09-.3.08-.2.18-.39.31-.56.03-.04.07-.08.11-.12.02-.02.04-.04.06-.06.02-.02.05-.05.07-.07.03-.03.07-.06.1-.09.04-.03.08-.05.12-.08.02-.01.03-.02.05-.03h0s.1-.06.16-.09c.08-.04.16-.07.24-.11.09-.03.19-.07.3-.09.04-.01.07-.02.11-.03.05-.01.11-.02.16-.03.02,0,.05-.01.07-.01.04,0,.09-.01.14-.02.05,0,.09-.01.14-.02.06,0,.13-.01.2-.01,0,0,.01,0,.02,0,.06,0,.12,0,.18,0,.05,0,.1,0,.15,0,.03,0,.06,0,.08,0,.03,0,.06,0,.09,0,0,0,.02,0,.02,0,.02,0,.05,0,.07,0,.07,0,.14,0,.21.02.08,0,.16.02.24.03.03,0,.06,0,.09,0,.04,0,.08.01.12.02.02,0,.04,0,.06,0,.06,0,.12.02.18.03.08.02.16.03.25.05.05.01.11.03.16.04.05.01.1.02.15.04.16.04.33.09.49.14.03,0,.06.02.09.03.08.03.15.05.23.08.05.02.1.04.15.06.04.01.08.03.11.04.06.03.13.05.19.08.03.01.07.03.1.04.02,0,.03.01.05.02.03.02.07.03.1.05.02,0,.03.02.05.02.05.02.1.05.15.07.08.04.16.08.25.12.01,0,.02.01.03.02.07.03.13.07.2.1.09.05.18.1.27.15.06.03.12.07.18.1.07.04.14.08.21.12.08.05.16.09.24.14.1.06.2.13.3.19.08.06.16.11.25.17h0c.08.06.16.12.24.18h0c.08.24.16.47.24.71h0s.01.03.01.03h0s0,.02,0,.02c.04.14.09.27.13.4,0,.03.02.07.03.1.01.03.02.06.03.09,0,0,0,.02.01.03.01.03.02.07.03.1.01.04.02.07.03.11l.03.1.02.05h0s.14.41.14.41c0,0,0,0,0,.01.01.04.03.08.04.12.03.08.06.16.08.24h0s.03.07.03.11c0,0,0,0,0,0,0,0,0,0,0,0,0,0,0,0,0,0,.02.04.03.09.04.13h0s0,.01,0,.02h0c.05.14.09.28.14.43.02,0,.05,0,.07-.01,0,0,0,0,.01,0,0,0,0,0,.01,0,0,0,0,0,.01,0,.22-.04.44-.09.66-.14.16-.03.32-.07.49-.1.1-.02.2-.04.3-.06.13-.03.26-.05.39-.08.28-.06.57-.12.85-.18.07-.02.15-.03.22-.05-.04-.1-.07-.2-.11-.31,0,0,0,0,0,0-.04-.13-.09-.26-.13-.39,0-.02,0-.03-.01-.05-.04-.13-.08-.25-.12-.38-.04-.14-.08-.27-.12-.41-.12-.39-.23-.79-.33-1.21-.02-.07-.03-.14-.05-.21-.02-.08-.04-.15-.06-.23h0s0-.02,0-.03c-.02-.08-.04-.16-.06-.24-.02-.11-.05-.22-.07-.33-.01-.08-.02-.14-.04-.22-.05-.25-.1-.5-.15-.75-.04-.24-.08-.48-.12-.73h0c0-.06-.02-.11-.03-.17-.02-.18-.05-.35-.07-.53-.03-.25-.06-.5-.08-.75-.03-.29-.05-.57-.07-.85-.09-1.35-.07-2.61,0-3.76.07-1.1,1.15-2.68,1.3-3.58,3.37-.4,4.39.25,5.15-1.41,1.67-3.6,6.87-4.15,7.4-3.44.04.06.11.15.21.28.52.71,1.68,2.34,1.92,2.66,1.07,1.41,2.15,2.83,3.21,4.25.03.04.06.08.08.11.21.28.43.56.63.84.03.04.06.08.09.11,0,0,.01.01.01.02.24.31.48.63.72.95.07.1.14.2.22.29.04.05.07.1.11.14h0s.03.04.04.06c0,.01,0,.03,0,.04l-.3,1.18s-.02.08-.03.13c-.02.09-.05.18-.07.27-.06.2-.1.4-.15.6l-.06.23c-.04.14-.07.26-.09.4-.01.04-.03.07-.04.11-.16.64-.33,1.28-.49,1.92.12.18.3.44.53.76.08.11.16.22.25.33.15.2.32.42.5.66.1.14.22.28.34.43.26.33.53.67.82,1.03,0,.01.01.02.02.03.32.4.66.82,1.01,1.23.06.08.13.16.19.24,1.71,2.06,3.48,4.05,4.09,4.44-.72.78-3.49,1.41-4.28,1.66,0,0,0,0-.01,0-.05.02-.09.03-.12.04.02.02.03.05.04.08.27.48.56,2.01.84,2.35-.11.03-.17.08-.22.14-.17.27.21.86.8,1.74,1.05,1.56,2.75,4.01,3.23,7.17.13,1.01-2.03,1.61-3.19,1.88Z"/>
            <path d="m82.07,306.23c-.18.62-.36,1.24-.54,1.84,0,0,0,0,0,0-.27.87-.55,1.72-.85,2.53-.42,1.16-.87,2.27-1.34,3.29-.37.8-.76,1.56-1.16,2.26-.55.95-1.13,1.8-1.74,2.53-.12.14-.23.27-.35.4,0,0,0,0,0,0-.58.64-1.19,1.17-1.83,1.59-.33.22-.67.4-1.02.55-.1.04-.2.08-.3.12-.64.24-1.32.36-2.02.36-.48,0-1.09.01-1.81.04-.02,0-.03,0-.05,0-.38.02-.78.04-1.21.07-.25.01-.5.03-.76.05-1.56.11-3.38.26-5.33.44-.36.03-.72.07-1.09.1-.62.06-1.24.12-1.88.18-1.49.15-3.01.3-4.52.46-.7.07-1.4.15-2.08.22-.25.03-.5.05-.75.08-.04,0-.08,0-.12.01-.86.08-1.7.17-2.51.26-1.98.21-3.79.39-5.26.54-1.11.11-2.02.19-2.67.25-.58.06-.95.08-1.08.06-.13-1.07-.3-2.17-.5-3.27t0,0c-.04-.22-.08-.44-.12-.66-.02-.11-.04-.22-.06-.33-.03-.19-.07-.38-.11-.58-1.34-6.86-3.74-14.29-6.33-21.9-.19-.55-.37-1.09-.56-1.64-1.59-4.6-3.23-9.25-4.76-13.87-.12-.36-.23-.71-.35-1.06-.16-.5-.33-1-.49-1.5-.76-2.41-1.5-4.81-2.16-7.18-1.35-4.87-2.52-9.64-3.54-14.26-.16-.75-.32-1.5-.47-2.24t0-.02c-.36-3.68-.32-6.82,0-9.49.02-.13.03-.25.05-.38.05-.37.11-.72.16-1.07.43-2.45,1.13-4.47,2.01-6.14.11-.21.23-.42.35-.62,3.38-5.72,9.11-7.01,13.52-7.31.09,0,.17-.01.26-.01h0c.73-.04,1.41-.06,2.04-.07h0c.42,0,.82,0,1.18,0,.24,0,.47,0,.69,0,1.03-.01,1.72-.06,1.91-.29h0s.05-.06.08-.09l.12-.14.09-.11s.03.03.03.03c.61.53,1.35,1.07,2.19,1.59.08.05.17.11.25.16.43.27.88.53,1.36.79.34.19.7.37,1.07.56,1.31.66,2.76,1.31,4.29,1.91,1.5.6,3.08,1.16,4.69,1.67.99.31,1.98.6,2.97.87,2.87.77,5.71,1.33,8.2,1.57.11.01.23.02.34.03.84.08,1.63.11,2.37.11,1.46-.01,2.72-.18,3.65-.56.68-.26,1.2-.64,1.52-1.13.07.04.15.09.26.16.03.02.06.04.09.05.41.24,1.08.64,2.29,1.29.23.12.47.25.74.4.42.23.9.47,1.43.75,1.05.55,1.97,1.1,2.76,1.68.93.66,1.7,1.35,2.35,2.06,0,0,0,0,0,0,.79.85,1.39,1.73,1.89,2.65.6,1.1,1.05,2.26,1.44,3.49.09,2.02.18,4.05.26,6.07.02.4.03.81.05,1.21.08,1.92.16,3.85.24,5.77.06,1.55.13,3.1.19,4.65.06,1.43.12,2.86.19,4.29-.18.13-.35.27-.53.4-.79.59-1.59,1.19-2.4,1.79-.03.37-.08.8-.12,1.28-.2,2.03-.52,4.98-.91,8.52-.04.34-.07.68-.11,1.02-.02.21-.05.42-.07.63-.22,1.86-.48,3.83-.79,5.86-.06.41-.12.83-.19,1.25-.28,1.8-.6,3.63-.96,5.44-.13.69-.27,1.38-.42,2.06-.03.12-.05.25-.08.36-.1.45-.2.89-.3,1.33-.31,1.35-.65,2.67-1.01,3.95Z"/>
            <path class="cls-13" d="m52.01,206.86s.07-.02.11-.02c-.02.07-.04.12-.05.16-.25-.57-1.07-2.2-3.11-3.2-.54-.27-3.49-1.71-5.54-.33-.43.29-.78.67-1.02,1.11-.05-1.05.12-2.14,1.05-2.72,1.52-.91,4.66-.31,7.48,1.77.36,1.08.73,2.15,1.08,3.23Z"/>
            <path d="m94.98,282.2c-.27.89-.85,1.64-1.57,2.25-1.44,1.23-3.41,1.91-4.37,2.21-.21-.04-.43-.09-.64-.13-.83-.17-1.69-.36-2.58-.55-1.28-.28-2.62-.58-4.01-.9-.53-.12-1.06-.25-1.6-.38-1.01-.24-2.05-.5-3.11-.76-3.09-.77-6.37-1.64-9.76-2.61-.78-.22-1.56-.45-2.36-.68-2.11-.62-4.26-1.29-6.43-2-1.35-.44-2.72-.9-4.09-1.38-.35-.12-.7-.24-1.05-.37-.45-.16-.91-.33-1.37-.49-.23-.08-.46-.17-.69-.25-1.24-.46-2.51-.96-3.8-1.52-.79-.34-1.6-.69-2.41-1.08t0,0c-1.09-.51-2.19-1.07-3.31-1.68-.71-.39-1.42-.8-2.14-1.23-.26-.16-.52-.32-.78-.48-.13-.09-.27-.17-.4-.26h0c-.43-.27-.86-.56-1.29-.85-.07-.04-.14-.09-.2-.13-.54-.37-1.08-.75-1.63-1.15-.8-.59-1.52-1.16-2.16-1.69-.28-.23-.54-.45-.79-.66-.29-.24-.55-.48-.8-.7-.16-.15-.32-.29-.47-.42-.86-.81-1.43-1.4-1.72-1.71-2.09-2.23-3.69-4.48-4.92-6.58-1.64-2.8-2.62-5.35-3.21-7.29,0,0,0-.01,0-.02.03,0-.14-.87-.36-1.92-.01-.05-.02-.09-.03-.14-.11-.52-.22-1.09-.33-1.6-.21-1.04-.38-1.89-.35-1.9.02-1.48.18-2.8.46-3.97h0c.06-.28.14-.55.22-.81h0c.03-.11.06-.22.1-.32.21-.63.46-1.21.74-1.74h0c.59-1.11,1.34-2.03,2.2-2.77.48-.42.99-.78,1.54-1.09,3.06-1.76,7.08-1.99,10.96-1.47.06,0,.12.02.19.02.63.09,1.26.2,1.88.33.29.06.58.12.87.19,1.09.25,2.15.55,3.14.87,3.97,1.3,6.98,3.06,7.38,4.1.01.01.03.03.04.04,0,0,0,0,.01.01,1.59,1.59,3.28,3.24,5.02,4.9.64.61,1.28,1.22,1.93,1.83,2.61,2.46,5.29,4.91,7.87,7.23.13.12.26.23.39.35.77.69,1.52,1.36,2.26,2.01.44.39.88.78,1.32,1.16t0,0c.37.33.74.65,1.1.97h0s0,0,0,0c1.38,1.21,2.69,2.33,3.9,3.35t0,0c2.19,1.85,4.03,3.34,5.31,4.31.2.15.38.29.55.41.47.34.92.69,1.37,1.06.26.21.52.43.77.66.34.3.68.61,1.03.93.39.36.78.74,1.18,1.15h0c.46.46.93.95,1.42,1.47.13.14.27.29.4.44.41.44.83.9,1.28,1.4.12.13.25.27.37.41h0c.61.68,1.26,1.41,1.95,2.19.33.37.66.75,1.01,1.14.2.23.4.46.61.69.47.53.9,1.03,1.29,1.49.78.94,1.41,1.76,1.87,2.51.08.14.16.27.23.4.23.42.4.83.51,1.22.19.65.2,1.26.04,1.88,0,.04-.02.09-.03.14Z"/>
            <path d="m132.23,248.75c-.11.19-.21.4-.32.6-.08.18-.17.35-.27.53-1.93,3.72-4.74,8.31-8.77,13-.54.63-1.11,1.27-1.7,1.91-1.4,1.5-2.92,3-4.58,4.48-.64.57-1.31,1.14-1.99,1.71-3.45,2.84-8.56,6.3-13.42,9.22-.15.09-.3.18-.45.27-1.79,1.07-3.54,2.05-5.15,2.91-.76.4-1.48.76-2.17,1.1-1.69.81-3.13,1.41-4.19,1.7-.26.07-.52.1-.77.08-.89-.04-1.76-.51-2.55-.88-.63-.3-1.21-.53-1.69-.43-.88.19-1.68.22-2.39.15-.59-.06-1.13-.19-1.6-.38-1.96-.76-2.93-2.36-2.82-3.07.21-1.31.74-2.63,1.09-3.42.09-.2.17-.35.22-.48.89-.9,1.92-1.92,3.12-3.02.34-.32.7-.65,1.07-.98,1.25-1.13,2.66-2.34,4.21-3.59.84-.68,1.74-1.38,2.67-2.08.33-.25.67-.5,1.02-.76.23-.17.46-.34.7-.51,2.06-1.48,4.01-2.77,7.31-4.74,2.41-1.44,5.55-3.23,9.99-5.73.34-.19.68-.38,1.03-.57,4.99-2.79,11.33-6.3,18.78-10.31.03.04.09.09.13.12,0,.01.02.02.02.02.11.1.21.2.32.3.79.72,1.58,1.43,2.37,2.15.23.21.48.43.71.65h0s0,0,0,0c.02.02.05.04.07.07Z"/>
            <path class="cls-30" d="m132.23,248.75c-.11.19-.21.4-.32.6-.08.18-.17.35-.27.53-1.93,3.72-4.74,8.31-8.77,13-.54.63-1.11,1.27-1.7,1.91-.91-.3-1.88-.69-2.87-1.19-.48-.24-.96-.5-1.45-.79-3.62-2.17-5.79-4.9-7.04-7.05,4.99-2.79,11.33-6.3,18.78-10.31.03.04.09.09.13.12,0,.01.02.02.02.02.11.1.21.2.32.3.79.72,1.58,1.43,2.37,2.15.23.21.48.43.71.65h0s0,0,0,0c.02.02.05.04.07.07Z"/>
            <path class="cls-30" d="m161.55,263.37s-.12.05-.34.16c-1.6.74-8.57,3.93-14.73,6.37-2,.79-3.9,1.5-5.52,2.02-.53-.69-.93-1.31-1.22-1.83-.44-.77-2.01-3.67-1.96-7.65,0-.45.03-.87.07-1.27.05,0,.09-.01.14-.01,1.74-.18,3.6-.37,5.59-.57.65-.07,1.32-.13,2.01-.2,1.93-.19,3.97-.39,6.11-.59,1.69-.16,3.45-.32,5.27-.49.97-.09,1.95-.18,2.95-.27.02,0,.03,0,.05,0,.12.3.22.6.33.91.02.04.03.09.05.14.21.57.42,1.14.63,1.71.07.19.14.39.21.58.12.33.25.65.36.97v.02Z"/>
            <path class="cls-20" d="m159.94,260.27c-1.34.3-3.11.58-5.19.55-.02,0-.04,0-.06,0-1.11-.02-2.12-.12-2.99-.26-.05-5.41-.11-10.83-.16-16.24.93-.18,1.98-.33,3.13-.44.2-.02.41-.04.62-.05,1.59-.12,3.04-.12,4.29-.05.12,5.5.24,11,.35,16.5Z"/>
            <path class="cls-21" d="m156.99,260.42c-.66.15-1.43.29-2.29.4-1.11-.02-2.12-.12-2.99-.26-.05-5.41-.11-10.83-.16-16.24.93-.18,1.98-.33,3.13-.44.69,0,1.35.01,1.96.04.12,5.5.24,11,.35,16.5Z"/>
            <path class="cls-10" d="m150.23,246.31s0-.01,0-.01c0,0,0,0,0-.02h0s0-.02,0-.02c0,0,0,0,0-.01,0-.04,0-.07,0-.11,0-.02,0-.04,0-.06,0,0,0-.01,0-.02,0,0,0-.02,0-.02,0-.03,0-.06,0-.09,0-.04,0-.09.01-.14,0-.08.01-.17.02-.25,0-.01,0-.03,0-.04,0-.09.02-.18.03-.28.02-.19.05-.4.08-.61,0-.03.01-.07.01-.11.02-.13.04-.25.06-.39-.13-.04-.25-.09-.38-.14.12,0,.26,0,.4,0,.02-.16.05-.31.08-.47,0-.05.02-.09.02-.14.02-.14.05-.27.07-.41.02-.1.04-.21.07-.32,0-.04.01-.07.02-.1.02-.07.03-.14.05-.22.02-.07.03-.14.05-.21.02-.08.04-.15.05-.23l.03-.1.03-.11h0s.01-.06.02-.08c-.14-.01-.29-.02-.45-.04.16-.01.31-.02.47-.04.03-.1.05-.19.08-.29.02-.08.04-.15.06-.23.01-.05.03-.1.05-.15,0-.04.02-.08.03-.12.02-.08.05-.16.07-.24,0-.03.02-.05.03-.08.04-.13.08-.25.12-.37.04-.12.09-.25.13-.37,0,0,0-.02,0-.02.04-.12.09-.23.14-.35.1-.25.2-.5.31-.75-.33-.04-.65-.07-.96-.09-.21-.02-.42-.03-.61-.05-.1.56-.2,1.16-.31,1.82-.05.31-.1.6-.15.89-.16.95-.29,1.77-.41,2.49-.22,1.35-.36,2.3-.44,2.96.35.01.7.03,1.04.04,0-.09.01-.19.02-.3Zm0,0s0-.01,0-.01c0,0,0,0,0-.02,0,0,0,0,0-.01h0s0,0,0,0c0,0,0,0,0-.01,0-.02,0-.03,0-.04,0-.02,0-.04,0-.06,0-.02,0-.04,0-.06,0,0,0-.01,0-.02,0,0,0-.02,0-.02,0,0,0-.01,0-.02,0,0,0,0,0,0h0s0-.05,0-.06c0-.04,0-.09.01-.14,0-.08.01-.17.02-.25,0-.01,0-.03,0-.04,0-.09.02-.18.03-.28.02-.19.05-.4.08-.61,0-.03.01-.07.01-.11.02-.13.04-.25.06-.39-.13-.04-.25-.09-.38-.14.12,0,.26,0,.4,0,.02-.16.05-.31.08-.47,0-.05.02-.09.02-.14.02-.14.05-.27.07-.41.02-.1.04-.21.07-.32,0-.04.01-.07.02-.1.02-.07.03-.14.05-.22.02-.07.03-.14.05-.21.02-.08.04-.15.05-.23l.03-.1.03-.11h0s.01-.06.02-.08c-.14-.01-.29-.02-.45-.04.16-.01.31-.02.47-.04.03-.1.05-.19.08-.29.02-.08.04-.15.06-.23.01-.05.03-.1.05-.15,0-.04.02-.08.03-.12.02-.08.05-.16.07-.24,0-.03.02-.05.03-.08.04-.13.08-.25.12-.37.04-.12.09-.25.13-.37,0,0,0-.02,0-.02.04-.12.09-.23.14-.35.1-.25.2-.5.31-.75-.33-.04-.65-.07-.96-.09-.21-.02-.42-.03-.61-.05-.1.56-.2,1.16-.31,1.82-.05.31-.1.6-.15.89-.16.95-.29,1.77-.41,2.49-.22,1.35-.36,2.3-.44,2.96.35.01.7.03,1.04.04,0-.09.01-.19.02-.3Zm6.37-3.3c-.19-.28-.66-.56-1.55-.78-1.91-.49-2.72-.53-4.05-.62-.14-.01-.29-.02-.45-.04.16-.01.31-.02.47-.04,2.05-.14,3.63.09,4.72.33,2.82.62-.54-2.8-1.57-2.99-.3-.05-.6-.1-.88-.15,1.17-.54,2.28-2.78,1.23-3.87-.4-.41-1.1-.66-2.22-.6-.18.04-.36.09-.56.14-.17.04-.36.09-.55.14-.17.04-.34.09-.52.14-.57.15-1.19.33-1.85.54-.27.08-.54.17-.82.26-.06.02-.13.04-.19.06-2.69.89-4.81,1.84-6.15,2.49-.45.22-.82.41-1.08.54-.4.21-.72.38-1.03.56-.85.49-1.68,1.03-3.88,2.38-2.66,1.64-4.91,2.98-6.58,3.96,0,.14,0,.27,0,.39h0c.04,1.8.49,2.81,1.03,2.97.07.03.15.03.24.02.64-.08,1.17-.13,1.82-.19h0c.94-.09,2.11-.21,4.14-.52,1.95-.29,1.84-.03,4.65-.34,1.97-.22,2.4-.68,3.27-.97.19-.07.41-.12.66-.16.13-.02.27-.04.43-.06.14-.01.28-.02.43-.03.09,0,.18-.02.27-.02.34-.02.68-.03,1.03-.03.71-.01,1.42,0,2.12.03.35.01.7.03,1.04.04.47.02.93.05,1.36.07,1.75.08,3.07.11,3.29-.25.68-1.12-1.32-1.44-3.31-1.97-.36-.1-.73-.2-1.07-.32-.13-.04-.25-.09-.38-.14.12,0,.26,0,.4,0,.56,0,1.27.04,2.1.14.38.04.78.1,1.19.17.92.15,1.9-.05,2.45-.4.07-.05.14-.09.19-.14.25-.22.34-.49.16-.75Zm-7.17-4.88c.41-.2.8-.39,1.2-.57.11-.05.23-.11.34-.16.61-.28,1.21-.57,1.86-.9-.93,1-1.03,1.65-.75,2.01h0s.03.04.05.06c-.03,0-.05,0-.07,0-.33-.04-.65-.07-.96-.09-.21-.02-.42-.03-.61-.05-.4-.03-.78-.04-1.15-.05-.12,0-.24,0-.35,0,.15-.08.3-.16.45-.23Zm.8,8.18s0-.01,0-.01c0,0,0,0,0-.02,0,0,0,0,0-.01h0s0,0,0,0c0,0,0,0,0-.01,0-.02,0-.03,0-.04,0-.02,0-.04,0-.06,0-.02,0-.04,0-.06,0,0,0-.01,0-.02,0,0,0-.02,0-.02,0,0,0-.01,0-.02,0,0,0,0,0,0h0s0-.05,0-.06c0-.04,0-.09.01-.14,0-.08.01-.17.02-.25,0-.01,0-.03,0-.04,0-.09.02-.18.03-.28.02-.19.05-.4.08-.61,0-.03.01-.07.01-.11.02-.13.04-.25.06-.39-.13-.04-.25-.09-.38-.14.12,0,.26,0,.4,0,.02-.16.05-.31.08-.47,0-.05.02-.09.02-.14.02-.14.05-.27.07-.41.02-.1.04-.21.07-.32,0-.04.01-.07.02-.1.02-.07.03-.14.05-.22.02-.07.03-.14.05-.21.02-.08.04-.15.05-.23l.03-.1.03-.11h0s.01-.06.02-.08c-.14-.01-.29-.02-.45-.04.16-.01.31-.02.47-.04.03-.1.05-.19.08-.29.02-.08.04-.15.06-.23.01-.05.03-.1.05-.15,0-.04.02-.08.03-.12.02-.08.05-.16.07-.24,0-.03.02-.05.03-.08.04-.13.08-.25.12-.37.04-.12.09-.25.13-.37,0,0,0-.02,0-.02.04-.12.09-.23.14-.35.1-.25.2-.5.31-.75-.33-.04-.65-.07-.96-.09-.21-.02-.42-.03-.61-.05-.1.56-.2,1.16-.31,1.82-.05.31-.1.6-.15.89-.16.95-.29,1.77-.41,2.49-.22,1.35-.36,2.3-.44,2.96.35.01.7.03,1.04.04,0-.09.01-.19.02-.3Zm0,0s0-.01,0-.01c0,0,0,0,0-.02,0,0,0,0,0-.01h0s0,0,0,0c0,0,0,0,0-.01,0-.02,0-.03,0-.04,0-.02,0-.04,0-.06,0-.02,0-.04,0-.06,0,0,0-.01,0-.02,0,0,0-.02,0-.02,0,0,0-.01,0-.02,0,0,0,0,0,0h0s0-.05,0-.06c0-.04,0-.09.01-.14,0-.08.01-.17.02-.25,0-.01,0-.03,0-.04,0-.09.02-.18.03-.28.02-.19.05-.4.08-.61,0-.03.01-.07.01-.11.02-.13.04-.25.06-.39-.13-.04-.25-.09-.38-.14.12,0,.26,0,.4,0,.02-.16.05-.31.08-.47,0-.05.02-.09.02-.14.02-.14.05-.27.07-.41.02-.1.04-.21.07-.32,0-.04.01-.07.02-.1.02-.07.03-.14.05-.22.02-.07.03-.14.05-.21.02-.08.04-.15.05-.23l.03-.1.03-.11h0s.01-.06.02-.08c-.14-.01-.29-.02-.45-.04.16-.01.31-.02.47-.04.03-.1.05-.19.08-.29.02-.08.04-.15.06-.23.01-.05.03-.1.05-.15,0-.04.02-.08.03-.12.02-.08.05-.16.07-.24,0-.03.02-.05.03-.08.04-.13.08-.25.12-.37.04-.12.09-.25.13-.37,0,0,0-.02,0-.02.04-.12.09-.23.14-.35.1-.25.2-.5.31-.75-.33-.04-.65-.07-.96-.09-.21-.02-.42-.03-.61-.05-.1.56-.2,1.16-.31,1.82-.05.31-.1.6-.15.89-.16.95-.29,1.77-.41,2.49-.22,1.35-.36,2.3-.44,2.96.35.01.7.03,1.04.04,0-.09.01-.19.02-.3Z"/>
            <path class="cls-10" d="m173.83,241.9s0-.01,0-.01c0,0,0,0,0-.02h0s0-.02,0-.02c0,0,0,0,0-.01,0-.04,0-.07,0-.11,0-.02,0-.04,0-.06,0,0,0-.01,0-.02,0,0,0-.02,0-.02,0-.03,0-.06,0-.09,0-.04,0-.09.01-.14,0-.08.01-.17.02-.25,0-.01,0-.03,0-.04,0-.09.02-.18.03-.28.02-.19.05-.4.08-.61,0-.03.01-.07.01-.11.02-.13.04-.25.06-.39-.13-.04-.25-.09-.38-.14.12,0,.26,0,.4,0,.02-.16.05-.31.08-.47,0-.05.02-.09.02-.14.02-.14.05-.27.07-.41.02-.1.04-.21.07-.32,0-.04.01-.07.02-.1.02-.07.03-.14.05-.22.02-.07.03-.14.05-.21.02-.08.04-.15.05-.23l.03-.1.03-.11h0s.01-.06.02-.08c-.14-.01-.29-.02-.45-.04.16-.01.31-.02.47-.04.03-.1.05-.19.08-.29.02-.08.04-.15.06-.23.01-.05.03-.1.05-.15,0-.04.02-.08.03-.12.02-.08.05-.16.07-.24,0-.03.02-.05.03-.08.04-.13.08-.25.12-.37.04-.12.09-.25.13-.37,0,0,0-.02,0-.02.04-.12.09-.23.14-.35.1-.25.2-.5.31-.75-.33-.04-.65-.07-.96-.09-.21-.02-.42-.03-.61-.05-.1.56-.2,1.16-.31,1.82-.05.31-.1.6-.15.89-.16.95-.29,1.77-.41,2.49-.22,1.35-.36,2.3-.44,2.96.35.01.7.03,1.04.04,0-.09.01-.19.02-.3Zm0,0s0-.01,0-.01c0,0,0,0,0-.02,0,0,0,0,0-.01h0s0,0,0,0c0,0,0,0,0-.01,0-.02,0-.03,0-.04,0-.02,0-.04,0-.06,0-.02,0-.04,0-.06,0,0,0-.01,0-.02,0,0,0-.02,0-.02,0,0,0-.01,0-.02,0,0,0,0,0,0h0s0-.05,0-.06c0-.04,0-.09.01-.14,0-.08.01-.17.02-.25,0-.01,0-.03,0-.04,0-.09.02-.18.03-.28.02-.19.05-.4.08-.61,0-.03.01-.07.01-.11.02-.13.04-.25.06-.39-.13-.04-.25-.09-.38-.14.12,0,.26,0,.4,0,.02-.16.05-.31.08-.47,0-.05.02-.09.02-.14.02-.14.05-.27.07-.41.02-.1.04-.21.07-.32,0-.04.01-.07.02-.1.02-.07.03-.14.05-.22.02-.07.03-.14.05-.21.02-.08.04-.15.05-.23l.03-.1.03-.11h0s.01-.06.02-.08c-.14-.01-.29-.02-.45-.04.16-.01.31-.02.47-.04.03-.1.05-.19.08-.29.02-.08.04-.15.06-.23.01-.05.03-.1.05-.15,0-.04.02-.08.03-.12.02-.08.05-.16.07-.24,0-.03.02-.05.03-.08.04-.13.08-.25.12-.37.04-.12.09-.25.13-.37,0,0,0-.02,0-.02.04-.12.09-.23.14-.35.1-.25.2-.5.31-.75-.33-.04-.65-.07-.96-.09-.21-.02-.42-.03-.61-.05-.1.56-.2,1.16-.31,1.82-.05.31-.1.6-.15.89-.16.95-.29,1.77-.41,2.49-.22,1.35-.36,2.3-.44,2.96.35.01.7.03,1.04.04,0-.09.01-.19.02-.3Zm6.37-3.3c-.19-.28-.66-.56-1.55-.78-1.91-.49-2.72-.53-4.05-.62-.14-.01-.29-.02-.45-.04.16-.01.31-.02.47-.04,2.05-.14,3.63.09,4.72.33,2.82.62-.54-2.8-1.57-2.99-.3-.05-.6-.1-.88-.15,1.17-.54,2.28-2.78,1.23-3.87-.4-.41-1.1-.66-2.22-.6-.18.04-.36.09-.56.14-.17.04-.36.09-.55.14-.17.04-.34.09-.52.14-.57.15-1.19.33-1.85.54-.27.08-.54.17-.82.26-.06.02-.13.04-.19.06-2.69.89-4.81,1.84-6.15,2.49-.45.22-.82.41-1.08.54-.4.21-.72.38-1.03.56-.85.49-1.68,1.03-3.88,2.38-2.66,1.64-4.91,2.98-6.58,3.96,0,.14,0,.27,0,.39h0c.04,1.8.49,2.81,1.03,2.97.07.03.15.03.24.02.64-.08,1.17-.13,1.82-.19h0c.94-.09,2.11-.21,4.14-.52,1.95-.29,1.84-.03,4.65-.34,1.97-.22,2.4-.68,3.27-.97.19-.07.41-.12.66-.16.13-.02.27-.04.43-.06.14-.01.28-.02.43-.03.09,0,.18-.02.27-.02.34-.02.68-.03,1.03-.03.71-.01,1.42,0,2.12.03.35.01.7.03,1.04.04.47.02.93.05,1.36.07,1.75.08,3.07.11,3.29-.25.68-1.12-1.32-1.44-3.31-1.97-.36-.1-.73-.2-1.07-.32-.13-.04-.25-.09-.38-.14.12,0,.26,0,.4,0,.56,0,1.27.04,2.1.14.38.04.78.1,1.19.17.92.15,1.9-.05,2.45-.4.07-.05.14-.09.19-.14.25-.22.34-.49.16-.75Zm-7.17-4.88c.41-.2.8-.39,1.2-.57.11-.05.23-.11.34-.16.61-.28,1.21-.57,1.86-.9-.93,1-1.03,1.65-.75,2.01h0s.03.04.05.06c-.03,0-.05,0-.07,0-.33-.04-.65-.07-.96-.09-.21-.02-.42-.03-.61-.05-.4-.03-.78-.04-1.15-.05-.12,0-.24,0-.35,0,.15-.08.3-.16.45-.23Zm.8,8.18s0-.01,0-.01c0,0,0,0,0-.02,0,0,0,0,0-.01h0s0,0,0,0c0,0,0,0,0-.01,0-.02,0-.03,0-.04,0-.02,0-.04,0-.06,0-.02,0-.04,0-.06,0,0,0-.01,0-.02,0,0,0-.02,0-.02,0,0,0-.01,0-.02,0,0,0,0,0,0h0s0-.05,0-.06c0-.04,0-.09.01-.14,0-.08.01-.17.02-.25,0-.01,0-.03,0-.04,0-.09.02-.18.03-.28.02-.19.05-.4.08-.61,0-.03.01-.07.01-.11.02-.13.04-.25.06-.39-.13-.04-.25-.09-.38-.14.12,0,.26,0,.4,0,.02-.16.05-.31.08-.47,0-.05.02-.09.02-.14.02-.14.05-.27.07-.41.02-.1.04-.21.07-.32,0-.04.01-.07.02-.1.02-.07.03-.14.05-.22.02-.07.03-.14.05-.21.02-.08.04-.15.05-.23l.03-.1.03-.11h0s.01-.06.02-.08c-.14-.01-.29-.02-.45-.04.16-.01.31-.02.47-.04.03-.1.05-.19.08-.29.02-.08.04-.15.06-.23.01-.05.03-.1.05-.15,0-.04.02-.08.03-.12.02-.08.05-.16.07-.24,0-.03.02-.05.03-.08.04-.13.08-.25.12-.37.04-.12.09-.25.13-.37,0,0,0-.02,0-.02.04-.12.09-.23.14-.35.1-.25.2-.5.31-.75-.33-.04-.65-.07-.96-.09-.21-.02-.42-.03-.61-.05-.1.56-.2,1.16-.31,1.82-.05.31-.1.6-.15.89-.16.95-.29,1.77-.41,2.49-.22,1.35-.36,2.3-.44,2.96.35.01.7.03,1.04.04,0-.09.01-.19.02-.3Zm0,0s0-.01,0-.01c0,0,0,0,0-.02,0,0,0,0,0-.01h0s0,0,0,0c0,0,0,0,0-.01,0-.02,0-.03,0-.04,0-.02,0-.04,0-.06,0-.02,0-.04,0-.06,0,0,0-.01,0-.02,0,0,0-.02,0-.02,0,0,0-.01,0-.02,0,0,0,0,0,0h0s0-.05,0-.06c0-.04,0-.09.01-.14,0-.08.01-.17.02-.25,0-.01,0-.03,0-.04,0-.09.02-.18.03-.28.02-.19.05-.4.08-.61,0-.03.01-.07.01-.11.02-.13.04-.25.06-.39-.13-.04-.25-.09-.38-.14.12,0,.26,0,.4,0,.02-.16.05-.31.08-.47,0-.05.02-.09.02-.14.02-.14.05-.27.07-.41.02-.1.04-.21.07-.32,0-.04.01-.07.02-.1.02-.07.03-.14.05-.22.02-.07.03-.14.05-.21.02-.08.04-.15.05-.23l.03-.1.03-.11h0s.01-.06.02-.08c-.14-.01-.29-.02-.45-.04.16-.01.31-.02.47-.04.03-.1.05-.19.08-.29.02-.08.04-.15.06-.23.01-.05.03-.1.05-.15,0-.04.02-.08.03-.12.02-.08.05-.16.07-.24,0-.03.02-.05.03-.08.04-.13.08-.25.12-.37.04-.12.09-.25.13-.37,0,0,0-.02,0-.02.04-.12.09-.23.14-.35.1-.25.2-.5.31-.75-.33-.04-.65-.07-.96-.09-.21-.02-.42-.03-.61-.05-.1.56-.2,1.16-.31,1.82-.05.31-.1.6-.15.89-.16.95-.29,1.77-.41,2.49-.22,1.35-.36,2.3-.44,2.96.35.01.7.03,1.04.04,0-.09.01-.19.02-.3Z"/>
          </g>
          <g>
            <polygon class="cls-22" points="77.33 227.38 73.71 228.49 73.5 223.41 77.13 222.29 77.33 227.38"/>
            <g>
              <path class="cls-7" d="m82.14,223.96l-2.78-68.17c-.06-1.47.59-2.88,1.45-3.15h0c.86-.26,1.61.72,1.67,2.19l2.78,68.17"/>
              <path class="cls-22" d="m81.02,213.58c-.04-1.05.99-1.01,2.26-1.4l2.04-.62s.16,4.59.31,8.14.31,9.76-4.36,11.19l-7.02,2.15-.3-7.32,6.45-1.98c1.14-.35.93-2.37.56-11.56"/>
              <path class="cls-22" d="m76.24,228.72c.08,2.02-.81,3.96-2,4.32s-2.21-.98-2.29-3,.81-3.96,2-4.32,2.21.98,2.29,3.01Z"/>
              <path class="cls-8" d="m83.3,162.69c.08,1.88-.76,3.68-1.86,4.02h0c-1.1.34-2.06-.91-2.14-2.8l-.33-8.15c-.08-1.88.76-3.68,1.86-4.02h0c1.1-.34,2.06.92,2.14,2.8l.33,8.15Z"/>
            </g>
            <path class="cls-8" d="m76.97,216.9c.87-.27,1.62.72,1.68,2.2h0c.06,1.48-.59,2.9-1.46,3.17l-3.76,1.15c-.87.27-1.62-.72-1.68-2.2h0c-.06-1.48.59-2.9,1.46-3.17l3.76-1.15Z"/>
          </g>
          <g>
            <path class="cls-22" d="m51.8,200.67c.01.66-.45,1.24-1.04,1.3l-.9.4c-.59.06-3.14-.5-3.15-1.15h0c-.01-.66.45-1.24,1.04-1.3l2.97-.32c.59-.06,1.07.42,1.09,1.07h0Z"/>
            <path class="cls-8" d="m50.68,201.33c-.96.01-1.63.7-1.51,1.53.12.83,1,1.5,1.95,1.48"/>
            <g>
              <path class="cls-8" d="m72.33,208.32c-2.75-5.58-4.05-4.73-4.05-4.73,0,0-1.35-.54-3.7,5.65-.77,2.02-1.58,4.14-4.57,4.79h0l17.73-2.06s-.06,0-.09,0c-3.38.28-4.38-1.75-5.32-3.66Z"/>
              <path class="cls-22" d="m85.5,204.19c-.08-2.31-.12-3.54-.14-4.21-.07-2.2-1.31-6.52-8.67-5.65-7.36.87-8.67,1.02-8.67,1.02,0,0-1.31.16-8.67,1.03-7.36.87-8.3,5.45-8.23,7.65.02.67.06,1.91.14,4.21.17,5,4.92,6.4,8.3,5.88.16-.03.32-.06.47-.09l8.21-12.56,9.94,10.45c3.32-.47,7.49-2.97,7.33-7.73Z"/>
              <path class="cls-22" d="m60.02,214.03c2.99-.65,3.8-2.78,4.57-4.79,2.35-6.19,3.7-5.65,3.7-5.65,0,0,1.3-.85,4.05,4.73.94,1.91,1.94,3.94,5.32,3.66.03,0,.06,0,.09,0l.38-.05s.02,0,.03,0l-9.94-10.45-8.21,12.56Z"/>
              <path class="cls-22" d="m78.16,211.92h0s-.02,0-.03,0h.03Z"/>
              <path class="cls-8" d="m77.66,211.98s-12.82,1.61-17.64,2.05"/>
            </g>
            <path class="cls-7" d="m77.64,209.77c-2.2.18-2.69-.81-3.57-2.62-2.05-4.17-3.86-6.01-5.7-5.79-.05,0-.1.01-.14.02-.05,0-.1,0-.15.01-1.84.22-3.53,2.48-5.29,7.1-.77,2-1.19,3.11-3.38,3.45-.08.01-.16.02-.24.03-1.62.19-5.84-.14-5.96-3.95l-.13-4.21c-.09-2.87,2.17-4.73,6.35-5.23l8.65-1.03,8.7-1.04c4.19-.5,6.54.81,6.63,3.68l.13,4.21c.05,1.44-.49,2.62-1.63,3.6-1.05.91-2.57,1.56-4.04,1.73,0,0-.16.02-.24.02Z"/>
            <path class="cls-7" d="m68.05,197.56l8.7-1.04c4.19-.5,6.54.81,6.63,3.68l.13,4.21c.05,1.44-.49,2.62-1.63,3.6-1.05.91-2.57,1.56-4.04,1.73,0,0-.16.02-.24.02-2.2.18-2.69-.81-3.57-2.62-2.05-4.17-3.86-6.01-5.7-5.79-.05,0-.1.01-.14.02"/>
          </g>
        </g>
        <g>
          <path class="cls-3" d="m652.94,440.04l-12.11-4.32v-13.51l12.11-4.32c1.44-.52,2.96.56,2.96,2.1v17.95c0,1.54-1.52,2.61-2.96,2.1Z"/>
          <path class="cls-4" d="m640.82,428.97v6.75l12.11,4.32c1.45.52,2.96-.56,2.96-2.1v-8.98h-15.08Z"/>
          <polyline class="cls-16" points="615.6 466.9 609.39 452.16 596.67 461.82 598.67 445.94 582.83 447.94 592.47 435.19 592.47 422.75 582.83 410 598.67 412 596.67 396.12 609.39 405.78 615.6 391.04 621.8 405.78 634.52 396.12 632.53 412 648.36 410 638.73 422.75 638.73 435.19 648.36 447.94 632.53 445.94 634.52 461.82 621.8 452.16 615.6 466.9"/>
          <path class="cls-17" d="m615.6,398c-15.12,0-27.69,10.9-30.36,25.28l5.67,5.69-5.67,5.69c2.66,14.38,15.24,25.28,30.36,25.28,17.06,0,30.89-13.86,30.89-30.97s-13.83-30.97-30.89-30.97Z"/>
          <path class="cls-12" d="m646.48,428.97c0-17.1-13.83-30.97-30.89-30.97-15.12,0-27.69,10.9-30.36,25.28l5.67,5.69h55.57Z"/>
          <path class="cls-18" d="m622.9,416.32c6.6,6.62,6.6,17.34,0,23.96l-11.95-11.98,11.95-11.98Z"/>
          <path class="cls-19" d="m600.65,417.65c0,1.89-1.53,3.42-3.41,3.42s-3.41-1.53-3.41-3.42,1.53-3.42,3.41-3.42,3.41,1.53,3.41,3.42Z"/>
        </g>
        <g>
          <path class="cls-2" d="m700.12,298.9h-17.74l2.53-5.29c.62-1.3,1.93-2.13,3.37-2.13h15.39l-3.55,7.41Z"/>
          <path class="cls-11" d="m714.03,308.61c-5.94-7.71-14.09-12.39-23.09-12.39s-17.14,4.69-23.09,12.39h46.18Z"/>
          <path class="cls-23" d="m692.58,318.64h-7.1l1.99,4.16c.49,1.02,1.52,1.67,2.65,1.67h5.24l-2.79-5.83Z"/>
          <path class="cls-15" d="m667.85,308.61c5.94,7.71,14.09,12.39,23.09,12.39s17.14-4.69,23.09-12.39h-46.18Z"/>
          <path class="cls-26" d="m691.73,314.81c-3.97,0-7.19-3.23-7.19-7.21h7.19v7.21Z"/>
          <path class="cls-19" d="m679.71,304.27c0,.86-.69,1.56-1.55,1.56s-1.55-.7-1.55-1.56.69-1.56,1.55-1.56,1.55.7,1.55,1.56Z"/>
          <path class="cls-25" d="m712.34,313.07v-4.45h2.22c2.01,0,3.63,1.63,3.63,3.64v6.68h0c-3.23,0-5.85-2.63-5.85-5.86Z"/>
          <path class="cls-31" d="m712.34,304.16v4.45h2.22c2.01,0,3.63-1.63,3.63-3.64v-6.68h0c-3.23,0-5.85,2.63-5.85,5.86Z"/>
        </g>
        <g>
          <path class="cls-1" d="m700.75,183.34h7.22c0,4.98-4.04,9.02-9.02,9.02h-6.85v-.37c0-4.77,3.87-8.65,8.65-8.65Z" transform="translate(887.89 -512.19) rotate(90)"/>
          <path class="cls-27" d="m692.11,167.47h6.85c4.98,0,9.02,4.04,9.02,9.02h-7.22c-4.77,0-8.65-3.87-8.65-8.65v-.37h0Z" transform="translate(528.06 872.02) rotate(-90)"/>
          <polygon class="cls-29" points="655.9 179.92 695.53 214.03 695.53 145.8 655.9 179.92"/>
          <polygon class="cls-24" points="655.9 179.92 655.9 179.92 695.53 214.03 695.53 179.92 655.9 179.92"/>
          <path class="cls-19" d="m669.98,174.77c0,1.32-1.07,2.39-2.39,2.39s-2.39-1.07-2.39-2.39,1.07-2.39,2.39-2.39,2.39,1.07,2.39,2.39Z"/>
        </g>
        <text class="cls-32" transform="translate(189.43 92.05)"><tspan x="0" y="0">Coral Quest</tspan></text>
      </g>
    </g>
  </g>
</svg>