<?xml version="1.0" encoding="UTF-8"?>
<svg id="Layer_2" data-name="Layer 2" xmlns="http://www.w3.org/2000/svg" viewBox="0 0 72.52 75.1">
  <defs>
    <style>
      .cls-1 {
        fill: #f5ff00;
      }

      .cls-2 {
        fill: #e7ff00;
      }

      .cls-3 {
        fill: #c60060;
      }

      .cls-4 {
        fill: #e22512;
      }

      .cls-5 {
        fill: #e225ae;
      }

      .cls-6 {
        fill: #e1ff45;
      }

      .cls-7 {
        fill: #201d30;
      }
    </style>
  </defs>
  <g id="objects">
    <g>
      <path class="cls-1" d="m69.58,48.51l-12.02-4.28v-13.37l12.02-4.28c1.43-.51,2.94.55,2.94,2.08v17.77c0,1.52-1.51,2.59-2.94,2.08Z"/>
      <path class="cls-2" d="m57.56,37.55v6.69l12.02,4.28c1.43.51,2.94-.55,2.94-2.08v-8.89h-14.96Z"/>
      <polyline class="cls-4" points="32.52 75.1 26.36 60.51 13.74 70.07 15.72 54.35 0 56.33 9.56 43.7 9.56 31.39 0 18.77 15.72 20.75 13.74 5.03 26.36 14.59 32.52 0 38.68 14.59 51.3 5.03 49.32 20.75 65.04 18.77 55.48 31.39 55.48 43.7 65.04 56.33 49.32 54.35 51.3 70.07 38.68 60.51 32.52 75.1"/>
      <path class="cls-5" d="m32.52,6.89c-15.01,0-27.49,10.79-30.13,25.03l5.63,5.63-5.63,5.63c2.64,14.24,15.12,25.03,30.13,25.03,16.93,0,30.65-13.72,30.65-30.65S49.45,6.89,32.52,6.89Z"/>
      <path class="cls-3" d="m63.17,37.55c0-16.93-13.72-30.65-30.65-30.65-15.01,0-27.49,10.79-30.13,25.03l5.63,5.63h55.16Z"/>
      <path class="cls-6" d="m39.77,25.03c6.55,6.55,6.55,17.17,0,23.72l-11.86-11.86,11.86-11.86Z"/>
      <path class="cls-7" d="m17.68,26.34c0,1.87-1.52,3.39-3.39,3.39s-3.39-1.52-3.39-3.39,1.52-3.39,3.39-3.39,3.39,1.52,3.39,3.39Z"/>
    </g>
  </g>
</svg>