<?xml version="1.0" encoding="UTF-8"?>
<svg id="Layer_2" data-name="Layer 2" xmlns="http://www.w3.org/2000/svg" viewBox="0 0 960 342.77">
  <defs>
    <style>
      .cls-1 {
        fill: #1c1e1f;
      }

      .cls-2 {
        fill: none;
        stroke: #1c1e1f;
        stroke-linecap: round;
        stroke-linejoin: round;
        stroke-width: 1.92px;
      }

      .cls-2, .cls-3, .cls-4, .cls-5 {
        fill-rule: evenodd;
      }

      .cls-3 {
        fill: #e0d9d9;
      }

      .cls-4 {
        fill: #908fb2;
      }

      .cls-5 {
        fill: #022f4d;
      }
    </style>
  </defs>
  <g id="Layer_1-2" data-name="Layer 1">
    <g>
      <path class="cls-4" d="m231.32,200.76c.37,60,7.44,97.97,48.54,131.6,22.35,18.29,30.91,10.37,23.76-7.43-19.24-47.94-7.71-59.53-.13-83.75,5.39-17.23-72.28-57.15-72.17-40.42Z"/>
      <path class="cls-4" d="m0,169.76c2.17,32.13,165.76,103.28,267.12,109.69,161.58,10.22,456.84-67.7,558.52-50.9,78.43,12.95,56.4-48.59-6.07-46.19-72.85,2.8-361.23-98.13-512.15-107.19C133.72,64.74-.86,156.89,0,169.76Z"/>
      <path class="cls-3" d="m750.8,227.84c-55.46,5.84-217.34,40.24-343.95,25.2-156.85-18.63-283.85-57.63-374.23-50.79,53.3,33.32,160.48,72.52,234.5,77.2,131.48,8.31,351.49-41.73,483.68-51.61Z"/>
      <path class="cls-4" d="m838.82,194c-2.36,46.14,21.03,106.72,53.9,145.31,18.5,21.72-25.96-75.88-10.29-129.04,16.36-55.48,101.72-131.42,70.92-117.98-13.94,6.08-112.09,53.99-114.54,101.72Z"/>
      <path class="cls-2" d="m176,223.41c-7.58-3.18-82.53-9.68-99.43.47"/>
      <path class="cls-4" d="m297.02,234.47c53.79,37.51,83.41,55.43,134.66,72.93,69.71,23.79,60.13,9.86,22.05-11.16-37.54-20.72-50.45-51.94-72.8-70.43-14.48-11.97-98.39-1.43-83.91,8.66Z"/>
      <path class="cls-4" d="m325.8,94.1c21.88-62.43,63.2-85.7,118.86-90.77,93.82-8.55,29.25.63,13.69,13.06-41.89,33.47-40.02,53.76-43.85,84.36-2.23,17.81-94.28,9.27-88.7-6.65Z"/>
      <path class="cls-5" d="m192.29,123.91c15.92,20.36,45.87,57.64,32.71,82.5,25.89-17.11-4.59-70.21-32.71-82.5Z"/>
      <path class="cls-5" d="m210.95,123.91c15.92,20.36,41.21,61.64,28.05,86.5,25.89-17.11.07-74.21-28.05-86.5Z"/>
      <path class="cls-5" d="m229.95,125.91c15.92,20.36,41.21,61.64,28.05,86.5,25.89-17.11.07-74.21-28.05-86.5Z"/>
    </g>
    <path class="cls-1" d="m63.86,137.88l-2.02,2.87c-.38.54-.21,1.37.23,1.82,2,2.01,5.21,1.68,7.3,0s2.39-4.92.25-6.66c-1.88-1.52-4.83-1.74-6.73-.12-.96.82-1.42,2.13-1.24,3.37s.96,2.18,1.97,2.83c2.26,1.45,5.8,1.05,6.64-1.83.14-.5,0-1.11-.39-1.46-2.16-1.99-6.21-2.26-7.84.58-1.3,2.27-.25,5.8,2.54,6.27,3.16.53,5.38-2.91,4.82-5.76-.27-1.38-1.21-2.61-2.3-3.47-.56-.44-1.14-.83-1.78-1.15-.68-.34-1.59-.88-2.36-.88-1.16,0-2.32,1.02-2.82,1.99-.46.89-.61,1.91-.5,2.9.23,2,1.44,4.15,3.58,4.56,2.3.44,4.34-1.18,4.7-3.44.32-2.02-.36-4.34-2.14-5.51-.53-.35-1.13-.53-1.76-.59-.91-.08-1.7.2-2.11,1.07-.6,1.27-.44,2.72.34,3.89,1.48,2.22,4.95,3.45,6.99,1.22.47-.51.56-1.2.23-1.82-1.47-2.8-5.32-3.59-7.99-2.12-.69.38-1.37.97-1.77,1.65-.51.87.06,2.02.72,2.64,1.03.97,2.63,1.19,3.95.78,1.49-.47,2.66-1.68,2.74-3.29s-.99-3.12-2.41-3.82c-1.61-.79-3.48-.74-4.9.39-1.26,1-1.89,2.72-1.76,4.31.16,2.01,1.27,3.81,3.12,4.7s4.02.96,5.92.2c.68-.27,1.02-.72,1.1-1.45.65-6-8.93-8.82-11.86-3.68-.96,1.68,1.64,3.19,2.59,1.51.06-.11.13-.21.19-.31.15-.24-.17.15.09-.11.08-.08.16-.16.24-.24.23-.23-.04.01.05-.04.2-.13.41-.25.63-.35-.23.1-.1.04.06,0,.11-.03.22-.06.33-.09s.22-.04.33-.07c-.38.08-.03,0,.06,0,.23,0,.46-.02.7,0,.12,0,.23.02.35.03-.38-.04-.02,0,.07.02.25.06.5.11.75.19.11.04.23.08.34.12.1.04.07.03-.08-.04.05.02.11.05.16.07.23.12.46.23.67.37.1.06.19.13.29.2-.21-.14-.05-.04.06.05.17.15.32.33.48.48.24.23-.13-.23.04.05.06.1.12.19.18.28s.1.2.16.29c.16.28-.05-.23.02.05.02.11.06.22.09.32.05.17.04.3.02.05.02.28.02.55-.01.83l1.1-1.45c-.4.16-.8.28-1.22.36-.17.03-.06.02-.02.01-.11.02-.23.02-.34.03-.23.01-.45.02-.68,0-.11,0-.23-.01-.34-.03.19.02-.09-.02-.1-.02-.19-.04-.38-.09-.57-.14-.4-.12-.59-.21-.98-.49-.44-.31-.75-.8-.9-1.32-.02-.07-.11-.51-.08-.26-.03-.2-.03-.4-.03-.6,0-.1,0-.2.02-.3,0,.03-.04.21,0,.03.04-.22.1-.43.17-.64-.08.22.09-.17.13-.23s.08-.12.12-.18c-.13.19,0,0,.03-.04.06-.06.42-.35.25-.24.06-.04.12-.08.18-.11.14-.07-.18.03.08-.04.09-.02.18-.05.26-.07-.02,0-.24.02-.06,0,.16-.01.32,0,.48,0-.29-.01.19.04.28.07s.18.05.26.09c-.14-.05-.08-.04.02.02.16.09.32.17.47.29-.2-.15.1.11.15.17.05.05.09.1.13.15-.17-.22-.03-.02,0,.02.04.08.09.15.12.23-.08-.2-.02-.05,0,.07.03.18,0-.05,0-.07,0,.09,0,.18,0,.27,0-.26-.01,0-.04.13-.05.2.13-.22.02-.06-.03.04-.05.11-.08.14.4-.29-.26.23-.06.05.15-.13-.02.02-.07.04-.08.05-.16.09-.24.14-.03.02-.21.08-.03.01.21-.08-.1.03-.14.04-.16.04-.49.06-.16.05-.17,0-.34,0-.51,0-.21,0,.27.07.07,0-.08-.03-.18-.05-.26-.07-.04,0-.2-.09-.02,0,.21.1-.06-.05-.1-.07-.06-.03-.27-.14.06.05-.01,0-.15-.14-.14-.15-.02.03.2.23.06.04-.17-.23.08.25-.01-.06l-.15,1.16c.1-.14.11-.15.01-.02.06-.07.12-.13.18-.2.02-.02.35-.29.1-.11.12-.09.26-.17.39-.25.06-.03.48-.2.19-.1.13-.04.25-.09.38-.12.06-.02.61-.12.26-.07.29-.04.59-.03.88-.02.37,0-.06-.04.21.02.13.03.26.06.4.09.06.02.57.21.28.08.12.05.24.12.36.18s.23.14.34.21c-.25-.18.16.15.2.2.03.03.29.35.11.1.11.15.2.3.28.46l.23-1.82c-.05.05-.43.42-.15.16-.06.04-.13.08-.2.12.19-.07.2-.08.05-.02-.05,0-.48.09-.24.06s-.21-.02-.25-.01c-.17-.02-.15-.01.06.01-.08-.01-.15-.03-.23-.05-.07-.02-.55-.2-.2-.05-.26-.12-.5-.26-.74-.43.29.21-.11-.11-.16-.16-.09-.09-.17-.18-.25-.27.24.26-.07-.11-.11-.18-.06-.09-.19-.52-.1-.16-.03-.11-.06-.22-.09-.33-.03-.17-.03-.15,0,.07,0-.07,0-.15,0-.22.01-.17,0-.15-.02.06.01-.07.03-.15.06-.22.06-.16.05-.15-.02.03.04-.07.08-.15.12-.22l-1.3.74c.14-.02.29,0,.43-.02.24-.02-.27-.09.05,0,.21.06.27.13.06,0,.12.08.25.14.38.22.17.1-.21-.2-.07-.05.03.04.08.06.11.1.07.08.31.41.09.08.16.23.29.46.41.72-.12-.27-.03-.05.02.09.04.12.07.24.1.36s.04.53.03.13c0,.14.02.29.03.43s-.01.28-.02.42c0,.27.07-.27-.01.07-.03.12-.06.23-.09.35-.02.07-.05.13-.07.19.11-.35.06-.13,0-.04-.06.1-.12.2-.18.29.19-.33,0-.04-.08.06-.14.18.24-.11-.04.04-.06.03-.12.06-.17.1-.13.09.29-.07.02,0-.07.02-.43.11-.23.07.24-.05-.25,0-.28,0-.12.04.1.02.14.03-.06-.02-.13-.02-.2-.04s-.13-.04-.19-.06c-.24-.06.14.12.04.01-.07-.07-.21-.13-.29-.18.27.16.04.03-.08-.09-.04-.04-.29-.33-.15-.16.13.16-.13-.21-.17-.28-.06-.11-.12-.22-.17-.33-.07-.15.04.1.05.11-.02-.07-.05-.13-.07-.2-.04-.14-.08-.28-.12-.42s-.07-.48-.04-.14c-.02-.31,0-.6,0-.91,0-.2-.09.27,0,.09.03-.07.04-.17.06-.25.05-.17.17-.41.02-.12.07-.13.15-.26.22-.39.09-.17-.2.2-.06.07.06-.05.12-.12.17-.18.06-.08.21-.12-.07.05.06-.03.11-.08.17-.11s.12-.06.19-.1c-.22.11-.12.05.05,0h-.8c1.23.44,2.55,1.07,3.4,2.14-.07-.09.13.19.16.24.09.14.17.29.24.44-.05-.11.07.2.09.25.03.09.05.19.07.29-.03-.16,0-.06,0,.04,0,.15,0,.3-.01.45.03-.24-.03.12-.05.19-.04.14-.08.29-.14.43.09-.2-.15.25-.19.3-.13.22.05-.02-.12.16-.1.1-.2.21-.3.3.18-.15-.09.04-.15.08-.02.01-.22.1-.07.04s-.11.03-.14.03c-.23.06.23-.02,0,0-.07,0-.14,0-.21,0,.24,0-.05-.02-.15-.05.23.07,0-.01-.11-.07.22.13-.04-.05-.13-.13-.12-.12.02.03.04.05-.05-.07-.09-.15-.13-.22-.14-.21.01.13-.06-.12-.03-.13-.07-.25-.1-.38.07.27,0-.08,0-.2,0-.06.03-.42,0-.27-.02.14.07-.23.09-.32.07-.24-.08.08.06-.12.04-.05.07-.11.11-.17.12-.18-.14.14.02,0,.18-.16.41-.32.59-.37.08-.02.15-.04.23-.06.03,0,.3-.05.19-.04-.14.02.12,0,.12,0,.11,0,.21,0,.32,0,0,0,.26.02.12,0-.11-.01.17.03.2.04.18.04.37.09.54.16-.17-.07.07.04.09.04.1.05.19.1.28.16.17.1.11.05.33.26l-.39-1.46s-.14.36-.03.13-.06.08-.07.1c-.03.09-.21.17.06-.06-.06.05-.12.12-.17.17-.15.15.28-.24.03-.03-.05.04-.13.05-.17.09.17-.16.24-.07.09-.04-.09.02-.2.05-.29.08-.29.12.23,0,.05,0-.08,0-.18.01-.26.02-.08,0-.56-.03-.33,0s-.25-.05-.34-.08c-.07-.02-.14-.04-.21-.06-.07-.02-.14-.05-.21-.07.17.08.21.09.11.05-.15-.07-.29-.15-.43-.23-.06-.03-.12-.08-.18-.12.29.17.09.08.01,0-.11-.11-.22-.22-.32-.33.24.26.08.11.03.02-.02-.04-.18-.36-.08-.13.11.26-.03-.1-.02-.1-.05-.01.01-.44,0,.1,0-.08.02-.54-.01-.33-.04.25.2-.49.01-.09.04-.08.09-.16.13-.24.14-.29-.05.03.02-.04.1-.1.44-.33.13-.15.15-.09.3-.18.46-.26-.3.14,0,.01.15-.03.09-.02.18-.04.27-.06.11-.03-.3,0,.05,0,.17,0,.34,0,.51,0,.02,0,.39.04.14,0s.12.03.14.03c.15.04.29.08.44.12.02,0,.36.14.14.04-.21-.09.19.1.22.12.12.07.4.29.15.07.14.12.26.24.39.38-.23-.24.02.06.1.19.1.17-.07-.34,0,0,.02.11.06.22.09.33-.08-.33-.02.07,0,.22.02.38.05-.18,0,.03-.02.1-.05.2-.07.3-.05.25-.01.05.02-.02-.04.09-.09.18-.14.27s-.11.17-.16.26c.15-.21,0-.02-.08.07s-.51.43-.26.26c-.19.13-.39.25-.6.36-.07.04-.34.14-.05.03-.12.04-.24.09-.37.12-.12.03-.69.14-.36.1-.23.03-.46.02-.7.02-.09,0-.36-.06-.04,0-.12-.02-.24-.05-.37-.08-.08-.02-.16-.05-.24-.08.31.1-.02-.01-.09-.06-.09-.05-.18-.11-.27-.17-.09-.06-.07-.05.05.04-.06-.06-.13-.12-.19-.18l.23,1.82,2.02-2.87c.47-.66.12-1.67-.54-2.05-.75-.44-1.59-.13-2.05.54h0Z"/>
  </g>
</svg>