<?xml version="1.0" encoding="UTF-8"?>
<svg id="Layer_2" data-name="Layer 2" xmlns="http://www.w3.org/2000/svg" xmlns:xlink="http://www.w3.org/1999/xlink" viewBox="0 0 1408 791.6">
  <defs>
    <style>
      .cls-1 {
        font-family: SavoyeLetPlain, 'Savoye LET';
        letter-spacing: .82em;
      }

      .cls-1, .cls-2 {
        font-size: 103.07px;
      }

      .cls-1, .cls-2, .cls-3 {
        fill: #95ffff;
        isolation: isolate;
      }

      .cls-4 {
        fill: url(#linear-gradient);
      }

      .cls-2, .cls-3 {
        font-family: ComicSansMS, 'Comic Sans MS';
      }

      .cls-5 {
        fill: #fff92e;
      }

      .cls-6 {
        fill: #fffa00;
      }

      .cls-7 {
        fill: #fff;
      }

      .cls-8 {
        fill: #ffe238;
      }

      .cls-9 {
        fill: #ffa477;
      }

      .cls-10 {
        fill: #fba479;
      }

      .cls-11 {
        fill: #9bffff;
      }

      .cls-12 {
        fill: #dd775f;
      }

      .cls-13 {
        fill: #e0d72d;
      }

      .cls-14 {
        fill: #191919;
      }

      .cls-15 {
        fill: #35251a;
      }

      .cls-16 {
        fill: #777077;
      }

      .cls-3 {
        font-size: 114px;
      }
    </style>
    <linearGradient id="linear-gradient" x1="661.25" y1="749.37" x2="752.09" y2="-52.98" gradientTransform="translate(0 24)" gradientUnits="userSpaceOnUse">
      <stop offset="0" stop-color="#434fcc"/>
      <stop offset="1" stop-color="#3b9cd5"/>
    </linearGradient>
  </defs>
  <g id="Layer_2-2" data-name="Layer 2">
    <g id="Layer_1-2" data-name="Layer 1-2">
      <rect class="cls-4" width="1408" height="791.6"/>
      <g>
        <g>
          <path class="cls-9" d="m399.7,199.4c-2.1.9-3,2.4-3.3,2.8-1.3-11.2,1.7-14.4,2.5-14.5"/>
          <path class="cls-15" d="m424.9,151.7c-9.7,1.7-18.8-10.5-25.4-11.9-13.9-1.8-22,12.4-25.9,26.2-6.9,6.3-12.5,4.7-21.6,8.5-9.6,7-15.5,19.1-27.1,5.5,12.7-27.3-40.3-34.1,35.5-63.5,2.6-6.1,21.7,6.5,32.2-.9,7.7-3.4,18.9-.4,22.7,6.2-4.9-4-12-4.7-16.4-2.2-12.8,10.3,10.4.6,20.4,13.9,8.2-1.9,2,1.6-.8,1.9-3.3-1-11.2-7.4-14.2-2.4,5.9-.1,9,4.9,13.3,9.5,1.6,1.2,4.3,2.6,8.9,3.1-4,1.4-17.9-5.1-18.7-8.9,4.1,8.7,12.1,11.8,17.1,15h0Z"/>
          <path d="m421.4,318.7c-41.6,9.1-68.4-35.8-95.9-60,30.9-7.7,67.4-45.5,72.4,7.5-3.8,32,68.8,43.6,23.5,52.5h0Z"/>
          <path class="cls-6" d="m408.3,735.6c-29,20.1-128.8-91.9-78.9-78.4,63.4,85.1,98.7,15.9,78.9,78.4Z"/>
          <path class="cls-5" d="m576.5,692.8c-15.2-24.4-74.7-63.2-111.8-60-15.6-27.5,93.3-10.5,120.6,29.8-4.4,5-6.1,24.1-8.8,30.2Z"/>
          <path class="cls-5" d="m466.8,626.1c-13.4,1.5-13.6-19.3-2.5-10.1,3.3,5,15.5,10.7,2.5,10.1Z"/>
          <g>
            <path d="m411.9,462.5c-48.4,26-190.5-20.3-158.4-90.1,13.5-66.6,133.1,66.7,158.4,90.1h0Z"/>
            <path d="m464.7,617.1c-13.4,10.9-78-72.7-85.4-97.8,8.6-23.3-11.6-77.4,28.5-62,18.2,49.2,26.8,105.5,56.9,159.8Z"/>
            <path d="m462.4,612.2c-17.5-25.4-35.4-51.1-44.2-82.4-7.6-21.8.1-49.7-16.2-64.2-21.4-17.9-102.5-38.8-78.4-75.9,34.4,6,58.2,47.9,84.2,67.6,18,47.9,25.4,101.4,54.6,154.9h0Z"/>
          </g>
          <path d="m543.7,316.2c-25.2,2.5-129.7,17.8-126.9-3.8-17.4-5.5-5.9-16,3.1-15.6,53.9,1.9,116.6-4.5,123.8,19.4Z"/>
          <path class="cls-13" d="m330.6,661.1c-12,4.5-22.2-15.9-6.3-13.5-.2,4.3,6,10.3,6.3,13.5Z"/>
          <g>
            <path d="m329.2,499.5c-79.7,6.2-162.4-134.7-48.6-151.9,18,58.7,39.5,98.7,48.6,151.9Z"/>
            <path d="m325.3,651.8c-16.5,7.1-48.1-82.6-47.5-112.7,16.6-19.5,15-76.9,49.2-53.4,9.2,10.5-.7,23.4-3.2,34.3-3.4,22.4-2.9,89.7,1.5,131.8h0Z"/>
            <path d="m325.3,651.8c-12.8-6.4-10.6-46.5-18.4-55.7-13.9-31.4-24.6-67.2,7.5-87.8-24.5-23.4-50.7-66.2-44.9-101.7,36.1-3.5,56.2,62.4,61,92.8-14.3,37.5-9,95.7-5.2,152.4Z"/>
          </g>
          <path class="cls-9" d="m380.8,235.3c-51.9,30.8-36.8,3.5-75.2-31,41,11.8,31.1-52.4,64-20.6,14.1,21-17.4,33.2,11.2,51.6h0Z"/>
          <path class="cls-9" d="m392.1,211.7c-15.3-1.9-54.7-13.7-42-33.2-8.9-1.2-15.4-11.5-11.1-19,2.3-8.7,16-2.5,16.8,3.7-.1,1.3-.1,2.6-.2,3.9-.3,1.4,7,2,6.2-.2.6-15.6,6.6-26.2,21-25.2,19.1-12.8,18.5,6.2,23.3,17.8-9.8,6.9-1.4,20.4,2.3,27.3-23.2-2.8,4.2,25-16.3,24.9h0Z"/>
          <path d="m341.3,354.6c-20.1,36.4-61.2,14-93.3,12,17.7-48.5-18.4-168.2,61.3-164,23.5,3,63.8,2.4,69.2,30.2,8.4,43.3-45.7,90.3-37.2,121.8Z"/>
          <path class="cls-12" d="m355.6,167.9c.8-3.4-8.9-14.6-16.6-8.5,2.9-9.9,19.9-1.2,16.6,8.5Z"/>
          <path d="m212,227.6c17.6-31.3,128.4-37.5,148.3-.6,22.8,28.7-19.8,55.3-44.3,45.7-32.2-18.2-80.2-17.2-104-45.1h0Z"/>
          <path d="m119.7,202c29.4,23,73.6,34.3,112.1,34.9,19.5-7.5,25.4-18.9.9-24.7-28.6-4.5-90.7-28-113-10.2h0Z"/>
          <path class="cls-16" d="m115.8,166.5c-1.8,18.8,1.1,54.8,29.6,37.3-7.8-7.1-12.3-41.6-29.6-37.3h0Z"/>
          <path class="cls-16" d="m560,287.5c-7.2,6.2-23.3,62.9-42.8,19.9,13.2-4.7,27.5-35.5,42.8-19.9Z"/>
          <path class="cls-10" d="m130.9,136c-5.5-3.4-7.3-4.7-12.1-9.8-4.1,3.7,14.2,14.5,12.1,9.8Zm0,0c-5.5-3.4-7.3-4.7-12.1-9.8-4.1,3.7,14.2,14.5,12.1,9.8Zm-1.9-14.6c-2.8,1.4-4.7,7.1-5.6,9.3.7-2.9,7.4-18.9-3.5-6.6-16.3-21.2-5.5,44.6-1.9,51.1,10.8,7,10.4-39.7,15.9-47.7-1.7-2.9-4.5,3.9-6.4,6.3-1.6-.1,6.2-10.8,1.5-12.4h0Zm-12.4,9.4c.4-5.5-2.9-8.2,2.2-4.6-.3.6-2.3,7.1-2.2,4.6Zm14.3,5.2c-5.5-3.4-7.3-4.7-12.1-9.8-4.1,3.7,14.2,14.5,12.1,9.8Zm0,0c-5.5-3.4-7.3-4.7-12.1-9.8-4.1,3.7,14.2,14.5,12.1,9.8Z"/>
          <path class="cls-10" d="m567.1,253.6c-4.7-2.6-6.3-3.5-10.6-7.6-3.2,3.3,12.7,11.5,10.6,7.6Zm0,0c-4.7-2.6-6.3-3.5-10.6-7.6-3.2,3.3,12.7,11.5,10.6,7.6Zm-2.3-12.1c-2.2,1.3-3.5,6.2-4.2,8.1.5-2.4,5.2-16.1-3.3-5.4-14.7-16.9-2.4,37.5.9,42.8,9.4,5.3,6.8-33.7,10.9-40.7-1.6-2.3-3.6,3.5-5.1,5.6-1.2,0,4.8-9.3.8-10.4h0Zm-9.9,8.5c0-4.6-2.9-6.7,1.6-4-.2.6-1.5,6.1-1.6,4Zm12.2,3.6c-4.7-2.6-6.3-3.5-10.6-7.6-3.2,3.3,12.7,11.5,10.6,7.6Zm0,0c-4.7-2.6-6.3-3.5-10.6-7.6-3.2,3.3,12.7,11.5,10.6,7.6Z"/>
        </g>
        <g>
          <path class="cls-14" d="m388.9,215.4c-10.4,1.5-6.7-1.6-4.4-8.7,10.4-1.5,6.7,1.6,4.4,8.7Z"/>
          <g>
            <path class="cls-7" d="m400.5,211.7c4.7-4.7,39.5-124.6,48.9-124.6,7.5,2.7-43.4,120-42.2,124.3"/>
            <path class="cls-14" d="m405.9,193.1c10.6-4.7,10.2-.6,4.4,12.8.5,14.1-24,20.4-31.2,17.9,6-27.7,19.6,3.5,27.7-33.1"/>
            <path class="cls-14" d="m385.9,217.2c-1.9,6.8-12,10.1-9.1.3,1.9-6.9,12.1-10.1,9.1-.3Z"/>
            <path class="cls-8" d="m446.7,105.7c-14.6,21.2-6.7-20.8,3.6-20.2,6.1,1.5-3.3,16.9-3.6,20.2Z"/>
          </g>
          <path class="cls-8" d="m395.8,197c10.2,6.6-17.3,16.6-12.8,4.5,1.9-5.7,8.5-4.1,12.8-4.5Z"/>
        </g>
        <g>
          <path class="cls-14" d="m359.6,157.1c-1.5,3.8-9.8,1.5-10-1.6,1.1-2.7,11.1-1.9,10,1.6Z"/>
          <path class="cls-8" d="m357,157.7c-4.3-1.1-5.6,4.5-1.3,5.5"/>
          <g>
            <path class="cls-8" d="m393.1,179.9c-3.4-27.3-12.3,5.2-27.5,4.2-.1-.1,35.8,4.8,35,4.7-6.6-1.1-7.1-5.1-7.5-8.9h0Z"/>
            <path class="cls-14" d="m421.1,178.9c14.7-21.8-18.4-22.6-26.9-23.5-9.2-3-41.7-5.3-41.1,14.6-2.7,28.6,28.8,3.1,37.1-3.8,5.5,14.4,16.8,35.8,30.9,12.7h0Z"/>
            <path class="cls-14" d="m365.7,184.1c15.2,1,24.1-31.5,27.5-4.2.4,3.8,1,7.9,7.7,8.9-11.3-32.2-11.9-20.4-35.2-4.7Z"/>
            <path class="cls-8" d="m400.6,188.8s-25.5-3.2-35-4.7"/>
          </g>
          <path class="cls-7" d="m402.2,184.9c-11-11.2-6-31.8-27.3-9.1-8.8,11.3-24.4-.4-15.1-12.7,7.8-13.9,37-1,50.3-1.6,20.9,1.4,5.7,27.6-7.9,23.4h0Z"/>
          <path class="cls-7" d="m392.7,159.2c6.7,1.7,31.9.6,27.2,11.8-1.8,8.4-7.7,15.9-17.4,14-9.1-.7-4-20.3-12.3-19"/>
        </g>
      </g>
      <ellipse class="cls-11" cx="462.27" cy="65.95" rx="5.3" ry="7.2" transform="translate(111.1 373.72) rotate(-49.35)"/>
      <circle class="cls-11" cx="498.4" cy="24.2" r="12.9"/>
      <ellipse class="cls-11" cx="475.42" cy="36.09" rx="8.9" ry="12" transform="translate(138.34 373.29) rotate(-49.35)"/>
      <ellipse class="cls-11" cx="514.52" cy="53.1" rx="11.1" ry="15" transform="translate(139.06 408.89) rotate(-49.35)"/>
      <ellipse class="cls-11" cx="552.08" cy="24.18" rx="19" ry="25.8" transform="translate(174.1 427.3) rotate(-49.35)"/>
      <text class="cls-3" transform="translate(613.89 201.66) scale(.65 1)"><tspan x="0" y="0">You Win!</tspan></text>
      <text class="cls-1" transform="translate(700.89 453.81) scale(.65 1)"><tspan x="0" y="0" xml:space="preserve">   </tspan></text>
      <text class="cls-2" transform="translate(832.49 288.87) scale(.65 1)"><tspan x="0" y="0">try again?</tspan></text>
    </g>
  </g>
</svg>